{"glyphs":{"0":{"ha":1093,"x_min":65,"x_max":1028,"o":"m 546 -14 q 290 46 398 -14 q 124 224 182 106 q 65 514 65 342 q 124 804 65 685 q 290 982 182 922 q 546 1042 398 1042 q 802 982 694 1042 q 969 804 910 922 q 1028 514 1028 685 q 969 224 1028 342 q 802 46 910 106 q 546 -14 694 -14 m 547 249 q 666 309 626 249 q 707 514 707 369 q 666 719 707 658 q 547 779 626 779 q 427 719 468 779 q 386 514 386 658 q 405 357 386 415 q 458 274 423 299 q 547 249 494 249 z "},"1":{"ha":744,"x_min":35,"x_max":647,"o":"m 425 1032 l 647 1032 l 647 0 l 317 0 l 317 650 l 35 447 l 35 751 l 425 1032 z "},"2":{"ha":890,"x_min":21,"x_max":853,"o":"m 853 256 l 853 0 l 33 0 l 33 168 l 365 510 q 454 615 429 574 q 479 692 479 656 q 462 747 479 726 q 405 780 445 769 q 296 790 365 790 q 150 777 225 790 q 21 744 75 764 l 21 1000 q 163 1029 76 1017 q 321 1042 250 1042 q 595 1007 489 1042 q 752 904 702 973 q 803 729 803 835 q 766 572 803 647 q 642 413 728 497 l 480 256 l 853 256 z "},"3":{"ha":896,"x_min":38,"x_max":847,"o":"m 643 530 q 793 451 740 510 q 847 294 847 393 q 731 67 847 149 q 368 -14 615 -14 q 38 24 197 -14 l 38 253 q 191 225 110 235 q 349 214 272 214 q 498 239 452 214 q 543 314 543 265 q 526 367 543 347 q 468 399 509 388 q 354 410 426 410 l 144 410 l 144 639 l 324 639 q 458 660 420 639 q 496 722 496 681 q 456 790 496 767 q 328 814 416 814 q 188 802 262 814 q 56 771 115 790 l 56 1000 q 198 1030 113 1018 q 358 1042 283 1042 q 698 966 585 1042 q 810 747 810 890 q 765 611 810 669 q 643 530 720 553 z "},"4":{"ha":1036,"x_min":24,"x_max":1014,"o":"m 1014 428 l 1014 178 l 876 178 l 876 0 l 581 0 l 581 178 l 24 178 l 24 351 l 386 1028 l 701 1028 l 383 428 l 581 428 l 608 681 l 876 681 l 876 428 l 1014 428 z "},"5":{"ha":904,"x_min":54,"x_max":865,"o":"m 407 646 q 673 594 572 634 q 820 486 774 553 q 865 322 865 419 q 747 73 865 159 q 385 -14 629 -14 q 54 29 217 -14 l 54 258 q 208 230 126 241 q 365 219 289 219 q 514 244 468 219 q 560 315 560 269 q 537 370 560 349 q 450 404 514 391 q 267 424 387 417 l 86 432 l 126 1028 l 819 1028 l 819 794 l 418 794 l 407 646 z "},"6":{"ha":1022,"x_min":72,"x_max":979,"o":"m 608 639 q 880 560 781 639 q 979 318 979 481 q 930 145 979 220 q 784 28 881 70 q 551 -14 688 -14 q 299 41 407 -14 q 132 206 191 97 q 72 474 72 316 q 138 781 72 654 q 334 975 204 908 q 654 1042 465 1042 q 797 1033 733 1042 q 918 1003 860 1024 l 918 768 q 801 798 865 788 q 678 808 738 808 q 468 752 539 808 q 390 594 397 696 q 492 627 435 615 q 608 639 550 639 m 551 206 q 650 233 615 206 q 685 311 685 260 q 647 393 685 366 q 540 419 610 419 q 390 388 463 419 q 437 247 397 288 q 551 206 477 206 z "},"7":{"ha":850,"x_min":8,"x_max":810,"o":"m 8 1028 l 810 1028 l 810 860 l 475 0 l 140 0 l 463 772 l 8 772 l 8 1028 z "},"8":{"ha":1093,"x_min":57,"x_max":1032,"o":"m 843 558 q 989 449 946 512 q 1032 300 1032 386 q 981 142 1032 213 q 822 28 931 71 q 547 -14 713 -14 q 174 58 291 -14 q 57 249 57 130 q 107 390 57 328 q 250 485 156 451 q 125 595 163 532 q 86 739 86 659 q 138 896 86 828 q 299 1003 190 964 q 574 1042 408 1042 q 809 1011 713 1042 q 955 923 906 981 q 1004 785 1004 865 q 843 558 1004 631 m 564 831 q 433 808 474 831 q 393 753 393 786 q 410 706 393 725 q 478 667 427 686 q 633 624 529 647 q 700 681 679 651 q 721 744 721 711 q 683 808 721 785 q 564 831 644 831 m 549 197 q 687 218 644 197 q 729 279 729 240 q 709 330 729 309 q 635 370 689 351 q 478 410 581 389 l 454 415 q 384 359 406 390 q 363 296 363 328 q 549 197 363 197 z "},"9":{"ha":1022,"x_min":43,"x_max":950,"o":"m 471 1042 q 723 986 615 1042 q 891 822 831 931 q 950 554 950 712 q 884 247 950 374 q 688 53 818 119 q 368 -14 558 -14 q 226 -5 289 -14 q 104 25 163 4 l 104 260 q 221 230 158 240 q 344 219 284 219 q 554 276 483 219 q 633 433 625 332 q 530 401 588 413 q 414 389 472 389 q 142 468 242 389 q 43 710 43 547 q 92 883 43 808 q 238 1000 142 958 q 471 1042 334 1042 m 338 717 q 375 635 338 662 q 482 608 413 608 q 632 640 560 608 q 585 781 626 740 q 471 822 545 822 q 372 795 407 822 q 338 717 338 767 z "},"\u0000":{"ha":0,"x_min":0,"x_max":0,"o":""},"\r":{"ha":406,"x_min":0,"x_max":0,"o":""}," ":{"ha":406,"x_min":0,"x_max":0,"o":""},"A":{"ha":1222,"x_min":11,"x_max":1211,"o":"m 889 0 l 813 232 l 407 232 l 331 0 l 11 0 l 372 1028 l 850 1028 l 1211 0 l 889 0 m 487 475 l 733 475 l 610 849 l 487 475 z "},"Á":{"ha":1222,"x_min":11,"x_max":1211,"o":"m 889 0 l 813 232 l 407 232 l 331 0 l 11 0 l 372 1028 l 850 1028 l 1211 0 l 889 0 m 487 475 l 733 475 l 610 849 l 487 475 m 461 1101 l 603 1321 l 942 1321 l 753 1101 l 461 1101 z "},"Ă":{"ha":1222,"x_min":11,"x_max":1211,"o":"m 889 0 l 813 232 l 407 232 l 331 0 l 11 0 l 372 1028 l 850 1028 l 1211 0 l 889 0 m 487 475 l 733 475 l 610 849 l 487 475 m 610 1101 q 373 1162 456 1101 q 274 1321 290 1222 l 464 1321 q 511 1266 475 1286 q 610 1246 547 1246 q 709 1266 673 1246 q 756 1321 744 1286 l 946 1321 q 846 1162 929 1222 q 610 1101 763 1101 z "},"Ắ":{"ha":1222,"x_min":11,"x_max":1211,"o":"m 889 0 l 813 232 l 407 232 l 331 0 l 11 0 l 372 1028 l 850 1028 l 1211 0 l 889 0 m 487 475 l 733 475 l 610 849 l 487 475 m 519 1269 l 593 1433 l 813 1433 l 700 1269 l 519 1269 m 610 1101 q 401 1152 474 1101 q 311 1290 328 1202 l 468 1290 q 490 1251 476 1267 q 532 1228 503 1236 q 610 1219 561 1219 q 687 1228 658 1219 q 731 1251 716 1236 q 758 1290 747 1266 l 908 1290 q 818 1152 891 1202 q 610 1101 745 1101 z "},"Ặ":{"ha":1222,"x_min":11,"x_max":1211,"o":"m 889 0 l 813 232 l 407 232 l 331 0 l 11 0 l 372 1028 l 850 1028 l 1211 0 l 889 0 m 487 475 l 733 475 l 610 849 l 487 475 m 611 -322 q 470 -289 515 -322 q 425 -197 425 -256 q 470 -106 425 -139 q 611 -72 515 -72 q 752 -106 707 -72 q 797 -197 797 -139 q 752 -289 797 -256 q 611 -322 707 -322 m 610 1101 q 373 1162 456 1101 q 274 1321 290 1222 l 464 1321 q 511 1266 475 1286 q 610 1246 547 1246 q 709 1266 673 1246 q 756 1321 744 1286 l 946 1321 q 846 1162 929 1222 q 610 1101 763 1101 z "},"Ằ":{"ha":1222,"x_min":11,"x_max":1211,"o":"m 889 0 l 813 232 l 407 232 l 331 0 l 11 0 l 372 1028 l 850 1028 l 1211 0 l 889 0 m 487 475 l 733 475 l 610 849 l 487 475 m 519 1269 l 407 1433 l 626 1433 l 700 1269 l 519 1269 m 610 1101 q 401 1152 474 1101 q 311 1290 328 1202 l 461 1290 q 488 1251 473 1266 q 532 1228 503 1236 q 610 1219 561 1219 q 687 1228 658 1219 q 730 1251 716 1236 q 751 1290 744 1267 l 908 1290 q 818 1152 891 1202 q 610 1101 745 1101 z "},"Ẳ":{"ha":1222,"x_min":11,"x_max":1211,"o":"m 889 0 l 813 232 l 407 232 l 331 0 l 11 0 l 372 1028 l 850 1028 l 1211 0 l 889 0 m 487 475 l 733 475 l 610 849 l 487 475 m 535 1269 q 558 1308 537 1294 q 616 1337 578 1322 q 652 1353 641 1347 q 663 1368 663 1360 q 582 1385 663 1385 q 439 1372 512 1385 l 439 1461 q 520 1471 474 1467 q 606 1475 567 1475 q 818 1386 818 1475 q 805 1350 818 1365 q 775 1325 792 1335 q 731 1301 758 1315 q 697 1284 708 1290 q 685 1269 686 1277 l 535 1269 m 610 1101 q 401 1152 474 1101 q 311 1290 328 1202 l 468 1290 q 490 1251 476 1267 q 532 1228 503 1236 q 610 1219 561 1219 q 687 1228 658 1219 q 731 1251 716 1236 q 758 1290 747 1266 l 908 1290 q 818 1152 891 1202 q 610 1101 745 1101 z "},"Ẵ":{"ha":1222,"x_min":11,"x_max":1211,"o":"m 889 0 l 813 232 l 407 232 l 331 0 l 11 0 l 372 1028 l 850 1028 l 1211 0 l 889 0 m 487 475 l 733 475 l 610 849 l 487 475 m 729 1319 q 668 1325 697 1319 q 594 1340 639 1330 q 535 1354 560 1349 q 488 1358 511 1358 q 410 1348 448 1358 q 311 1313 372 1338 l 311 1431 q 403 1466 363 1457 q 490 1475 442 1475 q 555 1469 524 1475 q 625 1453 586 1463 q 687 1439 665 1443 q 732 1435 709 1435 q 810 1445 772 1435 q 908 1481 848 1455 l 908 1363 q 818 1328 857 1336 q 729 1319 778 1319 m 610 1101 q 401 1152 474 1101 q 311 1290 328 1202 l 468 1290 q 490 1251 476 1267 q 532 1228 503 1236 q 610 1219 561 1219 q 687 1228 658 1219 q 730 1251 716 1236 q 751 1290 744 1267 l 908 1290 q 818 1152 891 1202 q 610 1101 745 1101 z "},"Â":{"ha":1222,"x_min":11,"x_max":1211,"o":"m 889 0 l 813 232 l 407 232 l 331 0 l 11 0 l 372 1028 l 850 1028 l 1211 0 l 889 0 m 487 475 l 733 475 l 610 849 l 487 475 m 974 1101 l 721 1101 l 610 1209 l 499 1101 l 246 1101 l 476 1321 l 743 1321 l 974 1101 z "},"Ấ":{"ha":1222,"x_min":11,"x_max":1211,"o":"m 889 0 l 813 232 l 407 232 l 331 0 l 11 0 l 372 1028 l 850 1028 l 1211 0 l 889 0 m 487 475 l 733 475 l 610 849 l 487 475 m 883 1433 l 1103 1433 l 990 1269 l 810 1269 l 883 1433 m 476 1290 l 743 1290 l 974 1101 l 721 1101 l 610 1194 l 499 1101 l 246 1101 l 476 1290 z "},"Ậ":{"ha":1222,"x_min":11,"x_max":1211,"o":"m 889 0 l 813 232 l 407 232 l 331 0 l 11 0 l 372 1028 l 850 1028 l 1211 0 l 889 0 m 487 475 l 733 475 l 610 849 l 487 475 m 611 -322 q 470 -289 515 -322 q 425 -197 425 -256 q 470 -106 425 -139 q 611 -72 515 -72 q 752 -106 707 -72 q 797 -197 797 -139 q 752 -289 797 -256 q 611 -322 707 -322 m 974 1101 l 721 1101 l 610 1209 l 499 1101 l 246 1101 l 476 1321 l 743 1321 l 974 1101 z "},"Ầ":{"ha":1222,"x_min":11,"x_max":1211,"o":"m 889 0 l 813 232 l 407 232 l 331 0 l 11 0 l 372 1028 l 850 1028 l 1211 0 l 889 0 m 487 475 l 733 475 l 610 849 l 487 475 m 1018 1269 l 838 1269 l 725 1433 l 944 1433 l 1018 1269 m 476 1290 l 743 1290 l 974 1101 l 721 1101 l 610 1194 l 499 1101 l 246 1101 l 476 1290 z "},"Ẩ":{"ha":1222,"x_min":11,"x_max":1211,"o":"m 889 0 l 813 232 l 407 232 l 331 0 l 11 0 l 372 1028 l 850 1028 l 1211 0 l 889 0 m 487 475 l 733 475 l 610 849 l 487 475 m 879 1475 q 1092 1386 1092 1475 q 1079 1350 1092 1365 q 1049 1325 1066 1335 q 1005 1301 1032 1315 q 970 1284 981 1290 q 958 1269 960 1277 l 808 1269 q 831 1308 810 1294 q 890 1337 852 1322 q 925 1353 915 1347 q 936 1368 936 1360 q 856 1385 936 1385 q 713 1372 785 1385 l 713 1461 q 794 1471 748 1467 q 879 1475 840 1475 m 476 1290 l 743 1290 l 974 1101 l 721 1101 l 610 1194 l 499 1101 l 246 1101 l 476 1290 z "},"Ẫ":{"ha":1222,"x_min":11,"x_max":1211,"o":"m 889 0 l 813 232 l 407 232 l 331 0 l 11 0 l 372 1028 l 850 1028 l 1211 0 l 889 0 m 487 475 l 733 475 l 610 849 l 487 475 m 772 1435 q 866 1445 822 1435 q 974 1481 910 1455 l 974 1363 q 875 1328 920 1336 q 769 1319 829 1319 q 687 1325 725 1319 q 590 1340 649 1330 q 509 1354 540 1350 q 447 1358 479 1358 q 353 1348 398 1358 q 246 1313 309 1338 l 246 1431 q 345 1466 299 1457 q 450 1475 392 1475 q 534 1469 494 1475 q 629 1453 574 1464 q 708 1439 676 1444 q 772 1435 740 1435 m 476 1290 l 743 1290 l 974 1101 l 721 1101 l 610 1194 l 499 1101 l 246 1101 l 476 1290 z "},"Ȁ":{"ha":1222,"x_min":11,"x_max":1211,"o":"m 889 0 l 813 232 l 407 232 l 331 0 l 11 0 l 372 1028 l 850 1028 l 1211 0 l 889 0 m 487 475 l 733 475 l 610 849 l 487 475 m 333 1101 l 203 1321 l 444 1321 l 558 1101 l 333 1101 m 661 1101 l 531 1321 l 772 1321 l 886 1101 l 661 1101 z "},"Ä":{"ha":1222,"x_min":11,"x_max":1211,"o":"m 889 0 l 813 232 l 407 232 l 331 0 l 11 0 l 372 1028 l 850 1028 l 1211 0 l 889 0 m 487 475 l 733 475 l 610 849 l 487 475 m 404 1090 q 284 1123 323 1090 q 246 1215 246 1155 q 284 1308 246 1276 q 404 1340 323 1340 q 524 1308 485 1340 q 563 1215 563 1276 q 524 1123 563 1155 q 404 1090 485 1090 m 815 1090 q 695 1123 734 1090 q 657 1215 657 1155 q 695 1308 657 1276 q 815 1340 734 1340 q 935 1308 897 1340 q 974 1215 974 1276 q 935 1123 974 1155 q 815 1090 897 1090 z "},"Ạ":{"ha":1222,"x_min":11,"x_max":1211,"o":"m 889 0 l 813 232 l 407 232 l 331 0 l 11 0 l 372 1028 l 850 1028 l 1211 0 l 889 0 m 487 475 l 733 475 l 610 849 l 487 475 m 611 -322 q 470 -289 515 -322 q 425 -197 425 -256 q 470 -106 425 -139 q 611 -72 515 -72 q 752 -106 707 -72 q 797 -197 797 -139 q 752 -289 797 -256 q 611 -322 707 -322 z "},"À":{"ha":1222,"x_min":11,"x_max":1211,"o":"m 889 0 l 813 232 l 407 232 l 331 0 l 11 0 l 372 1028 l 850 1028 l 1211 0 l 889 0 m 487 475 l 733 475 l 610 849 l 487 475 m 464 1101 l 275 1321 l 614 1321 l 756 1101 l 464 1101 z "},"Ả":{"ha":1222,"x_min":11,"x_max":1211,"o":"m 889 0 l 813 232 l 407 232 l 331 0 l 11 0 l 372 1028 l 850 1028 l 1211 0 l 889 0 m 487 475 l 733 475 l 610 849 l 487 475 m 535 1101 q 558 1147 537 1130 q 617 1180 580 1163 q 652 1199 642 1192 q 663 1215 663 1206 q 642 1230 663 1226 q 582 1235 622 1235 q 439 1221 510 1235 l 439 1325 q 520 1336 474 1332 q 606 1340 566 1340 q 818 1238 818 1340 q 805 1195 818 1213 q 775 1165 792 1177 q 731 1139 758 1153 q 698 1119 709 1127 q 685 1101 686 1111 l 535 1101 z "},"Ȃ":{"ha":1222,"x_min":11,"x_max":1211,"o":"m 889 0 l 813 232 l 407 232 l 331 0 l 11 0 l 372 1028 l 850 1028 l 1211 0 l 889 0 m 487 475 l 733 475 l 610 849 l 487 475 m 274 1101 q 373 1260 290 1200 q 610 1321 456 1321 q 846 1260 763 1321 q 946 1101 929 1200 l 756 1101 q 709 1156 744 1136 q 610 1176 673 1176 q 511 1156 547 1176 q 464 1101 475 1136 l 274 1101 z "},"Ā":{"ha":1222,"x_min":11,"x_max":1211,"o":"m 889 0 l 813 232 l 407 232 l 331 0 l 11 0 l 372 1028 l 850 1028 l 1211 0 l 889 0 m 487 475 l 733 475 l 610 849 l 487 475 m 301 1125 l 301 1299 l 918 1299 l 918 1125 l 301 1125 z "},"Ą":{"ha":1222,"x_min":11,"x_max":1235,"o":"m 1143 -204 q 1235 -187 1183 -204 l 1235 -299 q 1093 -319 1167 -319 q 920 -277 978 -319 q 863 -162 863 -235 q 975 0 863 -60 l 889 0 l 813 232 l 407 232 l 331 0 l 11 0 l 372 1028 l 850 1028 l 1211 0 q 1080 -63 1119 -30 q 1040 -136 1040 -96 q 1065 -186 1040 -169 q 1143 -204 1090 -204 m 487 475 l 733 475 l 610 849 l 487 475 z "},"Å":{"ha":1222,"x_min":11,"x_max":1211,"o":"m 889 0 l 813 232 l 407 232 l 331 0 l 11 0 l 372 1028 l 850 1028 l 1211 0 l 889 0 m 487 475 l 733 475 l 610 849 l 487 475 m 610 1090 q 528 1110 565 1090 q 472 1165 492 1130 q 451 1243 451 1199 q 472 1322 451 1287 q 528 1376 492 1356 q 610 1396 565 1396 q 691 1376 655 1396 q 748 1322 727 1356 q 768 1243 768 1287 q 748 1165 768 1199 q 691 1110 727 1130 q 610 1090 655 1090 m 610 1186 q 649 1202 634 1186 q 664 1243 664 1217 q 649 1284 664 1269 q 610 1300 634 1300 q 570 1284 585 1300 q 556 1243 556 1269 q 570 1202 556 1217 q 610 1186 585 1186 z "},"Ǻ":{"ha":1222,"x_min":11,"x_max":1211,"o":"m 889 0 l 813 232 l 407 232 l 331 0 l 11 0 l 372 1028 l 850 1028 l 1211 0 l 889 0 m 487 475 l 733 475 l 610 849 l 487 475 m 751 1315 q 768 1243 768 1283 q 748 1165 768 1199 q 691 1110 727 1130 q 610 1090 655 1090 q 528 1110 565 1090 q 472 1165 492 1130 q 451 1243 451 1199 q 472 1322 451 1287 q 528 1376 492 1356 q 610 1396 565 1396 q 624 1395 619 1396 l 692 1483 l 897 1483 l 751 1315 m 610 1186 q 649 1202 634 1186 q 664 1243 664 1217 q 649 1284 664 1269 q 610 1300 634 1300 q 570 1284 585 1300 q 556 1243 556 1269 q 570 1202 556 1217 q 610 1186 585 1186 z "},"Ã":{"ha":1222,"x_min":11,"x_max":1211,"o":"m 889 0 l 813 232 l 407 232 l 331 0 l 11 0 l 372 1028 l 850 1028 l 1211 0 l 889 0 m 487 475 l 733 475 l 610 849 l 487 475 m 747 1101 q 678 1108 710 1101 q 598 1127 646 1114 q 526 1145 556 1139 q 464 1151 497 1151 q 379 1141 416 1151 q 301 1107 342 1131 l 301 1268 q 376 1308 336 1296 q 472 1321 417 1321 q 543 1314 510 1321 q 622 1294 576 1308 q 694 1276 665 1282 q 756 1269 723 1269 q 840 1280 803 1269 q 918 1314 877 1290 l 918 1153 q 843 1114 883 1126 q 747 1101 803 1101 z "},"Æ":{"ha":1654,"x_min":11,"x_max":1594,"o":"m 1085 243 l 1594 243 l 1594 0 l 775 0 l 755 232 l 406 232 l 331 0 l 11 0 l 372 1028 l 1588 1028 l 1588 785 l 1031 785 l 1044 646 l 1514 646 l 1514 403 l 1069 403 l 1085 243 m 486 475 l 734 475 l 707 785 l 588 785 l 486 475 z "},"Ǽ":{"ha":1654,"x_min":11,"x_max":1594,"o":"m 1085 243 l 1594 243 l 1594 0 l 775 0 l 755 232 l 406 232 l 331 0 l 11 0 l 372 1028 l 1588 1028 l 1588 785 l 1031 785 l 1044 646 l 1514 646 l 1514 403 l 1069 403 l 1085 243 m 486 475 l 734 475 l 707 785 l 588 785 l 486 475 m 710 1101 l 851 1321 l 1190 1321 l 1001 1101 l 710 1101 z "},"B":{"ha":1057,"x_min":90,"x_max":1019,"o":"m 838 530 q 969 453 919 512 q 1019 299 1019 395 q 965 130 1019 199 q 780 24 910 61 q 432 -14 650 -14 q 262 -7 362 -14 q 90 8 162 -1 l 90 994 q 286 1028 174 1015 q 492 1042 399 1042 q 873 966 753 1042 q 993 743 993 890 q 973 649 993 692 q 918 574 953 605 q 838 530 883 544 m 529 819 q 413 807 475 819 l 413 638 l 542 638 q 653 660 620 638 q 686 729 686 683 q 651 798 686 776 q 529 819 616 819 m 524 208 q 644 220 601 208 q 705 253 688 231 q 722 308 722 274 q 708 367 722 345 q 661 400 694 390 q 569 411 628 411 l 413 411 l 413 213 q 524 208 456 208 z "},"C":{"ha":1033,"x_min":58,"x_max":983,"o":"m 728 -14 q 227 119 396 -14 q 58 511 58 253 q 135 793 58 674 q 363 977 212 913 q 735 1042 515 1042 q 983 1019 868 1042 l 983 758 q 763 778 878 778 q 490 711 575 778 q 404 514 404 645 q 487 317 404 383 q 749 250 570 250 q 983 275 861 250 l 983 14 q 859 -7 925 1 q 728 -14 792 -14 z "},"Ć":{"ha":1033,"x_min":58,"x_max":983,"o":"m 728 -14 q 227 119 396 -14 q 58 511 58 253 q 135 793 58 674 q 363 977 212 913 q 735 1042 515 1042 q 983 1019 868 1042 l 983 758 q 763 778 878 778 q 490 711 575 778 q 404 514 404 645 q 487 317 404 383 q 749 250 570 250 q 983 275 861 250 l 983 14 q 859 -7 925 1 q 728 -14 792 -14 m 463 1101 l 604 1321 l 943 1321 l 754 1101 l 463 1101 z "},"Č":{"ha":1033,"x_min":58,"x_max":983,"o":"m 728 -14 q 227 119 396 -14 q 58 511 58 253 q 135 793 58 674 q 363 977 212 913 q 735 1042 515 1042 q 983 1019 868 1042 l 983 758 q 763 778 878 778 q 490 711 575 778 q 404 514 404 645 q 487 317 404 383 q 749 250 570 250 q 983 275 861 250 l 983 14 q 859 -7 925 1 q 728 -14 792 -14 m 722 1321 l 975 1321 l 744 1101 l 478 1101 l 247 1321 l 500 1321 l 611 1213 l 722 1321 z "},"Ç":{"ha":1033,"x_min":58,"x_max":983,"o":"m 763 778 q 490 711 575 778 q 404 514 404 645 q 487 317 404 383 q 749 250 570 250 q 983 275 861 250 l 983 14 q 859 -7 925 1 q 728 -14 792 -14 q 663 -12 706 -14 l 663 -50 q 766 -94 733 -60 q 800 -181 800 -128 q 744 -283 800 -246 q 579 -319 688 -319 q 421 -297 497 -319 l 421 -190 q 491 -206 453 -201 q 564 -211 529 -211 q 625 -202 605 -211 q 644 -171 644 -192 q 625 -138 644 -148 q 565 -128 606 -128 l 522 -128 l 522 1 q 175 168 292 40 q 58 511 58 297 q 135 793 58 674 q 363 977 212 913 q 735 1042 515 1042 q 983 1019 868 1042 l 983 758 q 763 778 878 778 z "},"Ḉ":{"ha":1033,"x_min":58,"x_max":983,"o":"m 943 1321 l 754 1101 l 463 1101 l 604 1321 l 943 1321 m 763 778 q 490 711 575 778 q 404 514 404 645 q 487 317 404 383 q 749 250 570 250 q 983 275 861 250 l 983 14 q 859 -7 925 1 q 728 -14 792 -14 q 663 -12 706 -14 l 663 -50 q 766 -94 733 -60 q 800 -181 800 -128 q 744 -283 800 -246 q 579 -319 688 -319 q 421 -297 497 -319 l 421 -190 q 491 -206 453 -201 q 564 -211 529 -211 q 625 -202 605 -211 q 644 -171 644 -192 q 625 -138 644 -148 q 565 -128 606 -128 l 522 -128 l 522 1 q 175 168 292 40 q 58 511 58 297 q 135 793 58 674 q 363 977 212 913 q 735 1042 515 1042 q 983 1019 868 1042 l 983 758 q 763 778 878 778 z "},"Ĉ":{"ha":1033,"x_min":58,"x_max":983,"o":"m 728 -14 q 227 119 396 -14 q 58 511 58 253 q 135 793 58 674 q 363 977 212 913 q 735 1042 515 1042 q 983 1019 868 1042 l 983 758 q 763 778 878 778 q 490 711 575 778 q 404 514 404 645 q 487 317 404 383 q 749 250 570 250 q 983 275 861 250 l 983 14 q 859 -7 925 1 q 728 -14 792 -14 m 975 1101 l 722 1101 l 611 1209 l 500 1101 l 247 1101 l 478 1321 l 744 1321 l 975 1101 z "},"Ċ":{"ha":1033,"x_min":58,"x_max":983,"o":"m 728 -14 q 227 119 396 -14 q 58 511 58 253 q 135 793 58 674 q 363 977 212 913 q 735 1042 515 1042 q 983 1019 868 1042 l 983 758 q 763 778 878 778 q 490 711 575 778 q 404 514 404 645 q 487 317 404 383 q 749 250 570 250 q 983 275 861 250 l 983 14 q 859 -7 925 1 q 728 -14 792 -14 m 611 1090 q 470 1124 515 1090 q 425 1215 425 1157 q 470 1307 425 1274 q 611 1340 515 1340 q 752 1307 707 1340 q 797 1215 797 1274 q 752 1124 797 1157 q 611 1090 707 1090 z "},"D":{"ha":1250,"x_min":90,"x_max":1192,"o":"m 439 -10 q 264 -5 359 -10 q 90 10 168 0 l 90 994 q 291 1026 174 1014 q 514 1038 408 1038 q 1022 909 851 1038 q 1192 514 1192 781 q 1110 212 1192 327 q 862 43 1028 97 q 439 -10 697 -10 m 529 247 q 716 275 644 247 q 822 362 788 303 q 856 517 856 421 q 776 718 856 654 q 529 782 697 782 q 475 779 506 782 q 421 772 444 776 l 421 250 q 529 247 454 247 z "},"Ǳ":{"ha":2239,"x_min":90,"x_max":2181,"o":"m 439 -10 q 264 -5 359 -10 q 90 10 168 0 l 90 994 q 291 1026 174 1014 q 514 1038 408 1038 q 1022 909 851 1038 q 1192 514 1192 781 q 1110 212 1192 327 q 862 43 1028 97 q 439 -10 697 -10 m 529 247 q 716 275 644 247 q 822 362 788 303 q 856 517 856 421 q 776 718 856 654 q 529 782 697 782 q 475 779 506 782 q 421 772 444 776 l 421 250 q 529 247 454 247 m 1695 256 l 2181 256 l 2181 0 l 1268 0 l 1268 176 l 1747 772 l 1275 772 l 1275 1028 l 2174 1028 l 2174 851 l 1695 256 z "},"Ǆ":{"ha":2239,"x_min":90,"x_max":2181,"o":"m 439 -10 q 264 -5 359 -10 q 90 10 168 0 l 90 994 q 291 1026 174 1014 q 514 1038 408 1038 q 1022 909 851 1038 q 1192 514 1192 781 q 1110 212 1192 327 q 862 43 1028 97 q 439 -10 697 -10 m 529 247 q 716 275 644 247 q 822 362 788 303 q 856 517 856 421 q 776 718 856 654 q 529 782 697 782 q 475 779 506 782 q 421 772 444 776 l 421 250 q 529 247 454 247 m 1695 256 l 2181 256 l 2181 0 l 1268 0 l 1268 176 l 1747 772 l 1275 772 l 1275 1028 l 2174 1028 l 2174 851 l 1695 256 m 1836 1321 l 2089 1321 l 1858 1101 l 1592 1101 l 1361 1321 l 1614 1321 l 1725 1213 l 1836 1321 z "},"Ð":{"ha":1250,"x_min":6,"x_max":1192,"o":"m 514 1038 q 1022 909 851 1038 q 1192 514 1192 781 q 1110 212 1192 327 q 862 43 1028 97 q 439 -10 697 -10 q 264 -5 359 -10 q 90 10 168 0 l 90 432 l 6 432 l 6 626 l 90 626 l 90 994 q 291 1026 174 1014 q 514 1038 408 1038 m 529 247 q 716 275 644 247 q 822 362 788 303 q 856 517 856 421 q 776 718 856 654 q 529 782 697 782 q 475 779 506 782 q 421 772 444 776 l 421 626 l 611 626 l 611 432 l 421 432 l 421 250 q 529 247 454 247 z "},"Ď":{"ha":1250,"x_min":90,"x_max":1192,"o":"m 439 -10 q 264 -5 359 -10 q 90 10 168 0 l 90 994 q 291 1026 174 1014 q 514 1038 408 1038 q 1022 909 851 1038 q 1192 514 1192 781 q 1110 212 1192 327 q 862 43 1028 97 q 439 -10 697 -10 m 529 247 q 716 275 644 247 q 822 362 788 303 q 856 517 856 421 q 776 718 856 654 q 529 782 697 782 q 475 779 506 782 q 421 772 444 776 l 421 250 q 529 247 454 247 m 649 1321 l 901 1321 l 671 1101 l 404 1101 l 174 1321 l 426 1321 l 538 1213 l 649 1321 z "},"Đ":{"ha":1250,"x_min":6,"x_max":1192,"o":"m 514 1038 q 1022 909 851 1038 q 1192 514 1192 781 q 1110 212 1192 327 q 862 43 1028 97 q 439 -10 697 -10 q 264 -5 359 -10 q 90 10 168 0 l 90 432 l 6 432 l 6 626 l 90 626 l 90 994 q 291 1026 174 1014 q 514 1038 408 1038 m 529 247 q 716 275 644 247 q 822 362 788 303 q 856 517 856 421 q 776 718 856 654 q 529 782 697 782 q 475 779 506 782 q 421 772 444 776 l 421 626 l 611 626 l 611 432 l 421 432 l 421 250 q 529 247 454 247 z "},"Ḍ":{"ha":1250,"x_min":90,"x_max":1192,"o":"m 439 -10 q 264 -5 359 -10 q 90 10 168 0 l 90 994 q 291 1026 174 1014 q 514 1038 408 1038 q 1022 909 851 1038 q 1192 514 1192 781 q 1110 212 1192 327 q 862 43 1028 97 q 439 -10 697 -10 m 529 247 q 716 275 644 247 q 822 362 788 303 q 856 517 856 421 q 776 718 856 654 q 529 782 697 782 q 475 779 506 782 q 421 772 444 776 l 421 250 q 529 247 454 247 m 551 -322 q 410 -289 456 -322 q 365 -197 365 -256 q 410 -106 365 -139 q 551 -72 456 -72 q 692 -106 647 -72 q 738 -197 738 -139 q 692 -289 738 -256 q 551 -322 647 -322 z "},"Ḏ":{"ha":1250,"x_min":90,"x_max":1192,"o":"m 439 -10 q 264 -5 359 -10 q 90 10 168 0 l 90 994 q 291 1026 174 1014 q 514 1038 408 1038 q 1022 909 851 1038 q 1192 514 1192 781 q 1110 212 1192 327 q 862 43 1028 97 q 439 -10 697 -10 m 529 247 q 716 275 644 247 q 822 362 788 303 q 856 517 856 421 q 776 718 856 654 q 529 782 697 782 q 475 779 506 782 q 421 772 444 776 l 421 250 q 529 247 454 247 m 243 -276 l 243 -103 l 860 -103 l 860 -276 l 243 -276 z "},"ǲ":{"ha":2135,"x_min":90,"x_max":2088,"o":"m 439 -10 q 264 -5 359 -10 q 90 10 168 0 l 90 994 q 291 1026 174 1014 q 514 1038 408 1038 q 1022 909 851 1038 q 1192 514 1192 781 q 1110 212 1192 327 q 862 43 1028 97 q 439 -10 697 -10 m 529 247 q 716 275 644 247 q 822 362 788 303 q 856 517 856 421 q 776 718 856 654 q 529 782 697 782 q 475 779 506 782 q 421 772 444 776 l 421 250 q 529 247 454 247 m 1747 250 l 2088 250 l 2088 0 l 1314 0 l 1314 208 l 1647 514 l 1321 514 l 1321 764 l 2081 764 l 2081 556 l 1747 250 z "},"ǅ":{"ha":2135,"x_min":90,"x_max":2088,"o":"m 439 -10 q 264 -5 359 -10 q 90 10 168 0 l 90 994 q 291 1026 174 1014 q 514 1038 408 1038 q 1022 909 851 1038 q 1192 514 1192 781 q 1110 212 1192 327 q 862 43 1028 97 q 439 -10 697 -10 m 529 247 q 716 275 644 247 q 822 362 788 303 q 856 517 856 421 q 776 718 856 654 q 529 782 697 782 q 475 779 506 782 q 421 772 444 776 l 421 250 q 529 247 454 247 m 1747 250 l 2088 250 l 2088 0 l 1314 0 l 1314 208 l 1647 514 l 1321 514 l 1321 764 l 2081 764 l 2081 556 l 1747 250 m 1813 1099 l 2065 1099 l 1835 879 l 1568 879 l 1338 1099 l 1590 1099 l 1701 991 l 1813 1099 z "},"E":{"ha":1040,"x_min":90,"x_max":981,"o":"m 417 243 l 981 243 l 981 0 l 90 0 l 90 1028 l 974 1028 l 974 785 l 417 785 l 417 646 l 900 646 l 900 403 l 417 403 l 417 243 z "},"É":{"ha":1040,"x_min":90,"x_max":981,"o":"m 417 243 l 981 243 l 981 0 l 90 0 l 90 1028 l 974 1028 l 974 785 l 417 785 l 417 646 l 900 646 l 900 403 l 417 403 l 417 243 m 399 1101 l 540 1321 l 879 1321 l 690 1101 l 399 1101 z "},"Ĕ":{"ha":1040,"x_min":90,"x_max":981,"o":"m 417 243 l 981 243 l 981 0 l 90 0 l 90 1028 l 974 1028 l 974 785 l 417 785 l 417 646 l 900 646 l 900 403 l 417 403 l 417 243 m 547 1101 q 311 1162 394 1101 q 211 1321 228 1222 l 401 1321 q 448 1266 413 1286 q 547 1246 484 1246 q 646 1266 610 1246 q 693 1321 682 1286 l 883 1321 q 784 1162 867 1222 q 547 1101 701 1101 z "},"Ě":{"ha":1040,"x_min":90,"x_max":981,"o":"m 417 243 l 981 243 l 981 0 l 90 0 l 90 1028 l 974 1028 l 974 785 l 417 785 l 417 646 l 900 646 l 900 403 l 417 403 l 417 243 m 658 1321 l 911 1321 l 681 1101 l 414 1101 l 183 1321 l 436 1321 l 547 1213 l 658 1321 z "},"Ḝ":{"ha":1040,"x_min":90,"x_max":981,"o":"m 547 1101 q 311 1162 394 1101 q 211 1321 228 1222 l 401 1321 q 448 1266 413 1286 q 547 1246 484 1246 q 646 1266 610 1246 q 693 1321 682 1286 l 883 1321 q 784 1162 867 1222 q 547 1101 701 1101 m 599 0 l 599 -50 q 702 -94 669 -60 q 736 -181 736 -128 q 680 -283 736 -246 q 515 -319 624 -319 q 357 -297 433 -319 l 357 -190 q 427 -206 390 -201 q 500 -211 465 -211 q 561 -202 541 -211 q 581 -171 581 -192 q 561 -138 581 -148 q 501 -128 542 -128 l 458 -128 l 458 0 l 90 0 l 90 1028 l 974 1028 l 974 785 l 417 785 l 417 646 l 900 646 l 900 403 l 417 403 l 417 243 l 981 243 l 981 0 l 599 0 z "},"Ê":{"ha":1040,"x_min":90,"x_max":981,"o":"m 417 243 l 981 243 l 981 0 l 90 0 l 90 1028 l 974 1028 l 974 785 l 417 785 l 417 646 l 900 646 l 900 403 l 417 403 l 417 243 m 911 1101 l 658 1101 l 547 1209 l 436 1101 l 183 1101 l 414 1321 l 681 1321 l 911 1101 z "},"Ế":{"ha":1040,"x_min":90,"x_max":1040,"o":"m 417 243 l 981 243 l 981 0 l 90 0 l 90 1028 l 974 1028 l 974 785 l 417 785 l 417 646 l 900 646 l 900 403 l 417 403 l 417 243 m 821 1433 l 1040 1433 l 928 1269 l 747 1269 l 821 1433 m 414 1290 l 681 1290 l 911 1101 l 658 1101 l 547 1194 l 436 1101 l 183 1101 l 414 1290 z "},"Ệ":{"ha":1040,"x_min":90,"x_max":981,"o":"m 417 243 l 981 243 l 981 0 l 90 0 l 90 1028 l 974 1028 l 974 785 l 417 785 l 417 646 l 900 646 l 900 403 l 417 403 l 417 243 m 547 -322 q 406 -289 451 -322 q 361 -197 361 -256 q 406 -106 361 -139 q 547 -72 451 -72 q 688 -106 643 -72 q 733 -197 733 -139 q 688 -289 733 -256 q 547 -322 643 -322 m 911 1101 l 658 1101 l 547 1209 l 436 1101 l 183 1101 l 414 1321 l 681 1321 l 911 1101 z "},"Ề":{"ha":1040,"x_min":90,"x_max":981,"o":"m 417 243 l 981 243 l 981 0 l 90 0 l 90 1028 l 974 1028 l 974 785 l 417 785 l 417 646 l 900 646 l 900 403 l 417 403 l 417 243 m 956 1269 l 775 1269 l 663 1433 l 882 1433 l 956 1269 m 414 1290 l 681 1290 l 911 1101 l 658 1101 l 547 1194 l 436 1101 l 183 1101 l 414 1290 z "},"Ể":{"ha":1040,"x_min":90,"x_max":1029,"o":"m 417 243 l 981 243 l 981 0 l 90 0 l 90 1028 l 974 1028 l 974 785 l 417 785 l 417 646 l 900 646 l 900 403 l 417 403 l 417 243 m 817 1475 q 1029 1386 1029 1475 q 1016 1350 1029 1365 q 986 1325 1003 1335 q 942 1301 969 1315 q 908 1284 919 1290 q 896 1269 897 1277 l 746 1269 q 769 1308 748 1294 q 827 1337 790 1322 q 863 1353 852 1347 q 874 1368 874 1360 q 793 1385 874 1385 q 650 1372 723 1385 l 650 1461 q 732 1471 685 1467 q 817 1475 778 1475 m 414 1290 l 681 1290 l 911 1101 l 658 1101 l 547 1194 l 436 1101 l 183 1101 l 414 1290 z "},"Ễ":{"ha":1040,"x_min":90,"x_max":981,"o":"m 417 243 l 981 243 l 981 0 l 90 0 l 90 1028 l 974 1028 l 974 785 l 417 785 l 417 646 l 900 646 l 900 403 l 417 403 l 417 243 m 710 1435 q 803 1445 759 1435 q 911 1481 848 1455 l 911 1363 q 812 1328 858 1336 q 707 1319 767 1319 q 625 1325 663 1319 q 528 1340 587 1330 q 447 1354 477 1350 q 385 1358 417 1358 q 291 1348 335 1358 q 183 1313 247 1338 l 183 1431 q 283 1466 237 1457 q 388 1475 329 1475 q 472 1469 432 1475 q 567 1453 512 1464 q 645 1439 614 1444 q 710 1435 677 1435 m 414 1290 l 681 1290 l 911 1101 l 658 1101 l 547 1194 l 436 1101 l 183 1101 l 414 1290 z "},"Ȅ":{"ha":1040,"x_min":90,"x_max":981,"o":"m 417 243 l 981 243 l 981 0 l 90 0 l 90 1028 l 974 1028 l 974 785 l 417 785 l 417 646 l 900 646 l 900 403 l 417 403 l 417 243 m 271 1101 l 140 1321 l 382 1321 l 496 1101 l 271 1101 m 599 1101 l 468 1321 l 710 1321 l 824 1101 l 599 1101 z "},"Ë":{"ha":1040,"x_min":90,"x_max":981,"o":"m 417 243 l 981 243 l 981 0 l 90 0 l 90 1028 l 974 1028 l 974 785 l 417 785 l 417 646 l 900 646 l 900 403 l 417 403 l 417 243 m 342 1090 q 222 1123 260 1090 q 183 1215 183 1155 q 222 1308 183 1276 q 342 1340 260 1340 q 461 1308 423 1340 q 500 1215 500 1276 q 461 1123 500 1155 q 342 1090 423 1090 m 753 1090 q 633 1123 672 1090 q 594 1215 594 1155 q 633 1308 594 1276 q 753 1340 672 1340 q 873 1308 834 1340 q 911 1215 911 1276 q 873 1123 911 1155 q 753 1090 834 1090 z "},"Ė":{"ha":1040,"x_min":90,"x_max":981,"o":"m 417 243 l 981 243 l 981 0 l 90 0 l 90 1028 l 974 1028 l 974 785 l 417 785 l 417 646 l 900 646 l 900 403 l 417 403 l 417 243 m 547 1090 q 406 1124 451 1090 q 361 1215 361 1157 q 406 1307 361 1274 q 547 1340 451 1340 q 688 1307 643 1340 q 733 1215 733 1274 q 688 1124 733 1157 q 547 1090 643 1090 z "},"Ẹ":{"ha":1040,"x_min":90,"x_max":981,"o":"m 417 243 l 981 243 l 981 0 l 90 0 l 90 1028 l 974 1028 l 974 785 l 417 785 l 417 646 l 900 646 l 900 403 l 417 403 l 417 243 m 547 -322 q 406 -289 451 -322 q 361 -197 361 -256 q 406 -106 361 -139 q 547 -72 451 -72 q 688 -106 643 -72 q 733 -197 733 -139 q 688 -289 733 -256 q 547 -322 643 -322 z "},"È":{"ha":1040,"x_min":90,"x_max":981,"o":"m 417 243 l 981 243 l 981 0 l 90 0 l 90 1028 l 974 1028 l 974 785 l 417 785 l 417 646 l 900 646 l 900 403 l 417 403 l 417 243 m 401 1101 l 213 1321 l 551 1321 l 693 1101 l 401 1101 z "},"Ẻ":{"ha":1040,"x_min":90,"x_max":981,"o":"m 417 243 l 981 243 l 981 0 l 90 0 l 90 1028 l 974 1028 l 974 785 l 417 785 l 417 646 l 900 646 l 900 403 l 417 403 l 417 243 m 472 1101 q 496 1147 474 1130 q 554 1180 517 1163 q 590 1199 579 1192 q 600 1215 600 1206 q 580 1230 600 1226 q 519 1235 560 1235 q 376 1221 448 1235 l 376 1325 q 457 1336 411 1332 q 543 1340 503 1340 q 756 1238 756 1340 q 743 1195 756 1213 q 713 1165 730 1177 q 669 1139 696 1153 q 635 1119 647 1127 q 622 1101 624 1111 l 472 1101 z "},"Ȇ":{"ha":1040,"x_min":90,"x_max":981,"o":"m 417 243 l 981 243 l 981 0 l 90 0 l 90 1028 l 974 1028 l 974 785 l 417 785 l 417 646 l 900 646 l 900 403 l 417 403 l 417 243 m 211 1101 q 311 1260 228 1200 q 547 1321 394 1321 q 784 1260 701 1321 q 883 1101 867 1200 l 693 1101 q 646 1156 682 1136 q 547 1176 610 1176 q 448 1156 484 1176 q 401 1101 413 1136 l 211 1101 z "},"Ē":{"ha":1040,"x_min":90,"x_max":981,"o":"m 417 243 l 981 243 l 981 0 l 90 0 l 90 1028 l 974 1028 l 974 785 l 417 785 l 417 646 l 900 646 l 900 403 l 417 403 l 417 243 m 239 1125 l 239 1299 l 856 1299 l 856 1125 l 239 1125 z "},"Ḗ":{"ha":1040,"x_min":90,"x_max":981,"o":"m 417 243 l 981 243 l 981 0 l 90 0 l 90 1028 l 974 1028 l 974 785 l 417 785 l 417 646 l 900 646 l 900 403 l 417 403 l 417 243 m 381 1379 l 522 1540 l 903 1540 l 714 1379 l 381 1379 m 239 1125 l 239 1299 l 856 1299 l 856 1125 l 239 1125 z "},"Ḕ":{"ha":1040,"x_min":90,"x_max":981,"o":"m 417 243 l 981 243 l 981 0 l 90 0 l 90 1028 l 974 1028 l 974 785 l 417 785 l 417 646 l 900 646 l 900 403 l 417 403 l 417 243 m 381 1379 l 192 1540 l 572 1540 l 714 1379 l 381 1379 m 239 1125 l 239 1299 l 856 1299 l 856 1125 l 239 1125 z "},"Ę":{"ha":1040,"x_min":90,"x_max":981,"o":"m 911 0 q 780 -63 819 -30 q 740 -136 740 -96 q 765 -186 740 -169 q 843 -204 790 -204 q 935 -187 883 -204 l 935 -299 q 793 -319 867 -319 q 620 -277 678 -319 q 563 -162 563 -235 q 675 0 563 -60 l 90 0 l 90 1028 l 974 1028 l 974 785 l 417 785 l 417 646 l 900 646 l 900 403 l 417 403 l 417 243 l 981 243 l 981 0 l 911 0 z "},"Ẽ":{"ha":1040,"x_min":90,"x_max":981,"o":"m 417 243 l 981 243 l 981 0 l 90 0 l 90 1028 l 974 1028 l 974 785 l 417 785 l 417 646 l 900 646 l 900 403 l 417 403 l 417 243 m 685 1101 q 615 1108 647 1101 q 535 1127 583 1114 q 464 1145 494 1139 q 401 1151 434 1151 q 317 1141 353 1151 q 239 1107 280 1131 l 239 1268 q 314 1308 274 1296 q 410 1321 354 1321 q 481 1314 448 1321 q 559 1294 514 1308 q 632 1276 603 1282 q 693 1269 660 1269 q 778 1280 741 1269 q 856 1314 815 1290 l 856 1153 q 781 1114 821 1126 q 685 1101 741 1101 z "},"F":{"ha":1024,"x_min":90,"x_max":974,"o":"m 974 778 l 421 778 l 421 615 l 896 615 l 896 365 l 421 365 l 421 0 l 90 0 l 90 1028 l 974 1028 l 974 778 z "},"G":{"ha":1165,"x_min":58,"x_max":1069,"o":"m 1069 500 l 1069 14 q 761 -14 901 -14 q 232 118 406 -14 q 58 508 58 250 q 138 793 58 674 q 377 977 217 913 q 778 1042 538 1042 q 905 1036 838 1042 q 1029 1019 971 1031 l 1029 758 q 803 778 924 778 q 568 746 657 777 q 441 655 480 715 q 401 503 401 595 q 484 314 401 380 q 742 247 567 247 l 763 247 l 763 500 l 1069 500 z "},"Ǵ":{"ha":1165,"x_min":58,"x_max":1069,"o":"m 1069 500 l 1069 14 q 761 -14 901 -14 q 232 118 406 -14 q 58 508 58 250 q 138 793 58 674 q 377 977 217 913 q 778 1042 538 1042 q 905 1036 838 1042 q 1029 1019 971 1031 l 1029 758 q 803 778 924 778 q 568 746 657 777 q 441 655 480 715 q 401 503 401 595 q 484 314 401 380 q 742 247 567 247 l 763 247 l 763 500 l 1069 500 m 504 1101 l 646 1321 l 985 1321 l 796 1101 l 504 1101 z "},"Ğ":{"ha":1165,"x_min":58,"x_max":1069,"o":"m 1069 500 l 1069 14 q 761 -14 901 -14 q 232 118 406 -14 q 58 508 58 250 q 138 793 58 674 q 377 977 217 913 q 778 1042 538 1042 q 905 1036 838 1042 q 1029 1019 971 1031 l 1029 758 q 803 778 924 778 q 568 746 657 777 q 441 655 480 715 q 401 503 401 595 q 484 314 401 380 q 742 247 567 247 l 763 247 l 763 500 l 1069 500 m 653 1101 q 416 1162 499 1101 q 317 1321 333 1222 l 507 1321 q 554 1266 518 1286 q 653 1246 590 1246 q 752 1266 716 1246 q 799 1321 788 1286 l 989 1321 q 889 1162 972 1222 q 653 1101 806 1101 z "},"Ǧ":{"ha":1165,"x_min":58,"x_max":1069,"o":"m 1069 500 l 1069 14 q 761 -14 901 -14 q 232 118 406 -14 q 58 508 58 250 q 138 793 58 674 q 377 977 217 913 q 778 1042 538 1042 q 905 1036 838 1042 q 1029 1019 971 1031 l 1029 758 q 803 778 924 778 q 568 746 657 777 q 441 655 480 715 q 401 503 401 595 q 484 314 401 380 q 742 247 567 247 l 763 247 l 763 500 l 1069 500 m 764 1321 l 1017 1321 l 786 1101 l 519 1101 l 289 1321 l 542 1321 l 653 1213 l 764 1321 z "},"Ĝ":{"ha":1165,"x_min":58,"x_max":1069,"o":"m 1069 500 l 1069 14 q 761 -14 901 -14 q 232 118 406 -14 q 58 508 58 250 q 138 793 58 674 q 377 977 217 913 q 778 1042 538 1042 q 905 1036 838 1042 q 1029 1019 971 1031 l 1029 758 q 803 778 924 778 q 568 746 657 777 q 441 655 480 715 q 401 503 401 595 q 484 314 401 380 q 742 247 567 247 l 763 247 l 763 500 l 1069 500 m 1017 1101 l 764 1101 l 653 1209 l 542 1101 l 289 1101 l 519 1321 l 786 1321 l 1017 1101 z "},"Ģ":{"ha":1165,"x_min":58,"x_max":1069,"o":"m 1069 500 l 1069 14 q 761 -14 901 -14 q 232 118 406 -14 q 58 508 58 250 q 138 793 58 674 q 377 977 217 913 q 778 1042 538 1042 q 905 1036 838 1042 q 1029 1019 971 1031 l 1029 758 q 803 778 924 778 q 568 746 657 777 q 441 655 480 715 q 401 503 401 595 q 484 314 401 380 q 742 247 567 247 l 763 247 l 763 500 l 1069 500 m 653 -72 q 825 -196 825 -72 q 807 -284 825 -239 q 758 -361 788 -330 l 564 -361 q 608 -258 598 -303 q 510 -230 540 -253 q 481 -167 481 -206 q 522 -96 481 -120 q 653 -72 564 -72 z "},"Ġ":{"ha":1165,"x_min":58,"x_max":1069,"o":"m 1069 500 l 1069 14 q 761 -14 901 -14 q 232 118 406 -14 q 58 508 58 250 q 138 793 58 674 q 377 977 217 913 q 778 1042 538 1042 q 905 1036 838 1042 q 1029 1019 971 1031 l 1029 758 q 803 778 924 778 q 568 746 657 777 q 441 655 480 715 q 401 503 401 595 q 484 314 401 380 q 742 247 567 247 l 763 247 l 763 500 l 1069 500 m 653 1090 q 512 1124 557 1090 q 467 1215 467 1157 q 512 1307 467 1274 q 653 1340 557 1340 q 794 1307 749 1340 q 839 1215 839 1274 q 794 1124 839 1157 q 653 1090 749 1090 z "},"Ḡ":{"ha":1165,"x_min":58,"x_max":1069,"o":"m 1069 500 l 1069 14 q 761 -14 901 -14 q 232 118 406 -14 q 58 508 58 250 q 138 793 58 674 q 377 977 217 913 q 778 1042 538 1042 q 905 1036 838 1042 q 1029 1019 971 1031 l 1029 758 q 803 778 924 778 q 568 746 657 777 q 441 655 480 715 q 401 503 401 595 q 484 314 401 380 q 742 247 567 247 l 763 247 l 763 500 l 1069 500 m 344 1125 l 344 1299 l 961 1299 l 961 1125 l 344 1125 z "},"H":{"ha":1246,"x_min":90,"x_max":1156,"o":"m 90 0 l 90 1028 l 421 1028 l 421 664 l 825 664 l 825 1028 l 1156 1028 l 1156 0 l 825 0 l 825 385 l 421 385 l 421 0 l 90 0 z "},"Ħ":{"ha":1246,"x_min":6,"x_max":1240,"o":"m 1240 946 l 1240 751 l 1156 751 l 1156 0 l 825 0 l 825 385 l 421 385 l 421 0 l 90 0 l 90 751 l 6 751 l 6 946 l 90 946 l 90 1028 l 421 1028 l 421 946 l 825 946 l 825 1028 l 1156 1028 l 1156 946 l 1240 946 m 825 664 l 825 751 l 421 751 l 421 664 l 825 664 z "},"Ḫ":{"ha":1246,"x_min":90,"x_max":1156,"o":"m 90 0 l 90 1028 l 421 1028 l 421 664 l 825 664 l 825 1028 l 1156 1028 l 1156 0 l 825 0 l 825 385 l 421 385 l 421 0 l 90 0 m 624 -314 q 387 -253 470 -314 q 288 -94 304 -193 l 478 -94 q 525 -149 489 -129 q 624 -169 560 -169 q 723 -149 687 -169 q 769 -94 758 -129 l 960 -94 q 860 -253 943 -193 q 624 -314 777 -314 z "},"Ĥ":{"ha":1246,"x_min":90,"x_max":1156,"o":"m 90 0 l 90 1028 l 421 1028 l 421 664 l 825 664 l 825 1028 l 1156 1028 l 1156 0 l 825 0 l 825 385 l 421 385 l 421 0 l 90 0 m 988 1101 l 735 1101 l 624 1209 l 513 1101 l 260 1101 l 490 1321 l 757 1321 l 988 1101 z "},"Ḥ":{"ha":1246,"x_min":90,"x_max":1156,"o":"m 90 0 l 90 1028 l 421 1028 l 421 664 l 825 664 l 825 1028 l 1156 1028 l 1156 0 l 825 0 l 825 385 l 421 385 l 421 0 l 90 0 m 624 -322 q 483 -289 528 -322 q 438 -197 438 -256 q 483 -106 438 -139 q 624 -72 528 -72 q 765 -106 719 -72 q 810 -197 810 -139 q 765 -289 810 -256 q 624 -322 719 -322 z "},"I":{"ha":511,"x_min":90,"x_max":421,"o":"m 90 0 l 90 1028 l 421 1028 l 421 0 l 90 0 z "},"Í":{"ha":511,"x_min":90,"x_max":588,"o":"m 90 0 l 90 1028 l 421 1028 l 421 0 l 90 0 m 107 1101 l 249 1321 l 588 1321 l 399 1101 l 107 1101 z "},"Ĭ":{"ha":511,"x_min":-81,"x_max":592,"o":"m 90 0 l 90 1028 l 421 1028 l 421 0 l 90 0 m 256 1101 q 19 1162 102 1101 q -81 1321 -64 1222 l 110 1321 q 157 1266 121 1286 q 256 1246 192 1246 q 355 1266 319 1246 q 401 1321 390 1286 l 592 1321 q 492 1162 575 1222 q 256 1101 409 1101 z "},"Î":{"ha":511,"x_min":-108,"x_max":619,"o":"m 90 0 l 90 1028 l 421 1028 l 421 0 l 90 0 m 619 1101 l 367 1101 l 256 1209 l 144 1101 l -108 1101 l 122 1321 l 389 1321 l 619 1101 z "},"Ȉ":{"ha":511,"x_min":-151,"x_max":532,"o":"m 90 0 l 90 1028 l 421 1028 l 421 0 l 90 0 m -21 1101 l -151 1321 l 90 1321 l 204 1101 l -21 1101 m 307 1101 l 176 1321 l 418 1321 l 532 1101 l 307 1101 z "},"Ï":{"ha":511,"x_min":-108,"x_max":619,"o":"m 90 0 l 90 1028 l 421 1028 l 421 0 l 90 0 m 50 1090 q -70 1123 -31 1090 q -108 1215 -108 1155 q -70 1308 -108 1276 q 50 1340 -31 1340 q 170 1308 131 1340 q 208 1215 208 1276 q 170 1123 208 1155 q 50 1090 131 1090 m 461 1090 q 341 1123 380 1090 q 303 1215 303 1155 q 341 1308 303 1276 q 461 1340 380 1340 q 581 1308 542 1340 q 619 1215 619 1276 q 581 1123 619 1155 q 461 1090 542 1090 z "},"Ḯ":{"ha":511,"x_min":-108,"x_max":619,"o":"m 90 0 l 90 1028 l 421 1028 l 421 0 l 90 0 m 89 1379 l 231 1540 l 611 1540 l 422 1379 l 89 1379 m 50 1090 q -70 1123 -31 1090 q -108 1215 -108 1155 q -70 1308 -108 1276 q 50 1340 -31 1340 q 170 1308 131 1340 q 208 1215 208 1276 q 170 1123 208 1155 q 50 1090 131 1090 m 461 1090 q 341 1123 380 1090 q 303 1215 303 1155 q 341 1308 303 1276 q 461 1340 380 1340 q 581 1308 542 1340 q 619 1215 619 1276 q 581 1123 619 1155 q 461 1090 542 1090 z "},"İ":{"ha":511,"x_min":69,"x_max":442,"o":"m 90 0 l 90 1028 l 421 1028 l 421 0 l 90 0 m 256 1090 q 115 1124 160 1090 q 69 1215 69 1157 q 115 1307 69 1274 q 256 1340 160 1340 q 397 1307 351 1340 q 442 1215 442 1274 q 397 1124 442 1157 q 256 1090 351 1090 z "},"Ị":{"ha":511,"x_min":68,"x_max":440,"o":"m 90 0 l 90 1028 l 421 1028 l 421 0 l 90 0 m 254 -322 q 113 -289 158 -322 q 68 -197 68 -256 q 113 -106 68 -139 q 254 -72 158 -72 q 395 -106 350 -72 q 440 -197 440 -139 q 395 -289 440 -256 q 254 -322 350 -322 z "},"Ì":{"ha":511,"x_min":-79,"x_max":421,"o":"m 90 0 l 90 1028 l 421 1028 l 421 0 l 90 0 m 110 1101 l -79 1321 l 260 1321 l 401 1101 l 110 1101 z "},"Ỉ":{"ha":511,"x_min":85,"x_max":464,"o":"m 90 0 l 90 1028 l 421 1028 l 421 0 l 90 0 m 181 1101 q 204 1147 183 1130 q 263 1180 226 1163 q 298 1199 288 1192 q 308 1215 308 1206 q 288 1230 308 1226 q 228 1235 268 1235 q 85 1221 156 1235 l 85 1325 q 166 1336 119 1332 q 251 1340 212 1340 q 464 1238 464 1340 q 451 1195 464 1213 q 421 1165 438 1177 q 377 1139 404 1153 q 343 1119 355 1127 q 331 1101 332 1111 l 181 1101 z "},"Ȋ":{"ha":511,"x_min":-81,"x_max":592,"o":"m 90 0 l 90 1028 l 421 1028 l 421 0 l 90 0 m -81 1101 q 19 1260 -64 1200 q 256 1321 102 1321 q 492 1260 409 1321 q 592 1101 575 1200 l 401 1101 q 355 1156 390 1136 q 256 1176 319 1176 q 157 1156 192 1176 q 110 1101 121 1136 l -81 1101 z "},"Ī":{"ha":511,"x_min":-53,"x_max":564,"o":"m 90 0 l 90 1028 l 421 1028 l 421 0 l 90 0 m -53 1125 l -53 1299 l 564 1299 l 564 1125 l -53 1125 z "},"Į":{"ha":511,"x_min":72,"x_max":444,"o":"m 353 -204 q 444 -187 392 -204 l 444 -299 q 303 -319 377 -319 q 130 -277 188 -319 q 72 -162 72 -235 q 185 0 72 -60 l 90 0 l 90 1028 l 421 1028 l 421 0 q 289 -63 328 -30 q 250 -136 250 -96 q 275 -186 250 -169 q 353 -204 300 -204 z "},"Ĩ":{"ha":511,"x_min":-53,"x_max":564,"o":"m 90 0 l 90 1028 l 421 1028 l 421 0 l 90 0 m 393 1101 q 324 1108 356 1101 q 244 1127 292 1114 q 172 1145 202 1139 q 110 1151 142 1151 q 25 1141 62 1151 q -53 1107 -12 1131 l -53 1268 q 22 1308 -18 1296 q 118 1321 63 1321 q 189 1314 156 1321 q 267 1294 222 1308 q 340 1276 311 1282 q 401 1269 369 1269 q 486 1280 449 1269 q 564 1314 523 1290 l 564 1153 q 489 1114 529 1126 q 393 1101 449 1101 z "},"J":{"ha":511,"x_min":-8,"x_max":421,"o":"m -8 -112 q 70 28 48 -44 q 93 210 93 101 l 93 1028 l 421 1028 l 421 221 q 369 -27 421 85 q 194 -249 317 -139 l -8 -112 z "},"Ĵ":{"ha":511,"x_min":-107,"x_max":621,"o":"m -8 -112 q 70 28 48 -44 q 93 210 93 101 l 93 1028 l 421 1028 l 421 221 q 369 -27 421 85 q 194 -249 317 -139 l -8 -112 m 621 1101 l 368 1101 l 257 1209 l 146 1101 l -107 1101 l 124 1321 l 390 1321 l 621 1101 z "},"K":{"ha":1074,"x_min":90,"x_max":1110,"o":"m 751 0 l 486 385 l 421 385 l 421 0 l 90 0 l 90 1028 l 421 1028 l 421 664 l 485 664 l 729 1028 l 1075 1028 l 742 533 l 1110 0 l 751 0 z "},"Ķ":{"ha":1074,"x_min":90,"x_max":1110,"o":"m 751 0 l 486 385 l 421 385 l 421 0 l 90 0 l 90 1028 l 421 1028 l 421 664 l 485 664 l 729 1028 l 1075 1028 l 742 533 l 1110 0 l 751 0 m 567 -72 q 739 -196 739 -72 q 720 -284 739 -239 q 672 -361 702 -330 l 478 -361 q 522 -258 512 -303 q 424 -230 454 -253 q 394 -167 394 -206 q 436 -96 394 -120 q 567 -72 478 -72 z "},"L":{"ha":946,"x_min":90,"x_max":938,"o":"m 90 0 l 90 1028 l 421 1028 l 421 256 l 938 256 l 938 0 l 90 0 z "},"Ǉ":{"ha":1457,"x_min":90,"x_max":1367,"o":"m 90 0 l 90 1028 l 421 1028 l 421 256 l 938 256 l 938 0 l 90 0 m 938 -112 q 1016 28 994 -44 q 1039 210 1039 101 l 1039 1028 l 1367 1028 l 1367 221 q 1315 -27 1367 85 q 1140 -249 1263 -139 l 938 -112 z "},"Ĺ":{"ha":946,"x_min":90,"x_max":938,"o":"m 90 0 l 90 1028 l 421 1028 l 421 256 l 938 256 l 938 0 l 90 0 m 107 1101 l 249 1321 l 588 1321 l 399 1101 l 107 1101 z "},"Ľ":{"ha":946,"x_min":90,"x_max":938,"o":"m 90 0 l 90 1028 l 421 1028 l 421 256 l 938 256 l 938 0 l 90 0 m 614 792 q 631 944 626 872 q 636 1122 636 1016 l 840 1122 q 781 792 840 928 l 614 792 z "},"Ļ":{"ha":946,"x_min":90,"x_max":938,"o":"m 90 0 l 90 1028 l 421 1028 l 421 256 l 938 256 l 938 0 l 90 0 m 514 -72 q 686 -196 686 -72 q 668 -284 686 -239 q 619 -361 649 -330 l 425 -361 q 469 -258 459 -303 q 372 -230 401 -253 q 342 -167 342 -206 q 383 -96 342 -120 q 514 -72 425 -72 z "},"Ŀ":{"ha":946,"x_min":90,"x_max":938,"o":"m 90 0 l 90 1028 l 421 1028 l 421 256 l 938 256 l 938 0 l 90 0 m 721 499 q 577 536 624 499 q 531 646 531 573 q 577 756 531 719 q 721 793 624 793 q 865 756 818 793 q 911 646 911 719 q 865 536 911 573 q 721 499 818 499 z "},"Ḷ":{"ha":946,"x_min":90,"x_max":938,"o":"m 90 0 l 90 1028 l 421 1028 l 421 256 l 938 256 l 938 0 l 90 0 m 514 -322 q 373 -289 418 -322 q 328 -197 328 -256 q 373 -106 328 -139 q 514 -72 418 -72 q 655 -106 610 -72 q 700 -197 700 -139 q 655 -289 700 -256 q 514 -322 610 -322 z "},"ǈ":{"ha":1429,"x_min":90,"x_max":1371,"o":"m 90 0 l 90 1028 l 421 1028 l 421 256 l 938 256 l 938 0 l 90 0 m 925 -197 q 1004 -57 981 -129 q 1026 125 1026 16 l 1026 764 l 1349 764 l 1349 136 q 1298 -109 1349 1 q 1125 -331 1247 -220 l 925 -197 m 1181 838 q 1037 875 1083 838 q 990 985 990 912 q 1037 1095 990 1058 q 1181 1132 1083 1132 q 1324 1095 1278 1132 q 1371 985 1371 1058 q 1324 875 1371 912 q 1181 838 1278 838 z "},"Ḻ":{"ha":946,"x_min":90,"x_max":938,"o":"m 90 0 l 90 1028 l 421 1028 l 421 256 l 938 256 l 938 0 l 90 0 m 206 -276 l 206 -103 l 822 -103 l 822 -276 l 206 -276 z "},"Ł":{"ha":946,"x_min":-44,"x_max":938,"o":"m 421 256 l 938 256 l 938 0 l 90 0 l 90 407 l 40 383 l -44 557 l 90 622 l 90 1028 l 421 1028 l 421 779 l 625 876 l 710 703 l 421 565 l 421 256 z "},"M":{"ha":1511,"x_min":93,"x_max":1418,"o":"m 1017 1028 l 1418 1028 l 1418 0 l 1110 0 l 1110 626 l 892 153 l 619 153 l 401 600 l 401 0 l 93 0 l 93 1028 l 494 1028 l 760 467 l 1017 1028 z "},"Ṃ":{"ha":1511,"x_min":93,"x_max":1418,"o":"m 1017 1028 l 1418 1028 l 1418 0 l 1110 0 l 1110 626 l 892 153 l 619 153 l 401 600 l 401 0 l 93 0 l 93 1028 l 494 1028 l 760 467 l 1017 1028 m 778 -322 q 637 -289 682 -322 q 592 -197 592 -256 q 637 -106 592 -139 q 778 -72 682 -72 q 919 -106 874 -72 q 964 -197 964 -139 q 919 -289 964 -256 q 778 -322 874 -322 z "},"N":{"ha":1253,"x_min":90,"x_max":1163,"o":"m 851 1028 l 1163 1028 l 1163 0 l 832 0 l 401 579 l 401 0 l 90 0 l 90 1028 l 421 1028 l 851 449 l 851 1028 z "},"Ǌ":{"ha":1764,"x_min":90,"x_max":1674,"o":"m 851 1028 l 1163 1028 l 1163 0 l 832 0 l 401 579 l 401 0 l 90 0 l 90 1028 l 421 1028 l 851 449 l 851 1028 m 1244 -112 q 1323 28 1301 -44 q 1346 210 1346 101 l 1346 1028 l 1674 1028 l 1674 221 q 1622 -27 1674 85 q 1447 -249 1570 -139 l 1244 -112 z "},"Ń":{"ha":1253,"x_min":90,"x_max":1163,"o":"m 851 1028 l 1163 1028 l 1163 0 l 832 0 l 401 579 l 401 0 l 90 0 l 90 1028 l 421 1028 l 851 449 l 851 1028 m 478 1101 l 619 1321 l 958 1321 l 769 1101 l 478 1101 z "},"Ň":{"ha":1253,"x_min":90,"x_max":1163,"o":"m 851 1028 l 1163 1028 l 1163 0 l 832 0 l 401 579 l 401 0 l 90 0 l 90 1028 l 421 1028 l 851 449 l 851 1028 m 738 1321 l 990 1321 l 760 1101 l 493 1101 l 263 1321 l 515 1321 l 626 1213 l 738 1321 z "},"Ņ":{"ha":1253,"x_min":90,"x_max":1163,"o":"m 851 1028 l 1163 1028 l 1163 0 l 832 0 l 401 579 l 401 0 l 90 0 l 90 1028 l 421 1028 l 851 449 l 851 1028 m 626 -72 q 799 -196 799 -72 q 780 -284 799 -239 q 732 -361 762 -330 l 538 -361 q 582 -258 572 -303 q 484 -230 514 -253 q 454 -167 454 -206 q 496 -96 454 -120 q 626 -72 538 -72 z "},"Ṅ":{"ha":1253,"x_min":90,"x_max":1163,"o":"m 851 1028 l 1163 1028 l 1163 0 l 832 0 l 401 579 l 401 0 l 90 0 l 90 1028 l 421 1028 l 851 449 l 851 1028 m 626 1090 q 485 1124 531 1090 q 440 1215 440 1157 q 485 1307 440 1274 q 626 1340 531 1340 q 767 1307 722 1340 q 813 1215 813 1274 q 767 1124 813 1157 q 626 1090 722 1090 z "},"Ṇ":{"ha":1253,"x_min":90,"x_max":1163,"o":"m 851 1028 l 1163 1028 l 1163 0 l 832 0 l 401 579 l 401 0 l 90 0 l 90 1028 l 421 1028 l 851 449 l 851 1028 m 626 -322 q 485 -289 531 -322 q 440 -197 440 -256 q 485 -106 440 -139 q 626 -72 531 -72 q 767 -106 722 -72 q 813 -197 813 -139 q 767 -289 813 -256 q 626 -322 722 -322 z "},"Ŋ":{"ha":1253,"x_min":90,"x_max":1163,"o":"m 1163 1028 l 1163 164 q 1141 -22 1163 60 q 1071 -180 1119 -105 q 939 -331 1022 -255 l 739 -197 q 802 -105 778 -151 q 838 -6 826 -60 l 401 580 l 401 0 l 90 0 l 90 1028 l 421 1028 l 851 449 l 851 1028 l 1163 1028 z "},"ǋ":{"ha":1736,"x_min":90,"x_max":1678,"o":"m 851 1028 l 1163 1028 l 1163 0 l 832 0 l 401 579 l 401 0 l 90 0 l 90 1028 l 421 1028 l 851 449 l 851 1028 m 1232 -197 q 1311 -57 1288 -129 q 1333 125 1333 16 l 1333 764 l 1656 764 l 1656 136 q 1605 -109 1656 1 q 1432 -331 1553 -220 l 1232 -197 m 1488 838 q 1344 875 1390 838 q 1297 985 1297 912 q 1344 1095 1297 1058 q 1488 1132 1390 1132 q 1631 1095 1585 1132 q 1678 985 1678 1058 q 1631 875 1678 912 q 1488 838 1585 838 z "},"Ṉ":{"ha":1253,"x_min":90,"x_max":1163,"o":"m 851 1028 l 1163 1028 l 1163 0 l 832 0 l 401 579 l 401 0 l 90 0 l 90 1028 l 421 1028 l 851 449 l 851 1028 m 318 -276 l 318 -103 l 935 -103 l 935 -276 l 318 -276 z "},"Ñ":{"ha":1253,"x_min":90,"x_max":1163,"o":"m 851 1028 l 1163 1028 l 1163 0 l 832 0 l 401 579 l 401 0 l 90 0 l 90 1028 l 421 1028 l 851 449 l 851 1028 m 764 1101 q 694 1108 726 1101 q 615 1127 663 1114 q 543 1145 573 1139 q 481 1151 513 1151 q 396 1141 433 1151 q 318 1107 359 1131 l 318 1268 q 393 1308 353 1296 q 489 1321 433 1321 q 560 1314 527 1321 q 638 1294 593 1308 q 711 1276 682 1282 q 772 1269 740 1269 q 857 1280 820 1269 q 935 1314 894 1290 l 935 1153 q 860 1114 900 1126 q 764 1101 820 1101 z "},"O":{"ha":1314,"x_min":58,"x_max":1256,"o":"m 657 -14 q 338 50 473 -14 q 131 233 203 114 q 58 514 58 352 q 130 795 58 676 q 337 978 202 914 q 657 1042 472 1042 q 976 977 841 1042 q 1183 794 1111 913 q 1256 514 1256 675 q 1183 234 1256 353 q 976 50 1111 115 q 657 -14 841 -14 m 657 242 q 852 311 785 242 q 919 508 919 380 q 851 715 919 644 q 657 786 783 786 q 463 718 531 786 q 394 519 394 650 q 461 311 394 381 q 657 242 528 242 z "},"Ó":{"ha":1314,"x_min":58,"x_max":1256,"o":"m 657 -14 q 338 50 473 -14 q 131 233 203 114 q 58 514 58 352 q 130 795 58 676 q 337 978 202 914 q 657 1042 472 1042 q 976 977 841 1042 q 1183 794 1111 913 q 1256 514 1256 675 q 1183 234 1256 353 q 976 50 1111 115 q 657 -14 841 -14 m 657 242 q 852 311 785 242 q 919 508 919 380 q 851 715 919 644 q 657 786 783 786 q 463 718 531 786 q 394 519 394 650 q 461 311 394 381 q 657 242 528 242 m 508 1101 l 650 1321 l 989 1321 l 800 1101 l 508 1101 z "},"Ŏ":{"ha":1314,"x_min":58,"x_max":1256,"o":"m 657 -14 q 338 50 473 -14 q 131 233 203 114 q 58 514 58 352 q 130 795 58 676 q 337 978 202 914 q 657 1042 472 1042 q 976 977 841 1042 q 1183 794 1111 913 q 1256 514 1256 675 q 1183 234 1256 353 q 976 50 1111 115 q 657 -14 841 -14 m 657 242 q 852 311 785 242 q 919 508 919 380 q 851 715 919 644 q 657 786 783 786 q 463 718 531 786 q 394 519 394 650 q 461 311 394 381 q 657 242 528 242 m 657 1101 q 420 1162 503 1101 q 321 1321 338 1222 l 511 1321 q 558 1266 522 1286 q 657 1246 594 1246 q 756 1266 720 1246 q 803 1321 792 1286 l 993 1321 q 893 1162 976 1222 q 657 1101 810 1101 z "},"Ô":{"ha":1314,"x_min":58,"x_max":1256,"o":"m 657 -14 q 338 50 473 -14 q 131 233 203 114 q 58 514 58 352 q 130 795 58 676 q 337 978 202 914 q 657 1042 472 1042 q 976 977 841 1042 q 1183 794 1111 913 q 1256 514 1256 675 q 1183 234 1256 353 q 976 50 1111 115 q 657 -14 841 -14 m 657 242 q 852 311 785 242 q 919 508 919 380 q 851 715 919 644 q 657 786 783 786 q 463 718 531 786 q 394 519 394 650 q 461 311 394 381 q 657 242 528 242 m 1021 1101 l 768 1101 l 657 1209 l 546 1101 l 293 1101 l 524 1321 l 790 1321 l 1021 1101 z "},"Ố":{"ha":1314,"x_min":58,"x_max":1256,"o":"m 657 -14 q 338 50 473 -14 q 131 233 203 114 q 58 514 58 352 q 130 795 58 676 q 337 978 202 914 q 657 1042 472 1042 q 976 977 841 1042 q 1183 794 1111 913 q 1256 514 1256 675 q 1183 234 1256 353 q 976 50 1111 115 q 657 -14 841 -14 m 657 242 q 852 311 785 242 q 919 508 919 380 q 851 715 919 644 q 657 786 783 786 q 463 718 531 786 q 394 519 394 650 q 461 311 394 381 q 657 242 528 242 m 931 1433 l 1150 1433 l 1038 1269 l 857 1269 l 931 1433 m 524 1290 l 790 1290 l 1021 1101 l 768 1101 l 657 1194 l 546 1101 l 293 1101 l 524 1290 z "},"Ộ":{"ha":1314,"x_min":58,"x_max":1256,"o":"m 657 -14 q 338 50 473 -14 q 131 233 203 114 q 58 514 58 352 q 130 795 58 676 q 337 978 202 914 q 657 1042 472 1042 q 976 977 841 1042 q 1183 794 1111 913 q 1256 514 1256 675 q 1183 234 1256 353 q 976 50 1111 115 q 657 -14 841 -14 m 657 242 q 852 311 785 242 q 919 508 919 380 q 851 715 919 644 q 657 786 783 786 q 463 718 531 786 q 394 519 394 650 q 461 311 394 381 q 657 242 528 242 m 657 -322 q 516 -289 561 -322 q 471 -197 471 -256 q 516 -106 471 -139 q 657 -72 561 -72 q 798 -106 753 -72 q 843 -197 843 -139 q 798 -289 843 -256 q 657 -322 753 -322 m 1021 1101 l 768 1101 l 657 1209 l 546 1101 l 293 1101 l 524 1321 l 790 1321 l 1021 1101 z "},"Ồ":{"ha":1314,"x_min":58,"x_max":1256,"o":"m 657 -14 q 338 50 473 -14 q 131 233 203 114 q 58 514 58 352 q 130 795 58 676 q 337 978 202 914 q 657 1042 472 1042 q 976 977 841 1042 q 1183 794 1111 913 q 1256 514 1256 675 q 1183 234 1256 353 q 976 50 1111 115 q 657 -14 841 -14 m 657 242 q 852 311 785 242 q 919 508 919 380 q 851 715 919 644 q 657 786 783 786 q 463 718 531 786 q 394 519 394 650 q 461 311 394 381 q 657 242 528 242 m 1065 1269 l 885 1269 l 772 1433 l 992 1433 l 1065 1269 m 524 1290 l 790 1290 l 1021 1101 l 768 1101 l 657 1194 l 546 1101 l 293 1101 l 524 1290 z "},"Ổ":{"ha":1314,"x_min":58,"x_max":1256,"o":"m 657 -14 q 338 50 473 -14 q 131 233 203 114 q 58 514 58 352 q 130 795 58 676 q 337 978 202 914 q 657 1042 472 1042 q 976 977 841 1042 q 1183 794 1111 913 q 1256 514 1256 675 q 1183 234 1256 353 q 976 50 1111 115 q 657 -14 841 -14 m 657 242 q 852 311 785 242 q 919 508 919 380 q 851 715 919 644 q 657 786 783 786 q 463 718 531 786 q 394 519 394 650 q 461 311 394 381 q 657 242 528 242 m 926 1475 q 1139 1386 1139 1475 q 1126 1350 1139 1365 q 1096 1325 1113 1335 q 1052 1301 1079 1315 q 1018 1284 1028 1290 q 1006 1269 1007 1277 l 856 1269 q 878 1308 858 1294 q 937 1337 899 1322 q 973 1353 962 1347 q 983 1368 983 1360 q 903 1385 983 1385 q 760 1372 833 1385 l 760 1461 q 841 1471 795 1467 q 926 1475 888 1475 m 524 1290 l 790 1290 l 1021 1101 l 768 1101 l 657 1194 l 546 1101 l 293 1101 l 524 1290 z "},"Ỗ":{"ha":1314,"x_min":58,"x_max":1256,"o":"m 657 -14 q 338 50 473 -14 q 131 233 203 114 q 58 514 58 352 q 130 795 58 676 q 337 978 202 914 q 657 1042 472 1042 q 976 977 841 1042 q 1183 794 1111 913 q 1256 514 1256 675 q 1183 234 1256 353 q 976 50 1111 115 q 657 -14 841 -14 m 657 242 q 852 311 785 242 q 919 508 919 380 q 851 715 919 644 q 657 786 783 786 q 463 718 531 786 q 394 519 394 650 q 461 311 394 381 q 657 242 528 242 m 819 1435 q 913 1445 869 1435 q 1021 1481 958 1455 l 1021 1363 q 922 1328 967 1336 q 817 1319 876 1319 q 734 1325 772 1319 q 638 1340 697 1330 q 557 1354 587 1350 q 494 1358 526 1358 q 401 1348 445 1358 q 293 1313 356 1338 l 293 1431 q 393 1466 347 1457 q 497 1475 439 1475 q 582 1469 542 1475 q 676 1453 622 1464 q 755 1439 724 1444 q 819 1435 787 1435 m 524 1290 l 790 1290 l 1021 1101 l 768 1101 l 657 1194 l 546 1101 l 293 1101 l 524 1290 z "},"Ȍ":{"ha":1314,"x_min":58,"x_max":1256,"o":"m 657 -14 q 338 50 473 -14 q 131 233 203 114 q 58 514 58 352 q 130 795 58 676 q 337 978 202 914 q 657 1042 472 1042 q 976 977 841 1042 q 1183 794 1111 913 q 1256 514 1256 675 q 1183 234 1256 353 q 976 50 1111 115 q 657 -14 841 -14 m 657 242 q 852 311 785 242 q 919 508 919 380 q 851 715 919 644 q 657 786 783 786 q 463 718 531 786 q 394 519 394 650 q 461 311 394 381 q 657 242 528 242 m 381 1101 l 250 1321 l 492 1321 l 606 1101 l 381 1101 m 708 1101 l 578 1321 l 819 1321 l 933 1101 l 708 1101 z "},"Ö":{"ha":1314,"x_min":58,"x_max":1256,"o":"m 657 -14 q 338 50 473 -14 q 131 233 203 114 q 58 514 58 352 q 130 795 58 676 q 337 978 202 914 q 657 1042 472 1042 q 976 977 841 1042 q 1183 794 1111 913 q 1256 514 1256 675 q 1183 234 1256 353 q 976 50 1111 115 q 657 -14 841 -14 m 657 242 q 852 311 785 242 q 919 508 919 380 q 851 715 919 644 q 657 786 783 786 q 463 718 531 786 q 394 519 394 650 q 461 311 394 381 q 657 242 528 242 m 451 1090 q 332 1123 370 1090 q 293 1215 293 1155 q 332 1308 293 1276 q 451 1340 370 1340 q 571 1308 533 1340 q 610 1215 610 1276 q 571 1123 610 1155 q 451 1090 533 1090 m 863 1090 q 743 1123 781 1090 q 704 1215 704 1155 q 743 1308 704 1276 q 863 1340 781 1340 q 982 1308 944 1340 q 1021 1215 1021 1276 q 982 1123 1021 1155 q 863 1090 944 1090 z "},"Ȫ":{"ha":1314,"x_min":58,"x_max":1256,"o":"m 657 -14 q 338 50 473 -14 q 131 233 203 114 q 58 514 58 352 q 130 795 58 676 q 337 978 202 914 q 657 1042 472 1042 q 976 977 841 1042 q 1183 794 1111 913 q 1256 514 1256 675 q 1183 234 1256 353 q 976 50 1111 115 q 657 -14 841 -14 m 657 242 q 852 311 785 242 q 919 508 919 380 q 851 715 919 644 q 657 786 783 786 q 463 718 531 786 q 394 519 394 650 q 461 311 394 381 q 657 242 528 242 m 451 1090 q 332 1123 370 1090 q 293 1215 293 1155 q 332 1308 293 1276 q 451 1340 370 1340 q 571 1308 533 1340 q 610 1215 610 1276 q 571 1123 610 1155 q 451 1090 533 1090 m 863 1090 q 743 1123 781 1090 q 704 1215 704 1155 q 743 1308 704 1276 q 863 1340 781 1340 q 982 1308 944 1340 q 1021 1215 1021 1276 q 982 1123 1021 1155 q 863 1090 944 1090 m 349 1403 l 349 1576 l 965 1576 l 965 1403 l 349 1403 z "},"Ȱ":{"ha":1314,"x_min":58,"x_max":1256,"o":"m 657 -14 q 338 50 473 -14 q 131 233 203 114 q 58 514 58 352 q 130 795 58 676 q 337 978 202 914 q 657 1042 472 1042 q 976 977 841 1042 q 1183 794 1111 913 q 1256 514 1256 675 q 1183 234 1256 353 q 976 50 1111 115 q 657 -14 841 -14 m 657 242 q 852 311 785 242 q 919 508 919 380 q 851 715 919 644 q 657 786 783 786 q 463 718 531 786 q 394 519 394 650 q 461 311 394 381 q 657 242 528 242 m 657 1090 q 516 1124 561 1090 q 471 1215 471 1157 q 516 1307 471 1274 q 657 1340 561 1340 q 798 1307 753 1340 q 843 1215 843 1274 q 798 1124 843 1157 q 657 1090 753 1090 m 349 1403 l 349 1576 l 965 1576 l 965 1403 l 349 1403 z "},"Ọ":{"ha":1314,"x_min":58,"x_max":1256,"o":"m 657 -14 q 338 50 473 -14 q 131 233 203 114 q 58 514 58 352 q 130 795 58 676 q 337 978 202 914 q 657 1042 472 1042 q 976 977 841 1042 q 1183 794 1111 913 q 1256 514 1256 675 q 1183 234 1256 353 q 976 50 1111 115 q 657 -14 841 -14 m 657 242 q 852 311 785 242 q 919 508 919 380 q 851 715 919 644 q 657 786 783 786 q 463 718 531 786 q 394 519 394 650 q 461 311 394 381 q 657 242 528 242 m 657 -322 q 516 -289 561 -322 q 471 -197 471 -256 q 516 -106 471 -139 q 657 -72 561 -72 q 798 -106 753 -72 q 843 -197 843 -139 q 798 -289 843 -256 q 657 -322 753 -322 z "},"Ò":{"ha":1314,"x_min":58,"x_max":1256,"o":"m 657 -14 q 338 50 473 -14 q 131 233 203 114 q 58 514 58 352 q 130 795 58 676 q 337 978 202 914 q 657 1042 472 1042 q 976 977 841 1042 q 1183 794 1111 913 q 1256 514 1256 675 q 1183 234 1256 353 q 976 50 1111 115 q 657 -14 841 -14 m 657 242 q 852 311 785 242 q 919 508 919 380 q 851 715 919 644 q 657 786 783 786 q 463 718 531 786 q 394 519 394 650 q 461 311 394 381 q 657 242 528 242 m 511 1101 l 322 1321 l 661 1321 l 803 1101 l 511 1101 z "},"Ỏ":{"ha":1314,"x_min":58,"x_max":1256,"o":"m 657 -14 q 338 50 473 -14 q 131 233 203 114 q 58 514 58 352 q 130 795 58 676 q 337 978 202 914 q 657 1042 472 1042 q 976 977 841 1042 q 1183 794 1111 913 q 1256 514 1256 675 q 1183 234 1256 353 q 976 50 1111 115 q 657 -14 841 -14 m 657 242 q 852 311 785 242 q 919 508 919 380 q 851 715 919 644 q 657 786 783 786 q 463 718 531 786 q 394 519 394 650 q 461 311 394 381 q 657 242 528 242 m 582 1101 q 606 1147 584 1130 q 664 1180 627 1163 q 699 1199 689 1192 q 710 1215 710 1206 q 690 1230 710 1226 q 629 1235 669 1235 q 486 1221 558 1235 l 486 1325 q 567 1336 521 1332 q 653 1340 613 1340 q 865 1238 865 1340 q 852 1195 865 1213 q 823 1165 840 1177 q 778 1139 806 1153 q 745 1119 756 1127 q 732 1101 733 1111 l 582 1101 z "},"Ơ":{"ha":1314,"x_min":58,"x_max":1267,"o":"m 1097 898 q 1215 732 1174 830 q 1256 514 1256 635 q 1183 234 1256 353 q 976 50 1111 115 q 657 -14 841 -14 q 338 50 473 -14 q 131 233 203 114 q 58 514 58 352 q 130 795 58 676 q 337 978 202 914 q 657 1042 472 1042 q 795 1034 708 1042 q 847 1031 809 1033 q 910 1028 885 1028 q 1025 1052 989 1028 q 1061 1136 1061 1076 q 1053 1233 1061 1178 l 1254 1233 q 1264 1178 1262 1203 q 1267 1128 1267 1154 q 1222 973 1267 1031 q 1097 898 1178 915 m 657 242 q 852 311 785 242 q 919 508 919 380 q 851 715 919 644 q 657 786 783 786 q 463 718 531 786 q 394 519 394 650 q 461 311 394 381 q 657 242 528 242 z "},"Ớ":{"ha":1314,"x_min":58,"x_max":1267,"o":"m 1097 898 q 1215 732 1174 830 q 1256 514 1256 635 q 1183 234 1256 353 q 976 50 1111 115 q 657 -14 841 -14 q 338 50 473 -14 q 131 233 203 114 q 58 514 58 352 q 130 795 58 676 q 337 978 202 914 q 657 1042 472 1042 q 795 1034 708 1042 q 847 1031 809 1033 q 910 1028 885 1028 q 1025 1052 989 1028 q 1061 1136 1061 1076 q 1053 1233 1061 1178 l 1254 1233 q 1264 1178 1262 1203 q 1267 1128 1267 1154 q 1222 973 1267 1031 q 1097 898 1178 915 m 657 242 q 852 311 785 242 q 919 508 919 380 q 851 715 919 644 q 657 786 783 786 q 463 718 531 786 q 394 519 394 650 q 461 311 394 381 q 657 242 528 242 m 508 1101 l 650 1321 l 989 1321 l 800 1101 l 508 1101 z "},"Ợ":{"ha":1314,"x_min":58,"x_max":1267,"o":"m 1097 898 q 1215 732 1174 830 q 1256 514 1256 635 q 1183 234 1256 353 q 976 50 1111 115 q 657 -14 841 -14 q 338 50 473 -14 q 131 233 203 114 q 58 514 58 352 q 130 795 58 676 q 337 978 202 914 q 657 1042 472 1042 q 795 1034 708 1042 q 847 1031 809 1033 q 910 1028 885 1028 q 1025 1052 989 1028 q 1061 1136 1061 1076 q 1053 1233 1061 1178 l 1254 1233 q 1264 1178 1262 1203 q 1267 1128 1267 1154 q 1222 973 1267 1031 q 1097 898 1178 915 m 657 242 q 852 311 785 242 q 919 508 919 380 q 851 715 919 644 q 657 786 783 786 q 463 718 531 786 q 394 519 394 650 q 461 311 394 381 q 657 242 528 242 m 657 -322 q 516 -289 561 -322 q 471 -197 471 -256 q 516 -106 471 -139 q 657 -72 561 -72 q 798 -106 753 -72 q 843 -197 843 -139 q 798 -289 843 -256 q 657 -322 753 -322 z "},"Ờ":{"ha":1314,"x_min":58,"x_max":1267,"o":"m 1097 898 q 1215 732 1174 830 q 1256 514 1256 635 q 1183 234 1256 353 q 976 50 1111 115 q 657 -14 841 -14 q 338 50 473 -14 q 131 233 203 114 q 58 514 58 352 q 130 795 58 676 q 337 978 202 914 q 657 1042 472 1042 q 795 1034 708 1042 q 847 1031 809 1033 q 910 1028 885 1028 q 1025 1052 989 1028 q 1061 1136 1061 1076 q 1053 1233 1061 1178 l 1254 1233 q 1264 1178 1262 1203 q 1267 1128 1267 1154 q 1222 973 1267 1031 q 1097 898 1178 915 m 657 242 q 852 311 785 242 q 919 508 919 380 q 851 715 919 644 q 657 786 783 786 q 463 718 531 786 q 394 519 394 650 q 461 311 394 381 q 657 242 528 242 m 511 1101 l 322 1321 l 661 1321 l 803 1101 l 511 1101 z "},"Ở":{"ha":1314,"x_min":58,"x_max":1267,"o":"m 1097 898 q 1215 732 1174 830 q 1256 514 1256 635 q 1183 234 1256 353 q 976 50 1111 115 q 657 -14 841 -14 q 338 50 473 -14 q 131 233 203 114 q 58 514 58 352 q 130 795 58 676 q 337 978 202 914 q 657 1042 472 1042 q 795 1034 708 1042 q 847 1031 809 1033 q 910 1028 885 1028 q 1025 1052 989 1028 q 1061 1136 1061 1076 q 1053 1233 1061 1178 l 1254 1233 q 1264 1178 1262 1203 q 1267 1128 1267 1154 q 1222 973 1267 1031 q 1097 898 1178 915 m 657 242 q 852 311 785 242 q 919 508 919 380 q 851 715 919 644 q 657 786 783 786 q 463 718 531 786 q 394 519 394 650 q 461 311 394 381 q 657 242 528 242 m 582 1101 q 606 1147 584 1130 q 664 1180 627 1163 q 699 1199 689 1192 q 710 1215 710 1206 q 690 1230 710 1226 q 629 1235 669 1235 q 486 1221 558 1235 l 486 1325 q 567 1336 521 1332 q 653 1340 613 1340 q 865 1238 865 1340 q 852 1195 865 1213 q 823 1165 840 1177 q 778 1139 806 1153 q 745 1119 756 1127 q 732 1101 733 1111 l 582 1101 z "},"Ỡ":{"ha":1314,"x_min":58,"x_max":1267,"o":"m 794 1101 q 725 1108 757 1101 q 645 1127 693 1114 q 574 1145 603 1139 q 511 1151 544 1151 q 426 1141 463 1151 q 349 1107 390 1131 l 349 1268 q 424 1308 383 1296 q 519 1321 464 1321 q 591 1314 558 1321 q 669 1294 624 1308 q 741 1276 713 1282 q 803 1269 770 1269 q 888 1280 851 1269 q 965 1314 924 1290 l 965 1153 q 891 1114 931 1126 q 794 1101 851 1101 m 1097 898 q 1215 732 1174 830 q 1256 514 1256 635 q 1183 234 1256 353 q 976 50 1111 115 q 657 -14 841 -14 q 338 50 473 -14 q 131 233 203 114 q 58 514 58 352 q 130 795 58 676 q 337 978 202 914 q 657 1042 472 1042 q 795 1034 708 1042 q 847 1031 809 1033 q 910 1028 885 1028 q 1025 1052 989 1028 q 1061 1136 1061 1076 q 1053 1233 1061 1178 l 1254 1233 q 1264 1178 1262 1203 q 1267 1128 1267 1154 q 1222 973 1267 1031 q 1097 898 1178 915 m 657 242 q 852 311 785 242 q 919 508 919 380 q 851 715 919 644 q 657 786 783 786 q 463 718 531 786 q 394 519 394 650 q 461 311 394 381 q 657 242 528 242 z "},"Ő":{"ha":1314,"x_min":58,"x_max":1256,"o":"m 657 -14 q 338 50 473 -14 q 131 233 203 114 q 58 514 58 352 q 130 795 58 676 q 337 978 202 914 q 657 1042 472 1042 q 976 977 841 1042 q 1183 794 1111 913 q 1256 514 1256 675 q 1183 234 1256 353 q 976 50 1111 115 q 657 -14 841 -14 m 657 242 q 852 311 785 242 q 919 508 919 380 q 851 715 919 644 q 657 786 783 786 q 463 718 531 786 q 394 519 394 650 q 461 311 394 381 q 657 242 528 242 m 381 1101 l 494 1321 l 736 1321 l 606 1101 l 381 1101 m 708 1101 l 822 1321 l 1064 1321 l 933 1101 l 708 1101 z "},"Ȏ":{"ha":1314,"x_min":58,"x_max":1256,"o":"m 657 -14 q 338 50 473 -14 q 131 233 203 114 q 58 514 58 352 q 130 795 58 676 q 337 978 202 914 q 657 1042 472 1042 q 976 977 841 1042 q 1183 794 1111 913 q 1256 514 1256 675 q 1183 234 1256 353 q 976 50 1111 115 q 657 -14 841 -14 m 657 242 q 852 311 785 242 q 919 508 919 380 q 851 715 919 644 q 657 786 783 786 q 463 718 531 786 q 394 519 394 650 q 461 311 394 381 q 657 242 528 242 m 321 1101 q 420 1260 338 1200 q 657 1321 503 1321 q 893 1260 810 1321 q 993 1101 976 1200 l 803 1101 q 756 1156 792 1136 q 657 1176 720 1176 q 558 1156 594 1176 q 511 1101 522 1136 l 321 1101 z "},"Ō":{"ha":1314,"x_min":58,"x_max":1256,"o":"m 657 -14 q 338 50 473 -14 q 131 233 203 114 q 58 514 58 352 q 130 795 58 676 q 337 978 202 914 q 657 1042 472 1042 q 976 977 841 1042 q 1183 794 1111 913 q 1256 514 1256 675 q 1183 234 1256 353 q 976 50 1111 115 q 657 -14 841 -14 m 657 242 q 852 311 785 242 q 919 508 919 380 q 851 715 919 644 q 657 786 783 786 q 463 718 531 786 q 394 519 394 650 q 461 311 394 381 q 657 242 528 242 m 349 1125 l 349 1299 l 965 1299 l 965 1125 l 349 1125 z "},"Ṓ":{"ha":1314,"x_min":58,"x_max":1256,"o":"m 657 -14 q 338 50 473 -14 q 131 233 203 114 q 58 514 58 352 q 130 795 58 676 q 337 978 202 914 q 657 1042 472 1042 q 976 977 841 1042 q 1183 794 1111 913 q 1256 514 1256 675 q 1183 234 1256 353 q 976 50 1111 115 q 657 -14 841 -14 m 657 242 q 852 311 785 242 q 919 508 919 380 q 851 715 919 644 q 657 786 783 786 q 463 718 531 786 q 394 519 394 650 q 461 311 394 381 q 657 242 528 242 m 490 1379 l 632 1540 l 1013 1540 l 824 1379 l 490 1379 m 349 1125 l 349 1299 l 965 1299 l 965 1125 l 349 1125 z "},"Ṑ":{"ha":1314,"x_min":58,"x_max":1256,"o":"m 657 -14 q 338 50 473 -14 q 131 233 203 114 q 58 514 58 352 q 130 795 58 676 q 337 978 202 914 q 657 1042 472 1042 q 976 977 841 1042 q 1183 794 1111 913 q 1256 514 1256 675 q 1183 234 1256 353 q 976 50 1111 115 q 657 -14 841 -14 m 657 242 q 852 311 785 242 q 919 508 919 380 q 851 715 919 644 q 657 786 783 786 q 463 718 531 786 q 394 519 394 650 q 461 311 394 381 q 657 242 528 242 m 490 1379 l 301 1540 l 682 1540 l 824 1379 l 490 1379 m 349 1125 l 349 1299 l 965 1299 l 965 1125 l 349 1125 z "},"Ǫ":{"ha":1314,"x_min":58,"x_max":1256,"o":"m 657 1042 q 976 977 841 1042 q 1183 794 1111 913 q 1256 514 1256 675 q 1200 264 1256 370 q 1051 94 1144 158 q 839 4 957 30 q 639 -136 639 -40 q 664 -186 639 -169 q 742 -204 689 -204 q 833 -187 781 -204 l 833 -299 q 692 -319 766 -319 q 519 -277 577 -319 q 461 -162 461 -235 q 555 -9 461 -67 q 289 75 401 8 q 118 255 177 143 q 58 514 58 367 q 130 795 58 676 q 337 978 202 914 q 657 1042 472 1042 m 657 242 q 852 311 785 242 q 919 508 919 380 q 851 715 919 644 q 657 786 783 786 q 463 718 531 786 q 394 519 394 650 q 461 311 394 381 q 657 242 528 242 z "},"Ø":{"ha":1314,"x_min":58,"x_max":1256,"o":"m 1113 884 q 1219 722 1183 815 q 1256 514 1256 628 q 1183 234 1256 353 q 976 50 1111 115 q 657 -14 841 -14 q 333 53 469 -14 l 243 -43 l 126 64 l 201 144 q 95 306 131 212 q 58 514 58 399 q 130 795 58 676 q 337 978 202 914 q 657 1042 472 1042 q 981 975 842 1042 l 1071 1071 l 1188 964 l 1113 884 m 394 519 q 419 376 394 435 l 782 763 q 657 786 730 786 q 463 718 531 786 q 394 519 394 650 m 657 242 q 852 311 785 242 q 919 508 919 380 q 894 651 919 590 l 531 264 q 657 242 585 242 z "},"Ǿ":{"ha":1314,"x_min":58,"x_max":1256,"o":"m 1113 884 q 1219 722 1183 815 q 1256 514 1256 628 q 1183 234 1256 353 q 976 50 1111 115 q 657 -14 841 -14 q 333 53 469 -14 l 243 -43 l 126 64 l 201 144 q 95 306 131 212 q 58 514 58 399 q 130 795 58 676 q 337 978 202 914 q 657 1042 472 1042 q 981 975 842 1042 l 1071 1071 l 1188 964 l 1113 884 m 394 519 q 419 376 394 435 l 782 763 q 657 786 730 786 q 463 718 531 786 q 394 519 394 650 m 657 242 q 852 311 785 242 q 919 508 919 380 q 894 651 919 590 l 531 264 q 657 242 585 242 m 506 1101 l 647 1321 l 986 1321 l 797 1101 l 506 1101 z "},"Õ":{"ha":1314,"x_min":58,"x_max":1256,"o":"m 657 -14 q 338 50 473 -14 q 131 233 203 114 q 58 514 58 352 q 130 795 58 676 q 337 978 202 914 q 657 1042 472 1042 q 976 977 841 1042 q 1183 794 1111 913 q 1256 514 1256 675 q 1183 234 1256 353 q 976 50 1111 115 q 657 -14 841 -14 m 657 242 q 852 311 785 242 q 919 508 919 380 q 851 715 919 644 q 657 786 783 786 q 463 718 531 786 q 394 519 394 650 q 461 311 394 381 q 657 242 528 242 m 794 1101 q 725 1108 757 1101 q 645 1127 693 1114 q 574 1145 603 1139 q 511 1151 544 1151 q 426 1141 463 1151 q 349 1107 390 1131 l 349 1268 q 424 1308 383 1296 q 519 1321 464 1321 q 591 1314 558 1321 q 669 1294 624 1308 q 741 1276 713 1282 q 803 1269 770 1269 q 888 1280 851 1269 q 965 1314 924 1290 l 965 1153 q 891 1114 931 1126 q 794 1101 851 1101 z "},"Ṍ":{"ha":1314,"x_min":58,"x_max":1256,"o":"m 657 -14 q 338 50 473 -14 q 131 233 203 114 q 58 514 58 352 q 130 795 58 676 q 337 978 202 914 q 657 1042 472 1042 q 976 977 841 1042 q 1183 794 1111 913 q 1256 514 1256 675 q 1183 234 1256 353 q 976 50 1111 115 q 657 -14 841 -14 m 657 242 q 852 311 785 242 q 919 508 919 380 q 851 715 919 644 q 657 786 783 786 q 463 718 531 786 q 394 519 394 650 q 461 311 394 381 q 657 242 528 242 m 490 1379 l 632 1540 l 1013 1540 l 824 1379 l 490 1379 m 794 1101 q 725 1108 757 1101 q 645 1127 693 1114 q 574 1145 603 1139 q 511 1151 544 1151 q 426 1141 463 1151 q 349 1107 390 1131 l 349 1268 q 424 1308 383 1296 q 519 1321 464 1321 q 591 1314 558 1321 q 669 1294 624 1308 q 741 1276 713 1282 q 803 1269 770 1269 q 888 1280 851 1269 q 965 1314 924 1290 l 965 1153 q 891 1114 931 1126 q 794 1101 851 1101 z "},"Ṏ":{"ha":1314,"x_min":58,"x_max":1256,"o":"m 657 -14 q 338 50 473 -14 q 131 233 203 114 q 58 514 58 352 q 130 795 58 676 q 337 978 202 914 q 657 1042 472 1042 q 976 977 841 1042 q 1183 794 1111 913 q 1256 514 1256 675 q 1183 234 1256 353 q 976 50 1111 115 q 657 -14 841 -14 m 657 242 q 852 311 785 242 q 919 508 919 380 q 851 715 919 644 q 657 786 783 786 q 463 718 531 786 q 394 519 394 650 q 461 311 394 381 q 657 242 528 242 m 794 1101 q 725 1108 757 1101 q 645 1127 693 1114 q 574 1145 603 1139 q 511 1151 544 1151 q 426 1141 463 1151 q 349 1107 390 1131 l 349 1268 q 424 1308 383 1296 q 519 1321 464 1321 q 591 1314 558 1321 q 669 1294 624 1308 q 741 1276 713 1282 q 803 1269 770 1269 q 888 1280 851 1269 q 965 1314 924 1290 l 965 1153 q 891 1114 931 1126 q 794 1101 851 1101 m 451 1368 q 332 1400 370 1368 q 293 1493 293 1433 q 332 1586 293 1553 q 451 1618 370 1618 q 571 1586 533 1618 q 610 1493 610 1553 q 571 1400 610 1433 q 451 1368 533 1368 m 863 1368 q 743 1400 781 1368 q 704 1493 704 1433 q 743 1586 704 1553 q 863 1618 781 1618 q 982 1586 944 1618 q 1021 1493 1021 1553 q 982 1400 1021 1433 q 863 1368 944 1368 z "},"Ȭ":{"ha":1314,"x_min":58,"x_max":1256,"o":"m 657 -14 q 338 50 473 -14 q 131 233 203 114 q 58 514 58 352 q 130 795 58 676 q 337 978 202 914 q 657 1042 472 1042 q 976 977 841 1042 q 1183 794 1111 913 q 1256 514 1256 675 q 1183 234 1256 353 q 976 50 1111 115 q 657 -14 841 -14 m 657 242 q 852 311 785 242 q 919 508 919 380 q 851 715 919 644 q 657 786 783 786 q 463 718 531 786 q 394 519 394 650 q 461 311 394 381 q 657 242 528 242 m 794 1101 q 725 1108 757 1101 q 645 1127 693 1114 q 574 1145 603 1139 q 511 1151 544 1151 q 426 1141 463 1151 q 349 1107 390 1131 l 349 1268 q 424 1308 383 1296 q 519 1321 464 1321 q 591 1314 558 1321 q 669 1294 624 1308 q 741 1276 713 1282 q 803 1269 770 1269 q 888 1280 851 1269 q 965 1314 924 1290 l 965 1153 q 891 1114 931 1126 q 794 1101 851 1101 m 349 1403 l 349 1576 l 965 1576 l 965 1403 l 349 1403 z "},"Œ":{"ha":1740,"x_min":58,"x_max":1681,"o":"m 1681 243 l 1681 0 l 1047 0 q 910 -6 999 0 q 800 -10 831 -10 q 378 43 541 -10 q 137 211 215 96 q 58 514 58 326 q 239 910 58 783 q 786 1038 419 1038 q 909 1033 834 1038 q 966 1030 922 1032 q 1047 1028 1010 1028 l 1674 1028 l 1674 785 l 1144 785 l 1144 646 l 1600 646 l 1600 403 l 1144 403 l 1144 243 l 1681 243 m 818 776 q 710 779 785 779 q 531 751 600 779 q 427 665 461 724 q 393 511 393 606 q 470 311 393 374 q 710 249 547 249 q 818 251 785 249 l 818 776 z "},"P":{"ha":1061,"x_min":90,"x_max":1007,"o":"m 90 1007 q 469 1042 280 1042 q 875 948 742 1042 q 1007 656 1007 855 q 880 367 1007 464 q 507 269 753 269 l 462 270 q 421 271 447 271 l 421 0 l 90 0 l 90 1007 m 510 496 q 611 511 572 496 q 670 561 651 526 q 689 656 689 597 q 644 777 689 740 q 501 815 599 815 q 421 810 456 815 l 421 501 q 510 496 463 496 z "},"Þ":{"ha":1068,"x_min":90,"x_max":1007,"o":"m 90 1028 l 421 1028 l 421 913 l 449 913 q 476 914 458 914 q 877 820 747 914 q 1007 528 1007 727 q 881 239 1007 336 q 510 142 755 142 l 463 142 q 421 143 448 143 l 421 0 l 90 0 l 90 1028 m 510 368 q 611 383 572 368 q 670 434 651 399 q 689 528 689 469 q 644 650 689 612 q 501 688 599 688 q 421 682 456 688 l 421 372 q 510 368 469 368 z "},"Q":{"ha":1314,"x_min":58,"x_max":1256,"o":"m 1256 514 q 1216 297 1256 394 q 1094 130 1176 199 q 890 31 1012 61 q 1250 -31 1054 -7 l 1201 -274 q 513 -97 766 -210 q 159 166 260 17 q 58 500 58 314 q 130 791 58 669 q 337 977 202 913 q 657 1042 472 1042 q 976 977 841 1042 q 1183 794 1111 913 q 1256 514 1256 675 m 394 519 q 460 310 394 378 q 657 242 526 242 q 852 311 785 242 q 919 508 919 380 q 851 715 919 644 q 657 786 783 786 q 463 718 531 786 q 394 519 394 650 z "},"R":{"ha":1096,"x_min":90,"x_max":1099,"o":"m 736 0 l 489 342 q 414 344 437 343 l 414 0 l 90 0 l 90 994 q 285 1028 174 1015 q 485 1042 396 1042 q 866 957 737 1042 q 994 693 994 872 q 946 515 994 590 q 806 398 897 441 l 1099 0 l 736 0 m 414 576 q 524 569 472 569 q 648 598 608 569 q 689 693 689 627 q 646 786 689 756 q 515 817 603 817 q 414 807 467 817 l 414 576 z "},"Ŕ":{"ha":1096,"x_min":90,"x_max":1099,"o":"m 736 0 l 489 342 q 414 344 437 343 l 414 0 l 90 0 l 90 994 q 285 1028 174 1015 q 485 1042 396 1042 q 866 957 737 1042 q 994 693 994 872 q 946 515 994 590 q 806 398 897 441 l 1099 0 l 736 0 m 414 576 q 524 569 472 569 q 648 598 608 569 q 689 693 689 627 q 646 786 689 756 q 515 817 603 817 q 414 807 467 817 l 414 576 m 404 1101 l 546 1321 l 885 1321 l 696 1101 l 404 1101 z "},"Ř":{"ha":1096,"x_min":90,"x_max":1099,"o":"m 736 0 l 489 342 q 414 344 437 343 l 414 0 l 90 0 l 90 994 q 285 1028 174 1015 q 485 1042 396 1042 q 866 957 737 1042 q 994 693 994 872 q 946 515 994 590 q 806 398 897 441 l 1099 0 l 736 0 m 414 576 q 524 569 472 569 q 648 598 608 569 q 689 693 689 627 q 646 786 689 756 q 515 817 603 817 q 414 807 467 817 l 414 576 m 664 1321 l 917 1321 l 686 1101 l 419 1101 l 189 1321 l 442 1321 l 553 1213 l 664 1321 z "},"Ŗ":{"ha":1096,"x_min":90,"x_max":1099,"o":"m 736 0 l 489 342 q 414 344 437 343 l 414 0 l 90 0 l 90 994 q 285 1028 174 1015 q 485 1042 396 1042 q 866 957 737 1042 q 994 693 994 872 q 946 515 994 590 q 806 398 897 441 l 1099 0 l 736 0 m 414 576 q 524 569 472 569 q 648 598 608 569 q 689 693 689 627 q 646 786 689 756 q 515 817 603 817 q 414 807 467 817 l 414 576 m 568 -72 q 740 -196 740 -72 q 722 -284 740 -239 q 674 -361 703 -330 l 479 -361 q 524 -258 513 -303 q 426 -230 456 -253 q 396 -167 396 -206 q 438 -96 396 -120 q 568 -72 479 -72 z "},"Ȑ":{"ha":1096,"x_min":90,"x_max":1099,"o":"m 736 0 l 489 342 q 414 344 437 343 l 414 0 l 90 0 l 90 994 q 285 1028 174 1015 q 485 1042 396 1042 q 866 957 737 1042 q 994 693 994 872 q 946 515 994 590 q 806 398 897 441 l 1099 0 l 736 0 m 414 576 q 524 569 472 569 q 648 598 608 569 q 689 693 689 627 q 646 786 689 756 q 515 817 603 817 q 414 807 467 817 l 414 576 m 276 1101 l 146 1321 l 388 1321 l 501 1101 l 276 1101 m 604 1101 l 474 1321 l 715 1321 l 829 1101 l 604 1101 z "},"Ṛ":{"ha":1096,"x_min":90,"x_max":1099,"o":"m 736 0 l 489 342 q 414 344 437 343 l 414 0 l 90 0 l 90 994 q 285 1028 174 1015 q 485 1042 396 1042 q 866 957 737 1042 q 994 693 994 872 q 946 515 994 590 q 806 398 897 441 l 1099 0 l 736 0 m 414 576 q 524 569 472 569 q 648 598 608 569 q 689 693 689 627 q 646 786 689 756 q 515 817 603 817 q 414 807 467 817 l 414 576 m 568 -322 q 427 -289 472 -322 q 382 -197 382 -256 q 427 -106 382 -139 q 568 -72 472 -72 q 709 -106 664 -72 q 754 -197 754 -139 q 709 -289 754 -256 q 568 -322 664 -322 z "},"Ȓ":{"ha":1096,"x_min":90,"x_max":1099,"o":"m 736 0 l 489 342 q 414 344 437 343 l 414 0 l 90 0 l 90 994 q 285 1028 174 1015 q 485 1042 396 1042 q 866 957 737 1042 q 994 693 994 872 q 946 515 994 590 q 806 398 897 441 l 1099 0 l 736 0 m 414 576 q 524 569 472 569 q 648 598 608 569 q 689 693 689 627 q 646 786 689 756 q 515 817 603 817 q 414 807 467 817 l 414 576 m 217 1101 q 316 1260 233 1200 q 553 1321 399 1321 q 789 1260 706 1321 q 889 1101 872 1200 l 699 1101 q 652 1156 688 1136 q 553 1176 616 1176 q 454 1156 490 1176 q 407 1101 418 1136 l 217 1101 z "},"Ṟ":{"ha":1096,"x_min":90,"x_max":1099,"o":"m 736 0 l 489 342 q 414 344 437 343 l 414 0 l 90 0 l 90 994 q 285 1028 174 1015 q 485 1042 396 1042 q 866 957 737 1042 q 994 693 994 872 q 946 515 994 590 q 806 398 897 441 l 1099 0 l 736 0 m 414 576 q 524 569 472 569 q 648 598 608 569 q 689 693 689 627 q 646 786 689 756 q 515 817 603 817 q 414 807 467 817 l 414 576 m 260 -276 l 260 -103 l 876 -103 l 876 -276 l 260 -276 z "},"S":{"ha":957,"x_min":44,"x_max":913,"o":"m 428 -14 q 74 35 238 -14 l 74 290 q 246 252 144 267 q 431 238 348 238 q 528 246 493 238 q 576 269 563 254 q 589 307 589 284 q 580 338 589 326 q 546 359 571 350 q 474 378 522 369 l 374 397 q 183 461 256 420 q 78 563 111 502 q 44 708 44 624 q 175 956 44 871 q 563 1042 305 1042 q 853 1010 722 1042 l 853 754 q 723 780 799 770 q 572 790 647 790 q 413 772 458 790 q 368 719 368 753 q 376 692 368 703 q 403 673 383 681 q 461 657 423 665 l 561 638 q 766 570 689 613 q 878 467 844 527 q 913 324 913 406 q 854 144 913 220 q 686 27 795 68 q 428 -14 576 -14 z "},"Ś":{"ha":957,"x_min":44,"x_max":913,"o":"m 428 -14 q 74 35 238 -14 l 74 290 q 246 252 144 267 q 431 238 348 238 q 528 246 493 238 q 576 269 563 254 q 589 307 589 284 q 580 338 589 326 q 546 359 571 350 q 474 378 522 369 l 374 397 q 183 461 256 420 q 78 563 111 502 q 44 708 44 624 q 175 956 44 871 q 563 1042 305 1042 q 853 1010 722 1042 l 853 754 q 723 780 799 770 q 572 790 647 790 q 413 772 458 790 q 368 719 368 753 q 376 692 368 703 q 403 673 383 681 q 461 657 423 665 l 561 638 q 766 570 689 613 q 878 467 844 527 q 913 324 913 406 q 854 144 913 220 q 686 27 795 68 q 428 -14 576 -14 m 340 1101 l 482 1321 l 821 1321 l 632 1101 l 340 1101 z "},"Ṥ":{"ha":957,"x_min":44,"x_max":913,"o":"m 428 -14 q 74 35 238 -14 l 74 290 q 246 252 144 267 q 431 238 348 238 q 528 246 493 238 q 576 269 563 254 q 589 307 589 284 q 580 338 589 326 q 546 359 571 350 q 474 378 522 369 l 374 397 q 183 461 256 420 q 78 563 111 502 q 44 708 44 624 q 175 956 44 871 q 563 1042 305 1042 q 853 1010 722 1042 l 853 754 q 723 780 799 770 q 572 790 647 790 q 413 772 458 790 q 368 719 368 753 q 376 692 368 703 q 403 673 383 681 q 461 657 423 665 l 561 638 q 766 570 689 613 q 878 467 844 527 q 913 324 913 406 q 854 144 913 220 q 686 27 795 68 q 428 -14 576 -14 m 281 1293 q 168 1320 204 1293 q 132 1393 132 1347 q 168 1466 132 1440 q 281 1493 204 1493 q 393 1466 357 1493 q 429 1393 429 1440 q 393 1320 429 1347 q 281 1293 357 1293 m 340 1101 l 482 1321 l 821 1321 l 632 1101 l 340 1101 z "},"Š":{"ha":957,"x_min":44,"x_max":913,"o":"m 428 -14 q 74 35 238 -14 l 74 290 q 246 252 144 267 q 431 238 348 238 q 528 246 493 238 q 576 269 563 254 q 589 307 589 284 q 580 338 589 326 q 546 359 571 350 q 474 378 522 369 l 374 397 q 183 461 256 420 q 78 563 111 502 q 44 708 44 624 q 175 956 44 871 q 563 1042 305 1042 q 853 1010 722 1042 l 853 754 q 723 780 799 770 q 572 790 647 790 q 413 772 458 790 q 368 719 368 753 q 376 692 368 703 q 403 673 383 681 q 461 657 423 665 l 561 638 q 766 570 689 613 q 878 467 844 527 q 913 324 913 406 q 854 144 913 220 q 686 27 795 68 q 428 -14 576 -14 m 600 1321 l 853 1321 l 622 1101 l 356 1101 l 125 1321 l 378 1321 l 489 1213 l 600 1321 z "},"Ṧ":{"ha":957,"x_min":44,"x_max":913,"o":"m 428 -14 q 74 35 238 -14 l 74 290 q 246 252 144 267 q 431 238 348 238 q 528 246 493 238 q 576 269 563 254 q 589 307 589 284 q 580 338 589 326 q 546 359 571 350 q 474 378 522 369 l 374 397 q 183 461 256 420 q 78 563 111 502 q 44 708 44 624 q 175 956 44 871 q 563 1042 305 1042 q 853 1010 722 1042 l 853 754 q 723 780 799 770 q 572 790 647 790 q 413 772 458 790 q 368 719 368 753 q 376 692 368 703 q 403 673 383 681 q 461 657 423 665 l 561 638 q 766 570 689 613 q 878 467 844 527 q 913 324 913 406 q 854 144 913 220 q 686 27 795 68 q 428 -14 576 -14 m 489 1349 q 376 1375 413 1349 q 340 1449 340 1402 q 376 1522 340 1495 q 489 1549 413 1549 q 601 1522 565 1549 q 638 1449 638 1495 q 601 1375 638 1402 q 489 1349 565 1349 m 600 1321 l 853 1321 l 622 1101 l 356 1101 l 125 1321 l 378 1321 l 489 1213 l 600 1321 z "},"Ş":{"ha":957,"x_min":44,"x_max":913,"o":"m 913 324 q 868 165 913 234 q 740 51 824 95 q 540 -7 656 7 l 540 -50 q 644 -94 610 -60 q 678 -181 678 -128 q 622 -283 678 -246 q 457 -319 565 -319 q 299 -297 374 -319 l 299 -190 q 369 -206 331 -201 q 442 -211 407 -211 q 502 -202 483 -211 q 522 -171 522 -192 q 503 -138 522 -148 q 443 -128 483 -128 l 400 -128 l 400 -14 q 74 35 226 -10 l 74 290 q 246 252 144 267 q 431 238 348 238 q 528 246 493 238 q 576 269 563 254 q 589 307 589 284 q 580 338 589 326 q 546 359 571 350 q 474 378 522 369 l 374 397 q 183 461 256 420 q 78 563 111 502 q 44 708 44 624 q 175 956 44 871 q 563 1042 305 1042 q 853 1010 722 1042 l 853 754 q 723 780 799 770 q 572 790 647 790 q 413 772 458 790 q 368 719 368 753 q 376 692 368 703 q 403 673 383 681 q 461 657 423 665 l 561 638 q 766 570 689 613 q 878 467 844 527 q 913 324 913 406 z "},"Ŝ":{"ha":957,"x_min":44,"x_max":913,"o":"m 428 -14 q 74 35 238 -14 l 74 290 q 246 252 144 267 q 431 238 348 238 q 528 246 493 238 q 576 269 563 254 q 589 307 589 284 q 580 338 589 326 q 546 359 571 350 q 474 378 522 369 l 374 397 q 183 461 256 420 q 78 563 111 502 q 44 708 44 624 q 175 956 44 871 q 563 1042 305 1042 q 853 1010 722 1042 l 853 754 q 723 780 799 770 q 572 790 647 790 q 413 772 458 790 q 368 719 368 753 q 376 692 368 703 q 403 673 383 681 q 461 657 423 665 l 561 638 q 766 570 689 613 q 878 467 844 527 q 913 324 913 406 q 854 144 913 220 q 686 27 795 68 q 428 -14 576 -14 m 853 1101 l 600 1101 l 489 1209 l 378 1101 l 125 1101 l 356 1321 l 622 1321 l 853 1101 z "},"Ș":{"ha":957,"x_min":44,"x_max":913,"o":"m 428 -14 q 74 35 238 -14 l 74 290 q 246 252 144 267 q 431 238 348 238 q 528 246 493 238 q 576 269 563 254 q 589 307 589 284 q 580 338 589 326 q 546 359 571 350 q 474 378 522 369 l 374 397 q 183 461 256 420 q 78 563 111 502 q 44 708 44 624 q 175 956 44 871 q 563 1042 305 1042 q 853 1010 722 1042 l 853 754 q 723 780 799 770 q 572 790 647 790 q 413 772 458 790 q 368 719 368 753 q 376 692 368 703 q 403 673 383 681 q 461 657 423 665 l 561 638 q 766 570 689 613 q 878 467 844 527 q 913 324 913 406 q 854 144 913 220 q 686 27 795 68 q 428 -14 576 -14 m 489 -72 q 661 -196 661 -72 q 643 -284 661 -239 q 594 -361 624 -330 l 400 -361 q 444 -258 434 -303 q 347 -230 376 -253 q 317 -167 317 -206 q 358 -96 317 -120 q 489 -72 400 -72 z "},"Ṡ":{"ha":957,"x_min":44,"x_max":913,"o":"m 428 -14 q 74 35 238 -14 l 74 290 q 246 252 144 267 q 431 238 348 238 q 528 246 493 238 q 576 269 563 254 q 589 307 589 284 q 580 338 589 326 q 546 359 571 350 q 474 378 522 369 l 374 397 q 183 461 256 420 q 78 563 111 502 q 44 708 44 624 q 175 956 44 871 q 563 1042 305 1042 q 853 1010 722 1042 l 853 754 q 723 780 799 770 q 572 790 647 790 q 413 772 458 790 q 368 719 368 753 q 376 692 368 703 q 403 673 383 681 q 461 657 423 665 l 561 638 q 766 570 689 613 q 878 467 844 527 q 913 324 913 406 q 854 144 913 220 q 686 27 795 68 q 428 -14 576 -14 m 489 1090 q 348 1124 393 1090 q 303 1215 303 1157 q 348 1307 303 1274 q 489 1340 393 1340 q 630 1307 585 1340 q 675 1215 675 1274 q 630 1124 675 1157 q 489 1090 585 1090 z "},"Ṣ":{"ha":957,"x_min":44,"x_max":913,"o":"m 428 -14 q 74 35 238 -14 l 74 290 q 246 252 144 267 q 431 238 348 238 q 528 246 493 238 q 576 269 563 254 q 589 307 589 284 q 580 338 589 326 q 546 359 571 350 q 474 378 522 369 l 374 397 q 183 461 256 420 q 78 563 111 502 q 44 708 44 624 q 175 956 44 871 q 563 1042 305 1042 q 853 1010 722 1042 l 853 754 q 723 780 799 770 q 572 790 647 790 q 413 772 458 790 q 368 719 368 753 q 376 692 368 703 q 403 673 383 681 q 461 657 423 665 l 561 638 q 766 570 689 613 q 878 467 844 527 q 913 324 913 406 q 854 144 913 220 q 686 27 795 68 q 428 -14 576 -14 m 489 -322 q 348 -289 393 -322 q 303 -197 303 -256 q 348 -106 303 -139 q 489 -72 393 -72 q 630 -106 585 -72 q 675 -197 675 -139 q 630 -289 675 -256 q 489 -322 585 -322 z "},"Ṩ":{"ha":957,"x_min":44,"x_max":913,"o":"m 428 -14 q 74 35 238 -14 l 74 290 q 246 252 144 267 q 431 238 348 238 q 528 246 493 238 q 576 269 563 254 q 589 307 589 284 q 580 338 589 326 q 546 359 571 350 q 474 378 522 369 l 374 397 q 183 461 256 420 q 78 563 111 502 q 44 708 44 624 q 175 956 44 871 q 563 1042 305 1042 q 853 1010 722 1042 l 853 754 q 723 780 799 770 q 572 790 647 790 q 413 772 458 790 q 368 719 368 753 q 376 692 368 703 q 403 673 383 681 q 461 657 423 665 l 561 638 q 766 570 689 613 q 878 467 844 527 q 913 324 913 406 q 854 144 913 220 q 686 27 795 68 q 428 -14 576 -14 m 489 -322 q 348 -289 393 -322 q 303 -197 303 -256 q 348 -106 303 -139 q 489 -72 393 -72 q 630 -106 585 -72 q 675 -197 675 -139 q 630 -289 675 -256 q 489 -322 585 -322 m 489 1090 q 348 1124 393 1090 q 303 1215 303 1157 q 348 1307 303 1274 q 489 1340 393 1340 q 630 1307 585 1340 q 675 1215 675 1274 q 630 1124 675 1157 q 489 1090 585 1090 z "},"ẞ":{"ha":1490,"x_min":90,"x_max":1446,"o":"m 1111 638 q 1307 569 1233 613 q 1413 466 1381 526 q 1446 324 1446 406 q 1390 144 1446 220 q 1227 27 1333 68 q 976 -14 1122 -14 q 647 31 806 -14 l 647 286 q 809 251 713 265 q 974 238 906 238 q 1068 246 1035 238 q 1115 269 1102 254 q 1128 307 1128 284 q 1119 338 1128 326 q 1090 360 1111 351 q 1028 378 1069 369 l 933 397 q 752 462 821 421 q 651 564 683 503 q 619 708 619 624 q 627 783 619 747 q 575 789 602 789 q 460 746 499 789 q 421 626 421 703 l 421 0 l 90 0 l 90 588 q 211 922 90 802 q 575 1042 332 1042 q 818 995 708 1042 q 1119 1042 937 1042 q 1264 1034 1194 1042 q 1389 1013 1334 1026 l 1389 757 q 1268 781 1339 772 q 1135 790 1197 790 q 980 772 1023 790 q 938 719 938 753 q 954 680 938 694 q 1017 657 971 666 l 1111 638 z "},"Ə":{"ha":1290,"x_min":51,"x_max":1232,"o":"m 490 1042 q 1049 908 865 1042 q 1232 500 1232 775 q 1163 229 1232 345 q 964 50 1094 113 q 651 -14 833 -14 q 331 50 466 -14 q 124 233 196 114 q 51 514 51 351 l 51 606 l 894 606 q 753 745 858 703 q 467 788 647 788 q 299 780 387 788 q 136 757 212 772 l 136 1013 q 311 1034 219 1027 q 490 1042 402 1042 m 656 225 q 819 261 759 225 q 899 382 878 298 l 397 382 q 481 262 419 299 q 656 225 544 225 z "},"T":{"ha":1064,"x_min":15,"x_max":1049,"o":"m 367 0 l 367 772 l 15 772 l 15 1028 l 1049 1028 l 1049 772 l 697 772 l 697 0 l 367 0 z "},"Ŧ":{"ha":1064,"x_min":15,"x_max":1049,"o":"m 1049 772 l 697 772 l 697 583 l 924 583 l 924 389 l 697 389 l 697 0 l 367 0 l 367 389 l 140 389 l 140 583 l 367 583 l 367 772 l 15 772 l 15 1028 l 1049 1028 l 1049 772 z "},"Ť":{"ha":1064,"x_min":15,"x_max":1049,"o":"m 367 0 l 367 772 l 15 772 l 15 1028 l 1049 1028 l 1049 772 l 697 772 l 697 0 l 367 0 m 643 1321 l 896 1321 l 665 1101 l 399 1101 l 168 1321 l 421 1321 l 532 1213 l 643 1321 z "},"Ţ":{"ha":1064,"x_min":15,"x_max":1049,"o":"m 583 0 l 583 -50 q 687 -94 653 -60 q 721 -181 721 -128 q 665 -283 721 -246 q 500 -319 608 -319 q 342 -297 417 -319 l 342 -190 q 412 -206 374 -201 q 485 -211 450 -211 q 545 -202 526 -211 q 565 -171 565 -192 q 546 -138 565 -148 q 486 -128 526 -128 l 443 -128 l 443 0 l 367 0 l 367 772 l 15 772 l 15 1028 l 1049 1028 l 1049 772 l 697 772 l 697 0 l 583 0 z "},"Ț":{"ha":1064,"x_min":15,"x_max":1049,"o":"m 367 0 l 367 772 l 15 772 l 15 1028 l 1049 1028 l 1049 772 l 697 772 l 697 0 l 367 0 m 532 -72 q 704 -196 704 -72 q 686 -284 704 -239 q 638 -361 667 -330 l 443 -361 q 488 -258 477 -303 q 390 -230 419 -253 q 360 -167 360 -206 q 401 -96 360 -120 q 532 -72 443 -72 z "},"Ṭ":{"ha":1064,"x_min":15,"x_max":1049,"o":"m 367 0 l 367 772 l 15 772 l 15 1028 l 1049 1028 l 1049 772 l 697 772 l 697 0 l 367 0 m 532 -322 q 391 -289 436 -322 q 346 -197 346 -256 q 391 -106 346 -139 q 532 -72 436 -72 q 673 -106 628 -72 q 718 -197 718 -139 q 673 -289 718 -256 q 532 -322 628 -322 z "},"Ṯ":{"ha":1064,"x_min":15,"x_max":1049,"o":"m 367 0 l 367 772 l 15 772 l 15 1028 l 1049 1028 l 1049 772 l 697 772 l 697 0 l 367 0 m 224 -276 l 224 -103 l 840 -103 l 840 -276 l 224 -276 z "},"U":{"ha":1219,"x_min":86,"x_max":1133,"o":"m 613 -14 q 213 113 339 -14 q 86 482 86 240 l 86 1028 l 417 1028 l 417 456 q 465 298 417 349 q 613 247 514 247 q 760 298 711 247 q 808 456 808 349 l 808 1028 l 1133 1028 l 1133 482 q 1008 114 1133 241 q 613 -14 882 -14 z "},"Ú":{"ha":1219,"x_min":86,"x_max":1133,"o":"m 613 -14 q 213 113 339 -14 q 86 482 86 240 l 86 1028 l 417 1028 l 417 456 q 465 298 417 349 q 613 247 514 247 q 760 298 711 247 q 808 456 808 349 l 808 1028 l 1133 1028 l 1133 482 q 1008 114 1133 241 q 613 -14 882 -14 m 464 1101 l 606 1321 l 944 1321 l 756 1101 l 464 1101 z "},"Ŭ":{"ha":1219,"x_min":86,"x_max":1133,"o":"m 613 -14 q 213 113 339 -14 q 86 482 86 240 l 86 1028 l 417 1028 l 417 456 q 465 298 417 349 q 613 247 514 247 q 760 298 711 247 q 808 456 808 349 l 808 1028 l 1133 1028 l 1133 482 q 1008 114 1133 241 q 613 -14 882 -14 m 613 1101 q 376 1162 459 1101 q 276 1321 293 1222 l 467 1321 q 514 1266 478 1286 q 613 1246 549 1246 q 711 1266 676 1246 q 758 1321 747 1286 l 949 1321 q 849 1162 932 1222 q 613 1101 766 1101 z "},"Û":{"ha":1219,"x_min":86,"x_max":1133,"o":"m 613 -14 q 213 113 339 -14 q 86 482 86 240 l 86 1028 l 417 1028 l 417 456 q 465 298 417 349 q 613 247 514 247 q 760 298 711 247 q 808 456 808 349 l 808 1028 l 1133 1028 l 1133 482 q 1008 114 1133 241 q 613 -14 882 -14 m 976 1101 l 724 1101 l 613 1209 l 501 1101 l 249 1101 l 479 1321 l 746 1321 l 976 1101 z "},"Ȕ":{"ha":1219,"x_min":86,"x_max":1133,"o":"m 613 -14 q 213 113 339 -14 q 86 482 86 240 l 86 1028 l 417 1028 l 417 456 q 465 298 417 349 q 613 247 514 247 q 760 298 711 247 q 808 456 808 349 l 808 1028 l 1133 1028 l 1133 482 q 1008 114 1133 241 q 613 -14 882 -14 m 336 1101 l 206 1321 l 447 1321 l 561 1101 l 336 1101 m 664 1101 l 533 1321 l 775 1321 l 889 1101 l 664 1101 z "},"Ü":{"ha":1219,"x_min":86,"x_max":1133,"o":"m 613 -14 q 213 113 339 -14 q 86 482 86 240 l 86 1028 l 417 1028 l 417 456 q 465 298 417 349 q 613 247 514 247 q 760 298 711 247 q 808 456 808 349 l 808 1028 l 1133 1028 l 1133 482 q 1008 114 1133 241 q 613 -14 882 -14 m 407 1090 q 287 1123 326 1090 q 249 1215 249 1155 q 287 1308 249 1276 q 407 1340 326 1340 q 527 1308 488 1340 q 565 1215 565 1276 q 527 1123 565 1155 q 407 1090 488 1090 m 818 1090 q 698 1123 737 1090 q 660 1215 660 1155 q 698 1308 660 1276 q 818 1340 737 1340 q 938 1308 899 1340 q 976 1215 976 1276 q 938 1123 976 1155 q 818 1090 899 1090 z "},"Ụ":{"ha":1219,"x_min":86,"x_max":1133,"o":"m 613 -14 q 213 113 339 -14 q 86 482 86 240 l 86 1028 l 417 1028 l 417 456 q 465 298 417 349 q 613 247 514 247 q 760 298 711 247 q 808 456 808 349 l 808 1028 l 1133 1028 l 1133 482 q 1008 114 1133 241 q 613 -14 882 -14 m 613 -322 q 472 -289 517 -322 q 426 -197 426 -256 q 472 -106 426 -139 q 613 -72 517 -72 q 753 -106 708 -72 q 799 -197 799 -139 q 753 -289 799 -256 q 613 -322 708 -322 z "},"Ù":{"ha":1219,"x_min":86,"x_max":1133,"o":"m 613 -14 q 213 113 339 -14 q 86 482 86 240 l 86 1028 l 417 1028 l 417 456 q 465 298 417 349 q 613 247 514 247 q 760 298 711 247 q 808 456 808 349 l 808 1028 l 1133 1028 l 1133 482 q 1008 114 1133 241 q 613 -14 882 -14 m 467 1101 l 278 1321 l 617 1321 l 758 1101 l 467 1101 z "},"Ủ":{"ha":1219,"x_min":86,"x_max":1133,"o":"m 613 -14 q 213 113 339 -14 q 86 482 86 240 l 86 1028 l 417 1028 l 417 456 q 465 298 417 349 q 613 247 514 247 q 760 298 711 247 q 808 456 808 349 l 808 1028 l 1133 1028 l 1133 482 q 1008 114 1133 241 q 613 -14 882 -14 m 538 1101 q 561 1147 540 1130 q 619 1180 583 1163 q 655 1199 644 1192 q 665 1215 665 1206 q 645 1230 665 1226 q 585 1235 625 1235 q 442 1221 513 1235 l 442 1325 q 523 1336 476 1332 q 608 1340 569 1340 q 821 1238 821 1340 q 808 1195 821 1213 q 778 1165 795 1177 q 734 1139 761 1153 q 700 1119 712 1127 q 688 1101 689 1111 l 538 1101 z "},"Ư":{"ha":1219,"x_min":86,"x_max":1260,"o":"m 613 -14 q 213 113 339 -14 q 86 482 86 240 l 86 1028 l 417 1028 l 417 456 q 465 298 417 349 q 613 247 514 247 q 760 298 711 247 q 808 456 808 349 l 808 1028 l 903 1028 q 1018 1052 982 1028 q 1054 1136 1054 1076 q 1046 1233 1054 1178 l 1247 1233 q 1257 1178 1255 1203 q 1260 1128 1260 1154 q 1227 991 1260 1046 q 1133 911 1194 937 l 1133 482 q 1008 114 1133 241 q 613 -14 882 -14 z "},"Ứ":{"ha":1219,"x_min":86,"x_max":1260,"o":"m 613 -14 q 213 113 339 -14 q 86 482 86 240 l 86 1028 l 417 1028 l 417 456 q 465 298 417 349 q 613 247 514 247 q 760 298 711 247 q 808 456 808 349 l 808 1028 l 903 1028 q 1018 1052 982 1028 q 1054 1136 1054 1076 q 1046 1233 1054 1178 l 1247 1233 q 1257 1178 1255 1203 q 1260 1128 1260 1154 q 1227 991 1260 1046 q 1133 911 1194 937 l 1133 482 q 1008 114 1133 241 q 613 -14 882 -14 m 461 1101 l 603 1321 l 942 1321 l 753 1101 l 461 1101 z "},"Ự":{"ha":1219,"x_min":86,"x_max":1260,"o":"m 613 -14 q 213 113 339 -14 q 86 482 86 240 l 86 1028 l 417 1028 l 417 456 q 465 298 417 349 q 613 247 514 247 q 760 298 711 247 q 808 456 808 349 l 808 1028 l 903 1028 q 1018 1052 982 1028 q 1054 1136 1054 1076 q 1046 1233 1054 1178 l 1247 1233 q 1257 1178 1255 1203 q 1260 1128 1260 1154 q 1227 991 1260 1046 q 1133 911 1194 937 l 1133 482 q 1008 114 1133 241 q 613 -14 882 -14 m 610 -322 q 469 -289 514 -322 q 424 -197 424 -256 q 469 -106 424 -139 q 610 -72 514 -72 q 751 -106 706 -72 q 796 -197 796 -139 q 751 -289 796 -256 q 610 -322 706 -322 z "},"Ừ":{"ha":1219,"x_min":86,"x_max":1260,"o":"m 613 -14 q 213 113 339 -14 q 86 482 86 240 l 86 1028 l 417 1028 l 417 456 q 465 298 417 349 q 613 247 514 247 q 760 298 711 247 q 808 456 808 349 l 808 1028 l 903 1028 q 1018 1052 982 1028 q 1054 1136 1054 1076 q 1046 1233 1054 1178 l 1247 1233 q 1257 1178 1255 1203 q 1260 1128 1260 1154 q 1227 991 1260 1046 q 1133 911 1194 937 l 1133 482 q 1008 114 1133 241 q 613 -14 882 -14 m 464 1101 l 275 1321 l 614 1321 l 756 1101 l 464 1101 z "},"Ử":{"ha":1219,"x_min":86,"x_max":1260,"o":"m 613 -14 q 213 113 339 -14 q 86 482 86 240 l 86 1028 l 417 1028 l 417 456 q 465 298 417 349 q 613 247 514 247 q 760 298 711 247 q 808 456 808 349 l 808 1028 l 903 1028 q 1018 1052 982 1028 q 1054 1136 1054 1076 q 1046 1233 1054 1178 l 1247 1233 q 1257 1178 1255 1203 q 1260 1128 1260 1154 q 1227 991 1260 1046 q 1133 911 1194 937 l 1133 482 q 1008 114 1133 241 q 613 -14 882 -14 m 535 1101 q 558 1147 537 1130 q 617 1180 580 1163 q 652 1199 642 1192 q 663 1215 663 1206 q 642 1230 663 1226 q 582 1235 622 1235 q 439 1221 510 1235 l 439 1325 q 520 1336 474 1332 q 606 1340 566 1340 q 818 1238 818 1340 q 805 1195 818 1213 q 775 1165 792 1177 q 731 1139 758 1153 q 698 1119 709 1127 q 685 1101 686 1111 l 535 1101 z "},"Ữ":{"ha":1219,"x_min":86,"x_max":1260,"o":"m 613 -14 q 213 113 339 -14 q 86 482 86 240 l 86 1028 l 417 1028 l 417 456 q 465 298 417 349 q 613 247 514 247 q 760 298 711 247 q 808 456 808 349 l 808 1028 l 903 1028 q 1018 1052 982 1028 q 1054 1136 1054 1076 q 1046 1233 1054 1178 l 1247 1233 q 1257 1178 1255 1203 q 1260 1128 1260 1154 q 1227 991 1260 1046 q 1133 911 1194 937 l 1133 482 q 1008 114 1133 241 q 613 -14 882 -14 m 747 1101 q 678 1108 710 1101 q 598 1127 646 1114 q 526 1145 556 1139 q 464 1151 497 1151 q 379 1141 416 1151 q 301 1107 342 1131 l 301 1268 q 376 1308 336 1296 q 472 1321 417 1321 q 543 1314 510 1321 q 622 1294 576 1308 q 694 1276 665 1282 q 756 1269 723 1269 q 840 1280 803 1269 q 918 1314 877 1290 l 918 1153 q 843 1114 883 1126 q 747 1101 803 1101 z "},"Ű":{"ha":1219,"x_min":86,"x_max":1133,"o":"m 613 -14 q 213 113 339 -14 q 86 482 86 240 l 86 1028 l 417 1028 l 417 456 q 465 298 417 349 q 613 247 514 247 q 760 298 711 247 q 808 456 808 349 l 808 1028 l 1133 1028 l 1133 482 q 1008 114 1133 241 q 613 -14 882 -14 m 336 1101 l 450 1321 l 692 1321 l 561 1101 l 336 1101 m 664 1101 l 778 1321 l 1019 1321 l 889 1101 l 664 1101 z "},"Ȗ":{"ha":1219,"x_min":86,"x_max":1133,"o":"m 613 -14 q 213 113 339 -14 q 86 482 86 240 l 86 1028 l 417 1028 l 417 456 q 465 298 417 349 q 613 247 514 247 q 760 298 711 247 q 808 456 808 349 l 808 1028 l 1133 1028 l 1133 482 q 1008 114 1133 241 q 613 -14 882 -14 m 276 1101 q 376 1260 293 1200 q 613 1321 459 1321 q 849 1260 766 1321 q 949 1101 932 1200 l 758 1101 q 711 1156 747 1136 q 613 1176 676 1176 q 514 1156 549 1176 q 467 1101 478 1136 l 276 1101 z "},"Ū":{"ha":1219,"x_min":86,"x_max":1133,"o":"m 613 -14 q 213 113 339 -14 q 86 482 86 240 l 86 1028 l 417 1028 l 417 456 q 465 298 417 349 q 613 247 514 247 q 760 298 711 247 q 808 456 808 349 l 808 1028 l 1133 1028 l 1133 482 q 1008 114 1133 241 q 613 -14 882 -14 m 304 1125 l 304 1299 l 921 1299 l 921 1125 l 304 1125 z "},"Ṻ":{"ha":1219,"x_min":86,"x_max":1133,"o":"m 613 -14 q 213 113 339 -14 q 86 482 86 240 l 86 1028 l 417 1028 l 417 456 q 465 298 417 349 q 613 247 514 247 q 760 298 711 247 q 808 456 808 349 l 808 1028 l 1133 1028 l 1133 482 q 1008 114 1133 241 q 613 -14 882 -14 m 304 1125 l 304 1299 l 921 1299 l 921 1125 l 304 1125 m 407 1368 q 287 1400 326 1368 q 249 1493 249 1433 q 287 1586 249 1553 q 407 1618 326 1618 q 527 1586 488 1618 q 565 1493 565 1553 q 527 1400 565 1433 q 407 1368 488 1368 m 818 1368 q 698 1400 737 1368 q 660 1493 660 1433 q 698 1586 660 1553 q 818 1618 737 1618 q 938 1586 899 1618 q 976 1493 976 1553 q 938 1400 976 1433 q 818 1368 899 1368 z "},"Ų":{"ha":1219,"x_min":86,"x_max":1133,"o":"m 1133 1028 l 1133 482 q 1061 180 1133 298 q 836 15 989 62 q 705 -35 752 -10 q 640 -83 658 -59 q 621 -136 621 -108 q 646 -186 621 -169 q 724 -204 671 -204 q 815 -187 763 -204 l 815 -299 q 674 -319 748 -319 q 501 -277 559 -319 q 443 -162 443 -235 q 535 -11 443 -69 q 194 132 302 7 q 86 482 86 258 l 86 1028 l 417 1028 l 417 456 q 465 298 417 349 q 613 247 514 247 q 760 298 711 247 q 808 456 808 349 l 808 1028 l 1133 1028 z "},"Ů":{"ha":1219,"x_min":86,"x_max":1133,"o":"m 613 -14 q 213 113 339 -14 q 86 482 86 240 l 86 1028 l 417 1028 l 417 456 q 465 298 417 349 q 613 247 514 247 q 760 298 711 247 q 808 456 808 349 l 808 1028 l 1133 1028 l 1133 482 q 1008 114 1133 241 q 613 -14 882 -14 m 613 1090 q 531 1110 567 1090 q 475 1165 495 1130 q 454 1243 454 1199 q 475 1322 454 1287 q 531 1376 495 1356 q 613 1396 567 1396 q 694 1376 658 1396 q 750 1322 730 1356 q 771 1243 771 1287 q 750 1165 771 1199 q 694 1110 730 1130 q 613 1090 658 1090 m 613 1186 q 652 1202 637 1186 q 667 1243 667 1217 q 652 1284 667 1269 q 613 1300 637 1300 q 573 1284 588 1300 q 558 1243 558 1269 q 573 1202 558 1217 q 613 1186 588 1186 z "},"Ũ":{"ha":1219,"x_min":86,"x_max":1133,"o":"m 613 -14 q 213 113 339 -14 q 86 482 86 240 l 86 1028 l 417 1028 l 417 456 q 465 298 417 349 q 613 247 514 247 q 760 298 711 247 q 808 456 808 349 l 808 1028 l 1133 1028 l 1133 482 q 1008 114 1133 241 q 613 -14 882 -14 m 750 1101 q 681 1108 713 1101 q 601 1127 649 1114 q 529 1145 559 1139 q 467 1151 499 1151 q 382 1141 419 1151 q 304 1107 345 1131 l 304 1268 q 379 1308 339 1296 q 475 1321 419 1321 q 546 1314 513 1321 q 624 1294 579 1308 q 697 1276 668 1282 q 758 1269 726 1269 q 843 1280 806 1269 q 921 1314 880 1290 l 921 1153 q 846 1114 886 1126 q 750 1101 806 1101 z "},"Ṹ":{"ha":1219,"x_min":86,"x_max":1133,"o":"m 613 -14 q 213 113 339 -14 q 86 482 86 240 l 86 1028 l 417 1028 l 417 456 q 465 298 417 349 q 613 247 514 247 q 760 298 711 247 q 808 456 808 349 l 808 1028 l 1133 1028 l 1133 482 q 1008 114 1133 241 q 613 -14 882 -14 m 446 1379 l 588 1540 l 968 1540 l 779 1379 l 446 1379 m 750 1101 q 681 1108 713 1101 q 601 1127 649 1114 q 529 1145 559 1139 q 467 1151 499 1151 q 382 1141 419 1151 q 304 1107 345 1131 l 304 1268 q 379 1308 339 1296 q 475 1321 419 1321 q 546 1314 513 1321 q 624 1294 579 1308 q 697 1276 668 1282 q 758 1269 726 1269 q 843 1280 806 1269 q 921 1314 880 1290 l 921 1153 q 846 1114 886 1126 q 750 1101 806 1101 z "},"V":{"ha":1208,"x_min":4,"x_max":1204,"o":"m 879 1028 l 1204 1028 l 843 0 l 365 0 l 4 1028 l 353 1028 l 613 251 l 879 1028 z "},"W":{"ha":1908,"x_min":17,"x_max":1892,"o":"m 1578 1028 l 1892 1028 l 1585 0 l 1168 0 l 958 709 l 740 0 l 324 0 l 17 1028 l 350 1028 l 556 290 l 782 1028 l 1143 1028 l 1363 274 l 1578 1028 z "},"Ẃ":{"ha":1908,"x_min":17,"x_max":1892,"o":"m 1578 1028 l 1892 1028 l 1585 0 l 1168 0 l 958 709 l 740 0 l 324 0 l 17 1028 l 350 1028 l 556 290 l 782 1028 l 1143 1028 l 1363 274 l 1578 1028 m 806 1101 l 947 1321 l 1286 1321 l 1097 1101 l 806 1101 z "},"Ŵ":{"ha":1908,"x_min":17,"x_max":1892,"o":"m 1578 1028 l 1892 1028 l 1585 0 l 1168 0 l 958 709 l 740 0 l 324 0 l 17 1028 l 350 1028 l 556 290 l 782 1028 l 1143 1028 l 1363 274 l 1578 1028 m 1318 1101 l 1065 1101 l 954 1209 l 843 1101 l 590 1101 l 821 1321 l 1088 1321 l 1318 1101 z "},"Ẅ":{"ha":1908,"x_min":17,"x_max":1892,"o":"m 1578 1028 l 1892 1028 l 1585 0 l 1168 0 l 958 709 l 740 0 l 324 0 l 17 1028 l 350 1028 l 556 290 l 782 1028 l 1143 1028 l 1363 274 l 1578 1028 m 749 1090 q 629 1123 667 1090 q 590 1215 590 1155 q 629 1308 590 1276 q 749 1340 667 1340 q 868 1308 830 1340 q 907 1215 907 1276 q 868 1123 907 1155 q 749 1090 830 1090 m 1160 1090 q 1040 1123 1078 1090 q 1001 1215 1001 1155 q 1040 1308 1001 1276 q 1160 1340 1078 1340 q 1280 1308 1241 1340 q 1318 1215 1318 1276 q 1280 1123 1318 1155 q 1160 1090 1241 1090 z "},"Ẁ":{"ha":1908,"x_min":17,"x_max":1892,"o":"m 1578 1028 l 1892 1028 l 1585 0 l 1168 0 l 958 709 l 740 0 l 324 0 l 17 1028 l 350 1028 l 556 290 l 782 1028 l 1143 1028 l 1363 274 l 1578 1028 m 808 1101 l 619 1321 l 958 1321 l 1100 1101 l 808 1101 z "},"X":{"ha":1106,"x_min":-47,"x_max":1154,"o":"m 744 543 l 1154 0 l 788 0 l 547 326 l 308 0 l -47 0 l 357 538 l -15 1028 l 351 1028 l 554 754 l 756 1028 l 1110 1028 l 744 543 z "},"Y":{"ha":1064,"x_min":-42,"x_max":1092,"o":"m 1092 1028 l 700 422 l 700 0 l 369 0 l 369 418 l -42 1028 l 307 1028 l 540 676 l 767 1028 l 1092 1028 z "},"Ý":{"ha":1064,"x_min":-42,"x_max":1092,"o":"m 1092 1028 l 700 422 l 700 0 l 369 0 l 369 418 l -42 1028 l 307 1028 l 540 676 l 767 1028 l 1092 1028 m 382 1101 l 524 1321 l 863 1321 l 674 1101 l 382 1101 z "},"Ŷ":{"ha":1064,"x_min":-42,"x_max":1092,"o":"m 1092 1028 l 700 422 l 700 0 l 369 0 l 369 418 l -42 1028 l 307 1028 l 540 676 l 767 1028 l 1092 1028 m 894 1101 l 642 1101 l 531 1209 l 419 1101 l 167 1101 l 397 1321 l 664 1321 l 894 1101 z "},"Ÿ":{"ha":1064,"x_min":-42,"x_max":1092,"o":"m 1092 1028 l 700 422 l 700 0 l 369 0 l 369 418 l -42 1028 l 307 1028 l 540 676 l 767 1028 l 1092 1028 m 325 1090 q 205 1123 244 1090 q 167 1215 167 1155 q 205 1308 167 1276 q 325 1340 244 1340 q 445 1308 406 1340 q 483 1215 483 1276 q 445 1123 483 1155 q 325 1090 406 1090 m 736 1090 q 616 1123 655 1090 q 578 1215 578 1155 q 616 1308 578 1276 q 736 1340 655 1340 q 856 1308 817 1340 q 894 1215 894 1276 q 856 1123 894 1155 q 736 1090 817 1090 z "},"Ẏ":{"ha":1064,"x_min":-42,"x_max":1092,"o":"m 1092 1028 l 700 422 l 700 0 l 369 0 l 369 418 l -42 1028 l 307 1028 l 540 676 l 767 1028 l 1092 1028 m 531 1090 q 390 1124 435 1090 q 344 1215 344 1157 q 390 1307 344 1274 q 531 1340 435 1340 q 672 1307 626 1340 q 717 1215 717 1274 q 672 1124 717 1157 q 531 1090 626 1090 z "},"Ỵ":{"ha":1064,"x_min":-42,"x_max":1092,"o":"m 1092 1028 l 700 422 l 700 0 l 369 0 l 369 418 l -42 1028 l 307 1028 l 540 676 l 767 1028 l 1092 1028 m 531 -322 q 390 -289 435 -322 q 344 -197 344 -256 q 390 -106 344 -139 q 531 -72 435 -72 q 672 -106 626 -72 q 717 -197 717 -139 q 672 -289 717 -256 q 531 -322 626 -322 z "},"Ỳ":{"ha":1064,"x_min":-42,"x_max":1092,"o":"m 1092 1028 l 700 422 l 700 0 l 369 0 l 369 418 l -42 1028 l 307 1028 l 540 676 l 767 1028 l 1092 1028 m 385 1101 l 196 1321 l 535 1321 l 676 1101 l 385 1101 z "},"Ỷ":{"ha":1064,"x_min":-42,"x_max":1092,"o":"m 1092 1028 l 700 422 l 700 0 l 369 0 l 369 418 l -42 1028 l 307 1028 l 540 676 l 767 1028 l 1092 1028 m 456 1101 q 479 1147 458 1130 q 538 1180 501 1163 q 573 1199 563 1192 q 583 1215 583 1206 q 563 1230 583 1226 q 503 1235 543 1235 q 360 1221 431 1235 l 360 1325 q 441 1336 394 1332 q 526 1340 487 1340 q 739 1238 739 1340 q 726 1195 739 1213 q 696 1165 713 1177 q 652 1139 679 1153 q 618 1119 630 1127 q 606 1101 607 1111 l 456 1101 z "},"Ȳ":{"ha":1064,"x_min":-42,"x_max":1092,"o":"m 1092 1028 l 700 422 l 700 0 l 369 0 l 369 418 l -42 1028 l 307 1028 l 540 676 l 767 1028 l 1092 1028 m 222 1125 l 222 1299 l 839 1299 l 839 1125 l 222 1125 z "},"Ỹ":{"ha":1064,"x_min":-42,"x_max":1092,"o":"m 1092 1028 l 700 422 l 700 0 l 369 0 l 369 418 l -42 1028 l 307 1028 l 540 676 l 767 1028 l 1092 1028 m 668 1101 q 599 1108 631 1101 q 519 1127 567 1114 q 447 1145 477 1139 q 385 1151 417 1151 q 300 1141 337 1151 q 222 1107 263 1131 l 222 1268 q 297 1308 257 1296 q 393 1321 338 1321 q 464 1314 431 1321 q 542 1294 497 1308 q 615 1276 586 1282 q 676 1269 644 1269 q 761 1280 724 1269 q 839 1314 798 1290 l 839 1153 q 764 1114 804 1126 q 668 1101 724 1101 z "},"Z":{"ha":1029,"x_min":58,"x_max":971,"o":"m 485 256 l 971 256 l 971 0 l 58 0 l 58 176 l 537 772 l 65 772 l 65 1028 l 964 1028 l 964 851 l 485 256 z "},"Ź":{"ha":1029,"x_min":58,"x_max":971,"o":"m 485 256 l 971 256 l 971 0 l 58 0 l 58 176 l 537 772 l 65 772 l 65 1028 l 964 1028 l 964 851 l 485 256 m 367 1101 l 508 1321 l 847 1321 l 658 1101 l 367 1101 z "},"Ž":{"ha":1029,"x_min":58,"x_max":971,"o":"m 485 256 l 971 256 l 971 0 l 58 0 l 58 176 l 537 772 l 65 772 l 65 1028 l 964 1028 l 964 851 l 485 256 m 626 1321 l 879 1321 l 649 1101 l 382 1101 l 151 1321 l 404 1321 l 515 1213 l 626 1321 z "},"Ż":{"ha":1029,"x_min":58,"x_max":971,"o":"m 485 256 l 971 256 l 971 0 l 58 0 l 58 176 l 537 772 l 65 772 l 65 1028 l 964 1028 l 964 851 l 485 256 m 515 1090 q 374 1124 419 1090 q 329 1215 329 1157 q 374 1307 329 1274 q 515 1340 419 1340 q 656 1307 611 1340 q 701 1215 701 1274 q 656 1124 701 1157 q 515 1090 611 1090 z "},"Ẓ":{"ha":1029,"x_min":58,"x_max":971,"o":"m 485 256 l 971 256 l 971 0 l 58 0 l 58 176 l 537 772 l 65 772 l 65 1028 l 964 1028 l 964 851 l 485 256 m 515 -322 q 374 -289 419 -322 q 329 -197 329 -256 q 374 -106 329 -139 q 515 -72 419 -72 q 656 -106 611 -72 q 701 -197 701 -139 q 656 -289 701 -256 q 515 -322 611 -322 z "},"a":{"ha":933,"x_min":40,"x_max":858,"o":"m 414 776 q 672 741 576 776 q 814 623 769 706 q 858 399 858 541 l 858 0 l 592 0 l 571 63 l 557 63 q 339 -15 481 -15 q 175 15 242 -15 q 74 98 108 45 q 40 217 40 150 q 134 393 40 331 q 425 465 228 456 l 538 471 q 485 531 527 513 q 356 549 443 549 q 239 540 304 549 q 119 517 174 532 l 119 740 q 266 767 187 758 q 414 776 345 776 m 444 189 q 543 208 504 189 l 543 308 l 457 304 q 381 286 404 301 q 358 243 358 270 q 380 203 358 218 q 444 189 402 189 z "},"á":{"ha":933,"x_min":40,"x_max":858,"o":"m 414 776 q 672 741 576 776 q 814 623 769 706 q 858 399 858 541 l 858 0 l 592 0 l 571 63 l 557 63 q 339 -15 481 -15 q 175 15 242 -15 q 74 98 108 45 q 40 217 40 150 q 134 393 40 331 q 425 465 228 456 l 538 471 q 485 531 527 513 q 356 549 443 549 q 239 540 304 549 q 119 517 174 532 l 119 740 q 266 767 187 758 q 414 776 345 776 m 444 189 q 543 208 504 189 l 543 308 l 457 304 q 381 286 404 301 q 358 243 358 270 q 380 203 358 218 q 444 189 402 189 m 311 847 l 490 1122 l 843 1122 l 617 847 l 311 847 z "},"ă":{"ha":933,"x_min":40,"x_max":858,"o":"m 414 776 q 672 741 576 776 q 814 623 769 706 q 858 399 858 541 l 858 0 l 592 0 l 571 63 l 557 63 q 339 -15 481 -15 q 175 15 242 -15 q 74 98 108 45 q 40 217 40 150 q 134 393 40 331 q 425 465 228 456 l 538 471 q 485 531 527 513 q 356 549 443 549 q 239 540 304 549 q 119 517 174 532 l 119 740 q 266 767 187 758 q 414 776 345 776 m 444 189 q 543 208 504 189 l 543 308 l 457 304 q 381 286 404 301 q 358 243 358 270 q 380 203 358 218 q 444 189 402 189 m 464 850 q 234 918 315 850 q 144 1108 152 986 l 332 1108 q 370 1028 338 1056 q 464 1001 402 1001 q 558 1028 526 1001 q 596 1108 590 1056 l 783 1108 q 694 918 776 986 q 464 850 613 850 z "},"ắ":{"ha":933,"x_min":40,"x_max":858,"o":"m 414 776 q 672 741 576 776 q 814 623 769 706 q 858 399 858 541 l 858 0 l 592 0 l 571 63 l 557 63 q 339 -15 481 -15 q 175 15 242 -15 q 74 98 108 45 q 40 217 40 150 q 134 393 40 331 q 425 465 228 456 l 538 471 q 485 531 527 513 q 356 549 443 549 q 239 540 304 549 q 119 517 174 532 l 119 740 q 266 767 187 758 q 414 776 345 776 m 444 189 q 543 208 504 189 l 543 308 l 457 304 q 381 286 404 301 q 358 243 358 270 q 380 203 358 218 q 444 189 402 189 m 350 1110 l 492 1297 l 761 1297 l 572 1110 l 350 1110 m 464 856 q 227 916 310 856 q 128 1075 144 976 l 318 1075 q 365 1020 329 1040 q 464 1000 401 1000 q 563 1020 527 1000 q 610 1075 599 1040 l 800 1075 q 700 916 783 976 q 464 856 617 856 z "},"ặ":{"ha":933,"x_min":40,"x_max":858,"o":"m 414 776 q 672 741 576 776 q 814 623 769 706 q 858 399 858 541 l 858 0 l 592 0 l 571 63 l 557 63 q 339 -15 481 -15 q 175 15 242 -15 q 74 98 108 45 q 40 217 40 150 q 134 393 40 331 q 425 465 228 456 l 538 471 q 485 531 527 513 q 356 549 443 549 q 239 540 304 549 q 119 517 174 532 l 119 740 q 266 767 187 758 q 414 776 345 776 m 444 189 q 543 208 504 189 l 543 308 l 457 304 q 381 286 404 301 q 358 243 358 270 q 380 203 358 218 q 444 189 402 189 m 464 -347 q 342 -311 382 -347 q 301 -210 301 -274 q 342 -109 301 -145 q 464 -72 382 -72 q 586 -109 546 -72 q 626 -210 626 -145 q 586 -311 626 -274 q 464 -347 546 -347 m 464 850 q 234 918 315 850 q 144 1108 152 986 l 332 1108 q 370 1028 338 1056 q 464 1001 402 1001 q 558 1028 526 1001 q 596 1108 590 1056 l 783 1108 q 694 918 776 986 q 464 850 613 850 z "},"ằ":{"ha":933,"x_min":40,"x_max":858,"o":"m 414 776 q 672 741 576 776 q 814 623 769 706 q 858 399 858 541 l 858 0 l 592 0 l 571 63 l 557 63 q 339 -15 481 -15 q 175 15 242 -15 q 74 98 108 45 q 40 217 40 150 q 134 393 40 331 q 425 465 228 456 l 538 471 q 485 531 527 513 q 356 549 443 549 q 239 540 304 549 q 119 517 174 532 l 119 740 q 266 767 187 758 q 414 776 345 776 m 444 189 q 543 208 504 189 l 543 308 l 457 304 q 381 286 404 301 q 358 243 358 270 q 380 203 358 218 q 444 189 402 189 m 356 1110 l 167 1297 l 436 1297 l 578 1110 l 356 1110 m 464 856 q 227 916 310 856 q 128 1075 144 976 l 318 1075 q 365 1020 329 1040 q 464 1000 401 1000 q 563 1020 527 1000 q 610 1075 599 1040 l 800 1075 q 700 916 783 976 q 464 856 617 856 z "},"ẳ":{"ha":933,"x_min":40,"x_max":858,"o":"m 414 776 q 672 741 576 776 q 814 623 769 706 q 858 399 858 541 l 858 0 l 592 0 l 571 63 l 557 63 q 339 -15 481 -15 q 175 15 242 -15 q 74 98 108 45 q 40 217 40 150 q 134 393 40 331 q 425 465 228 456 l 538 471 q 485 531 527 513 q 356 549 443 549 q 239 540 304 549 q 119 517 174 532 l 119 740 q 266 767 187 758 q 414 776 345 776 m 444 189 q 543 208 504 189 l 543 308 l 457 304 q 381 286 404 301 q 358 243 358 270 q 380 203 358 218 q 444 189 402 189 m 389 1110 q 412 1148 391 1134 q 470 1177 433 1163 q 506 1194 495 1188 q 517 1208 517 1200 q 436 1225 517 1225 q 293 1213 366 1225 l 293 1301 q 375 1311 328 1308 q 460 1315 421 1315 q 672 1226 672 1315 q 659 1190 672 1206 q 630 1165 647 1175 q 585 1142 613 1155 q 551 1124 562 1131 q 539 1110 540 1117 l 389 1110 m 464 856 q 227 916 310 856 q 128 1075 144 976 l 318 1075 q 365 1020 329 1040 q 464 1000 401 1000 q 563 1020 527 1000 q 610 1075 599 1040 l 800 1075 q 700 916 783 976 q 464 856 617 856 z "},"ẵ":{"ha":933,"x_min":40,"x_max":858,"o":"m 414 776 q 672 741 576 776 q 814 623 769 706 q 858 399 858 541 l 858 0 l 592 0 l 571 63 l 557 63 q 339 -15 481 -15 q 175 15 242 -15 q 74 98 108 45 q 40 217 40 150 q 134 393 40 331 q 425 465 228 456 l 538 471 q 485 531 527 513 q 356 549 443 549 q 239 540 304 549 q 119 517 174 532 l 119 740 q 266 767 187 758 q 414 776 345 776 m 444 189 q 543 208 504 189 l 543 308 l 457 304 q 381 286 404 301 q 358 243 358 270 q 380 203 358 218 q 444 189 402 189 m 614 1108 q 536 1114 572 1108 q 451 1131 499 1119 q 372 1146 403 1141 q 306 1151 341 1151 q 213 1142 253 1151 q 128 1113 172 1133 l 128 1251 q 209 1286 165 1276 q 314 1297 253 1297 q 390 1291 355 1297 q 476 1274 426 1285 q 555 1258 522 1264 q 622 1253 587 1253 q 715 1262 675 1253 q 800 1292 756 1271 l 800 1153 q 719 1119 763 1129 q 614 1108 676 1108 m 464 856 q 227 916 310 856 q 128 1075 144 976 l 318 1075 q 365 1020 329 1040 q 464 1000 401 1000 q 563 1020 527 1000 q 610 1075 599 1040 l 800 1075 q 700 916 783 976 q 464 856 617 856 z "},"â":{"ha":933,"x_min":40,"x_max":858,"o":"m 414 776 q 672 741 576 776 q 814 623 769 706 q 858 399 858 541 l 858 0 l 592 0 l 571 63 l 557 63 q 339 -15 481 -15 q 175 15 242 -15 q 74 98 108 45 q 40 217 40 150 q 134 393 40 331 q 425 465 228 456 l 538 471 q 485 531 527 513 q 356 549 443 549 q 239 540 304 549 q 119 517 174 532 l 119 740 q 266 767 187 758 q 414 776 345 776 m 444 189 q 543 208 504 189 l 543 308 l 457 304 q 381 286 404 301 q 358 243 358 270 q 380 203 358 218 q 444 189 402 189 m 786 847 l 554 847 l 464 977 l 374 847 l 142 847 l 340 1122 l 588 1122 l 786 847 z "},"ấ":{"ha":933,"x_min":40,"x_max":1049,"o":"m 414 776 q 672 741 576 776 q 814 623 769 706 q 858 399 858 541 l 858 0 l 592 0 l 571 63 l 557 63 q 339 -15 481 -15 q 175 15 242 -15 q 74 98 108 45 q 40 217 40 150 q 134 393 40 331 q 425 465 228 456 l 538 471 q 485 531 527 513 q 356 549 443 549 q 239 540 304 549 q 119 517 174 532 l 119 740 q 266 767 187 758 q 414 776 345 776 m 444 189 q 543 208 504 189 l 543 308 l 457 304 q 381 286 404 301 q 358 243 358 270 q 380 203 358 218 q 444 189 402 189 m 779 1297 l 1049 1297 l 860 1110 l 638 1110 l 779 1297 m 340 1122 l 588 1122 l 786 847 l 554 847 l 464 977 l 374 847 l 142 847 l 340 1122 z "},"ậ":{"ha":933,"x_min":40,"x_max":858,"o":"m 414 776 q 672 741 576 776 q 814 623 769 706 q 858 399 858 541 l 858 0 l 592 0 l 571 63 l 557 63 q 339 -15 481 -15 q 175 15 242 -15 q 74 98 108 45 q 40 217 40 150 q 134 393 40 331 q 425 465 228 456 l 538 471 q 485 531 527 513 q 356 549 443 549 q 239 540 304 549 q 119 517 174 532 l 119 740 q 266 767 187 758 q 414 776 345 776 m 444 189 q 543 208 504 189 l 543 308 l 457 304 q 381 286 404 301 q 358 243 358 270 q 380 203 358 218 q 444 189 402 189 m 464 -347 q 342 -311 382 -347 q 301 -210 301 -274 q 342 -109 301 -145 q 464 -72 382 -72 q 586 -109 546 -72 q 626 -210 626 -145 q 586 -311 626 -274 q 464 -347 546 -347 m 786 847 l 554 847 l 464 977 l 374 847 l 142 847 l 340 1122 l 588 1122 l 786 847 z "},"ầ":{"ha":933,"x_min":40,"x_max":888,"o":"m 414 776 q 672 741 576 776 q 814 623 769 706 q 858 399 858 541 l 858 0 l 592 0 l 571 63 l 557 63 q 339 -15 481 -15 q 175 15 242 -15 q 74 98 108 45 q 40 217 40 150 q 134 393 40 331 q 425 465 228 456 l 538 471 q 485 531 527 513 q 356 549 443 549 q 239 540 304 549 q 119 517 174 532 l 119 740 q 266 767 187 758 q 414 776 345 776 m 444 189 q 543 208 504 189 l 543 308 l 457 304 q 381 286 404 301 q 358 243 358 270 q 380 203 358 218 q 444 189 402 189 m 888 1110 l 665 1110 l 476 1297 l 746 1297 l 888 1110 m 340 1122 l 588 1122 l 786 847 l 554 847 l 464 977 l 374 847 l 142 847 l 340 1122 z "},"ẩ":{"ha":933,"x_min":40,"x_max":883,"o":"m 414 776 q 672 741 576 776 q 814 623 769 706 q 858 399 858 541 l 858 0 l 592 0 l 571 63 l 557 63 q 339 -15 481 -15 q 175 15 242 -15 q 74 98 108 45 q 40 217 40 150 q 134 393 40 331 q 425 465 228 456 l 538 471 q 485 531 527 513 q 356 549 443 549 q 239 540 304 549 q 119 517 174 532 l 119 740 q 266 767 187 758 q 414 776 345 776 m 444 189 q 543 208 504 189 l 543 308 l 457 304 q 381 286 404 301 q 358 243 358 270 q 380 203 358 218 q 444 189 402 189 m 699 1315 q 839 1295 795 1315 q 883 1228 883 1274 q 868 1193 883 1206 q 825 1164 853 1179 q 785 1139 799 1150 q 768 1110 772 1127 l 638 1110 q 651 1147 639 1132 q 677 1170 663 1162 q 713 1189 691 1179 q 734 1200 728 1196 q 740 1208 740 1203 q 725 1223 740 1219 q 675 1228 709 1228 q 553 1217 610 1228 l 553 1301 q 622 1311 579 1308 q 699 1315 665 1315 m 340 1122 l 588 1122 l 786 847 l 554 847 l 464 977 l 374 847 l 142 847 l 340 1122 z "},"ẫ":{"ha":933,"x_min":40,"x_max":858,"o":"m 414 776 q 672 741 576 776 q 814 623 769 706 q 858 399 858 541 l 858 0 l 592 0 l 571 63 l 557 63 q 339 -15 481 -15 q 175 15 242 -15 q 74 98 108 45 q 40 217 40 150 q 134 393 40 331 q 425 465 228 456 l 538 471 q 485 531 527 513 q 356 549 443 549 q 239 540 304 549 q 119 517 174 532 l 119 740 q 266 767 187 758 q 414 776 345 776 m 444 189 q 543 208 504 189 l 543 308 l 457 304 q 381 286 404 301 q 358 243 358 270 q 380 203 358 218 q 444 189 402 189 m 601 1108 q 530 1114 563 1108 q 452 1131 497 1119 q 380 1146 408 1141 q 318 1151 351 1151 q 233 1142 270 1151 q 156 1113 196 1133 l 156 1251 q 231 1286 190 1275 q 326 1297 271 1297 q 396 1292 364 1297 q 476 1274 428 1286 q 547 1258 517 1264 q 610 1253 577 1253 q 695 1262 658 1253 q 772 1291 732 1271 l 772 1153 q 698 1119 738 1129 q 601 1108 658 1108 m 828 849 l 575 849 l 464 956 l 353 849 l 100 849 l 331 1068 l 597 1068 l 828 849 z "},"ȁ":{"ha":933,"x_min":40,"x_max":858,"o":"m 414 776 q 672 741 576 776 q 814 623 769 706 q 858 399 858 541 l 858 0 l 592 0 l 571 63 l 557 63 q 339 -15 481 -15 q 175 15 242 -15 q 74 98 108 45 q 40 217 40 150 q 134 393 40 331 q 425 465 228 456 l 538 471 q 485 531 527 513 q 356 549 443 549 q 239 540 304 549 q 119 517 174 532 l 119 740 q 266 767 187 758 q 414 776 345 776 m 444 189 q 543 208 504 189 l 543 308 l 457 304 q 381 286 404 301 q 358 243 358 270 q 380 203 358 218 q 444 189 402 189 m 188 847 l 57 1122 l 299 1122 l 413 847 l 188 847 m 515 847 l 385 1122 l 626 1122 l 740 847 l 515 847 z "},"ä":{"ha":933,"x_min":40,"x_max":858,"o":"m 414 776 q 672 741 576 776 q 814 623 769 706 q 858 399 858 541 l 858 0 l 592 0 l 571 63 l 557 63 q 339 -15 481 -15 q 175 15 242 -15 q 74 98 108 45 q 40 217 40 150 q 134 393 40 331 q 425 465 228 456 l 538 471 q 485 531 527 513 q 356 549 443 549 q 239 540 304 549 q 119 517 174 532 l 119 740 q 266 767 187 758 q 414 776 345 776 m 444 189 q 543 208 504 189 l 543 308 l 457 304 q 381 286 404 301 q 358 243 358 270 q 380 203 358 218 q 444 189 402 189 m 265 840 q 143 878 183 840 q 103 985 103 915 q 143 1092 103 1054 q 265 1129 183 1129 q 388 1092 348 1129 q 428 985 428 1054 q 388 878 428 915 q 265 840 348 840 m 663 840 q 540 878 580 840 q 500 985 500 915 q 540 1092 500 1054 q 663 1129 580 1129 q 785 1092 745 1129 q 825 985 825 1054 q 785 878 825 915 q 663 840 745 840 z "},"ạ":{"ha":933,"x_min":40,"x_max":858,"o":"m 414 776 q 672 741 576 776 q 814 623 769 706 q 858 399 858 541 l 858 0 l 592 0 l 571 63 l 557 63 q 339 -15 481 -15 q 175 15 242 -15 q 74 98 108 45 q 40 217 40 150 q 134 393 40 331 q 425 465 228 456 l 538 471 q 485 531 527 513 q 356 549 443 549 q 239 540 304 549 q 119 517 174 532 l 119 740 q 266 767 187 758 q 414 776 345 776 m 444 189 q 543 208 504 189 l 543 308 l 457 304 q 381 286 404 301 q 358 243 358 270 q 380 203 358 218 q 444 189 402 189 m 464 -347 q 342 -311 382 -347 q 301 -210 301 -274 q 342 -109 301 -145 q 464 -72 382 -72 q 586 -109 546 -72 q 626 -210 626 -145 q 586 -311 626 -274 q 464 -347 546 -347 z "},"à":{"ha":933,"x_min":40,"x_max":858,"o":"m 414 776 q 672 741 576 776 q 814 623 769 706 q 858 399 858 541 l 858 0 l 592 0 l 571 63 l 557 63 q 339 -15 481 -15 q 175 15 242 -15 q 74 98 108 45 q 40 217 40 150 q 134 393 40 331 q 425 465 228 456 l 538 471 q 485 531 527 513 q 356 549 443 549 q 239 540 304 549 q 119 517 174 532 l 119 740 q 266 767 187 758 q 414 776 345 776 m 444 189 q 543 208 504 189 l 543 308 l 457 304 q 381 286 404 301 q 358 243 358 270 q 380 203 358 218 q 444 189 402 189 m 311 847 l 85 1122 l 438 1122 l 617 847 l 311 847 z "},"ả":{"ha":933,"x_min":40,"x_max":858,"o":"m 414 776 q 672 741 576 776 q 814 623 769 706 q 858 399 858 541 l 858 0 l 592 0 l 571 63 l 557 63 q 339 -15 481 -15 q 175 15 242 -15 q 74 98 108 45 q 40 217 40 150 q 134 393 40 331 q 425 465 228 456 l 538 471 q 485 531 527 513 q 356 549 443 549 q 239 540 304 549 q 119 517 174 532 l 119 740 q 266 767 187 758 q 414 776 345 776 m 444 189 q 543 208 504 189 l 543 308 l 457 304 q 381 286 404 301 q 358 243 358 270 q 380 203 358 218 q 444 189 402 189 m 389 847 q 402 897 390 876 q 429 931 414 918 q 466 958 444 944 q 494 980 486 972 q 503 999 503 988 q 489 1017 503 1012 q 436 1022 474 1022 q 307 1006 376 1022 l 307 1113 q 380 1126 336 1122 q 460 1131 424 1131 q 610 1103 563 1131 q 658 1018 658 1076 q 650 974 658 992 q 628 944 641 956 q 594 917 615 932 q 555 884 567 899 q 539 847 542 870 l 389 847 z "},"ȃ":{"ha":933,"x_min":40,"x_max":858,"o":"m 414 776 q 672 741 576 776 q 814 623 769 706 q 858 399 858 541 l 858 0 l 592 0 l 571 63 l 557 63 q 339 -15 481 -15 q 175 15 242 -15 q 74 98 108 45 q 40 217 40 150 q 134 393 40 331 q 425 465 228 456 l 538 471 q 485 531 527 513 q 356 549 443 549 q 239 540 304 549 q 119 517 174 532 l 119 740 q 266 767 187 758 q 414 776 345 776 m 444 189 q 543 208 504 189 l 543 308 l 457 304 q 381 286 404 301 q 358 243 358 270 q 380 203 358 218 q 444 189 402 189 m 144 867 q 234 1057 152 989 q 464 1125 315 1125 q 694 1057 613 1125 q 783 867 776 989 l 596 867 q 558 947 590 919 q 464 974 526 974 q 370 947 402 974 q 332 867 338 919 l 144 867 z "},"ā":{"ha":933,"x_min":40,"x_max":858,"o":"m 414 776 q 672 741 576 776 q 814 623 769 706 q 858 399 858 541 l 858 0 l 592 0 l 571 63 l 557 63 q 339 -15 481 -15 q 175 15 242 -15 q 74 98 108 45 q 40 217 40 150 q 134 393 40 331 q 425 465 228 456 l 538 471 q 485 531 527 513 q 356 549 443 549 q 239 540 304 549 q 119 517 174 532 l 119 740 q 266 767 187 758 q 414 776 345 776 m 444 189 q 543 208 504 189 l 543 308 l 457 304 q 381 286 404 301 q 358 243 358 270 q 380 203 358 218 q 444 189 402 189 m 175 899 l 175 1072 l 753 1072 l 753 899 l 175 899 z "},"ą":{"ha":933,"x_min":40,"x_max":872,"o":"m 790 -204 q 872 -187 831 -204 l 872 -299 q 811 -314 841 -309 q 740 -319 781 -319 q 578 -277 633 -319 q 524 -162 524 -235 q 548 -73 524 -113 q 628 0 572 -32 l 592 0 l 571 63 l 557 63 q 339 -15 481 -15 q 175 15 242 -15 q 74 98 108 45 q 40 217 40 150 q 134 393 40 331 q 425 465 228 456 l 538 471 q 485 531 527 513 q 356 549 443 549 q 239 540 304 549 q 119 517 174 532 l 119 740 q 266 767 187 758 q 414 776 345 776 q 672 741 576 776 q 814 623 769 706 q 858 399 858 541 l 858 0 q 736 -63 772 -30 q 701 -139 701 -96 q 724 -186 701 -169 q 790 -204 747 -204 m 444 189 q 543 208 504 189 l 543 308 l 457 304 q 381 286 404 301 q 358 243 358 270 q 380 203 358 218 q 444 189 402 189 z "},"å":{"ha":933,"x_min":40,"x_max":858,"o":"m 414 776 q 672 741 576 776 q 814 623 769 706 q 858 399 858 541 l 858 0 l 592 0 l 571 63 l 557 63 q 339 -15 481 -15 q 175 15 242 -15 q 74 98 108 45 q 40 217 40 150 q 134 393 40 331 q 425 465 228 456 l 538 471 q 485 531 527 513 q 356 549 443 549 q 239 540 304 549 q 119 517 174 532 l 119 740 q 266 767 187 758 q 414 776 345 776 m 444 189 q 543 208 504 189 l 543 308 l 457 304 q 381 286 404 301 q 358 243 358 270 q 380 203 358 218 q 444 189 402 189 m 464 843 q 383 863 419 843 q 326 917 347 883 q 306 996 306 952 q 326 1074 306 1040 q 383 1129 347 1109 q 464 1149 419 1149 q 545 1129 509 1149 q 602 1074 581 1109 q 622 996 622 1040 q 602 917 622 952 q 545 863 581 883 q 464 843 509 843 m 464 939 q 503 955 488 939 q 518 996 518 970 q 503 1037 518 1022 q 464 1053 488 1053 q 425 1037 440 1053 q 410 996 410 1022 q 425 955 410 970 q 464 939 440 939 z "},"ǻ":{"ha":933,"x_min":40,"x_max":858,"o":"m 414 776 q 672 741 576 776 q 814 623 769 706 q 858 399 858 541 l 858 0 l 592 0 l 571 63 l 557 63 q 339 -15 481 -15 q 175 15 242 -15 q 74 98 108 45 q 40 217 40 150 q 134 393 40 331 q 425 465 228 456 l 538 471 q 485 531 527 513 q 356 549 443 549 q 239 540 304 549 q 119 517 174 532 l 119 740 q 266 767 187 758 q 414 776 345 776 m 444 189 q 543 208 504 189 l 543 308 l 457 304 q 381 286 404 301 q 358 243 358 270 q 380 203 358 218 q 444 189 402 189 m 606 1067 q 622 996 622 1036 q 602 917 622 952 q 545 863 581 883 q 464 843 509 843 q 383 863 419 843 q 326 917 347 883 q 306 996 306 952 q 326 1074 306 1040 q 383 1129 347 1109 q 464 1149 419 1149 q 478 1148 474 1149 l 546 1236 l 751 1236 l 606 1067 m 464 939 q 503 955 488 939 q 518 996 518 970 q 503 1037 518 1022 q 464 1053 488 1053 q 425 1037 440 1053 q 410 996 410 1022 q 425 955 410 970 q 464 939 440 939 z "},"ã":{"ha":933,"x_min":40,"x_max":858,"o":"m 414 776 q 672 741 576 776 q 814 623 769 706 q 858 399 858 541 l 858 0 l 592 0 l 571 63 l 557 63 q 339 -15 481 -15 q 175 15 242 -15 q 74 98 108 45 q 40 217 40 150 q 134 393 40 331 q 425 465 228 456 l 538 471 q 485 531 527 513 q 356 549 443 549 q 239 540 304 549 q 119 517 174 532 l 119 740 q 266 767 187 758 q 414 776 345 776 m 444 189 q 543 208 504 189 l 543 308 l 457 304 q 381 286 404 301 q 358 243 358 270 q 380 203 358 218 q 444 189 402 189 m 588 861 q 524 870 554 861 q 452 898 494 880 q 386 923 413 915 q 332 932 360 932 q 251 917 287 932 q 175 868 215 902 l 175 1050 q 249 1095 209 1081 q 340 1110 288 1110 q 404 1100 374 1110 q 476 1073 434 1091 q 541 1048 515 1056 q 596 1039 568 1039 q 677 1054 641 1039 q 753 1103 713 1069 l 753 921 q 679 875 719 890 q 588 861 640 861 z "},"æ":{"ha":1413,"x_min":40,"x_max":1374,"o":"m 1374 297 l 860 297 q 889 245 866 264 q 963 218 912 226 q 1106 210 1014 210 q 1321 226 1202 210 l 1321 6 q 1054 -15 1198 -15 q 820 10 918 -15 q 660 85 722 35 q 523 10 598 35 q 367 -15 447 -15 q 183 15 256 -15 q 75 98 110 45 q 40 218 40 150 q 135 400 40 335 q 425 464 230 464 l 540 464 q 513 514 533 495 q 455 540 493 532 q 356 549 417 549 q 239 540 304 549 q 119 517 174 532 l 119 740 q 260 767 188 758 q 400 776 333 776 q 591 756 513 776 q 719 692 669 736 q 839 755 771 733 q 988 776 907 776 q 1198 727 1111 776 q 1329 586 1284 678 q 1374 368 1374 494 l 1374 297 m 968 588 q 887 558 914 588 q 858 464 860 528 l 1078 464 q 1048 557 1075 527 q 968 588 1022 588 m 358 242 q 380 202 358 216 q 446 189 402 189 q 508 197 481 189 q 566 223 536 204 q 548 300 555 255 l 456 300 q 381 285 403 300 q 358 242 358 269 z "},"ǽ":{"ha":1413,"x_min":40,"x_max":1374,"o":"m 1374 297 l 860 297 q 889 245 866 264 q 963 218 912 226 q 1106 210 1014 210 q 1321 226 1202 210 l 1321 6 q 1054 -15 1198 -15 q 820 10 918 -15 q 660 85 722 35 q 523 10 598 35 q 367 -15 447 -15 q 183 15 256 -15 q 75 98 110 45 q 40 218 40 150 q 135 400 40 335 q 425 464 230 464 l 540 464 q 513 514 533 495 q 455 540 493 532 q 356 549 417 549 q 239 540 304 549 q 119 517 174 532 l 119 740 q 260 767 188 758 q 400 776 333 776 q 591 756 513 776 q 719 692 669 736 q 839 755 771 733 q 988 776 907 776 q 1198 727 1111 776 q 1329 586 1284 678 q 1374 368 1374 494 l 1374 297 m 968 588 q 887 558 914 588 q 858 464 860 528 l 1078 464 q 1048 557 1075 527 q 968 588 1022 588 m 358 242 q 380 202 358 216 q 446 189 402 189 q 508 197 481 189 q 566 223 536 204 q 548 300 555 255 l 456 300 q 381 285 403 300 q 358 242 358 269 m 557 847 l 736 1122 l 1089 1122 l 863 847 l 557 847 z "},"b":{"ha":1035,"x_min":81,"x_max":989,"o":"m 468 -15 q 265 -3 365 -15 q 81 35 165 9 l 81 1122 l 403 1122 l 403 699 l 417 699 q 643 776 503 776 q 817 734 739 776 q 942 607 896 692 q 989 403 989 523 q 857 92 989 200 q 468 -15 724 -15 m 497 221 q 628 260 585 221 q 671 381 671 300 q 525 524 671 524 q 461 517 492 524 q 403 497 429 510 l 403 231 q 497 221 447 221 z "},"c":{"ha":829,"x_min":46,"x_max":782,"o":"m 550 -15 q 274 31 387 -15 q 103 166 161 77 q 46 379 46 254 q 105 593 46 504 q 280 730 164 683 q 564 776 396 776 q 782 756 686 776 l 782 514 q 684 525 726 522 q 597 529 642 529 q 427 491 481 529 q 374 379 374 453 q 427 270 374 308 q 583 232 480 232 q 672 237 628 232 q 782 256 715 242 l 782 14 q 677 -7 737 1 q 550 -15 617 -15 z "},"ć":{"ha":829,"x_min":46,"x_max":829,"o":"m 550 -15 q 274 31 387 -15 q 103 166 161 77 q 46 379 46 254 q 105 593 46 504 q 280 730 164 683 q 564 776 396 776 q 782 756 686 776 l 782 514 q 684 525 726 522 q 597 529 642 529 q 427 491 481 529 q 374 379 374 453 q 427 270 374 308 q 583 232 480 232 q 672 237 628 232 q 782 256 715 242 l 782 14 q 677 -7 737 1 q 550 -15 617 -15 m 297 847 l 476 1122 l 829 1122 l 603 847 l 297 847 z "},"č":{"ha":829,"x_min":46,"x_max":782,"o":"m 550 -15 q 274 31 387 -15 q 103 166 161 77 q 46 379 46 254 q 105 593 46 504 q 280 730 164 683 q 564 776 396 776 q 782 756 686 776 l 782 514 q 684 525 726 522 q 597 529 642 529 q 427 491 481 529 q 374 379 374 453 q 427 270 374 308 q 583 232 480 232 q 672 237 628 232 q 782 256 715 242 l 782 14 q 677 -7 737 1 q 550 -15 617 -15 m 540 1122 l 772 1122 l 574 847 l 326 847 l 128 1122 l 360 1122 l 450 992 l 540 1122 z "},"ç":{"ha":829,"x_min":46,"x_max":782,"o":"m 597 529 q 427 491 481 529 q 374 379 374 453 q 427 270 374 308 q 583 232 480 232 q 672 237 628 232 q 782 256 715 242 l 782 14 q 677 -7 737 1 q 550 -15 617 -15 l 549 -15 l 549 -51 q 642 -98 611 -63 q 672 -185 672 -132 q 619 -284 672 -248 q 465 -319 566 -319 q 321 -297 385 -319 l 321 -190 q 383 -206 347 -200 q 450 -211 420 -211 q 500 -201 483 -211 q 517 -169 517 -192 q 500 -137 517 -147 q 451 -128 484 -128 l 408 -128 l 408 -5 q 139 122 231 23 q 46 379 46 220 q 105 593 46 504 q 280 730 164 683 q 564 776 396 776 q 782 756 686 776 l 782 514 q 684 525 726 522 q 597 529 642 529 z "},"ḉ":{"ha":829,"x_min":46,"x_max":829,"o":"m 829 1122 l 603 847 l 297 847 l 476 1122 l 829 1122 m 46 379 q 105 593 46 504 q 280 730 164 683 q 564 776 396 776 q 782 756 686 776 l 782 514 q 684 525 726 522 q 597 529 642 529 q 427 491 481 529 q 374 379 374 453 q 427 270 374 308 q 583 232 480 232 q 672 237 628 232 q 782 256 715 242 l 782 14 q 677 -7 737 1 q 550 -15 617 -15 l 549 -15 l 549 -51 q 642 -98 611 -63 q 672 -185 672 -132 q 619 -284 672 -248 q 465 -319 566 -319 q 321 -297 385 -319 l 321 -190 q 383 -206 347 -200 q 450 -211 420 -211 q 500 -201 483 -211 q 517 -169 517 -192 q 500 -137 517 -147 q 451 -128 484 -128 l 408 -128 l 408 -5 q 139 122 231 23 q 46 379 46 220 z "},"ĉ":{"ha":829,"x_min":46,"x_max":782,"o":"m 550 -15 q 274 31 387 -15 q 103 166 161 77 q 46 379 46 254 q 105 593 46 504 q 280 730 164 683 q 564 776 396 776 q 782 756 686 776 l 782 514 q 684 525 726 522 q 597 529 642 529 q 427 491 481 529 q 374 379 374 453 q 427 270 374 308 q 583 232 480 232 q 672 237 628 232 q 782 256 715 242 l 782 14 q 677 -7 737 1 q 550 -15 617 -15 m 772 847 l 540 847 l 450 977 l 360 847 l 128 847 l 326 1122 l 574 1122 l 772 847 z "},"ċ":{"ha":829,"x_min":46,"x_max":782,"o":"m 550 -15 q 274 31 387 -15 q 103 166 161 77 q 46 379 46 254 q 105 593 46 504 q 280 730 164 683 q 564 776 396 776 q 782 756 686 776 l 782 514 q 684 525 726 522 q 597 529 642 529 q 427 491 481 529 q 374 379 374 453 q 427 270 374 308 q 583 232 480 232 q 672 237 628 232 q 782 256 715 242 l 782 14 q 677 -7 737 1 q 550 -15 617 -15 m 450 838 q 306 875 353 838 q 260 985 260 912 q 306 1095 260 1058 q 450 1132 353 1132 q 594 1095 547 1132 q 640 985 640 1058 q 594 875 640 912 q 450 838 547 838 z "},"d":{"ha":1035,"x_min":46,"x_max":954,"o":"m 418 -12 q 229 28 313 -12 q 95 153 145 68 q 46 365 46 238 q 103 587 46 494 q 265 730 160 681 q 514 779 371 779 q 632 774 563 779 l 632 1122 l 954 1122 l 954 0 l 686 0 l 669 74 l 656 74 q 551 10 610 33 q 418 -12 491 -12 m 508 240 q 576 249 543 240 q 632 274 608 257 l 632 533 q 538 542 582 542 q 407 503 449 542 q 364 386 364 464 q 508 240 364 240 z "},"ð":{"ha":1017,"x_min":46,"x_max":975,"o":"m 800 896 q 929 668 883 788 q 975 437 975 549 q 920 187 975 288 q 760 35 865 86 q 508 -15 656 -15 q 264 33 368 -15 q 102 172 159 82 q 46 382 46 261 q 99 590 46 503 q 248 722 152 676 q 472 767 344 767 q 549 760 515 767 q 487 847 522 805 l 135 792 l 106 963 l 336 999 q 161 1122 250 1070 l 563 1122 q 657 1049 611 1089 l 915 1089 l 944 918 l 800 896 m 508 226 q 617 265 581 226 q 653 382 653 303 q 617 499 653 460 q 508 538 581 538 q 400 499 435 538 q 364 382 364 460 q 400 265 364 303 q 508 226 435 226 z "},"ď":{"ha":1035,"x_min":46,"x_max":1228,"o":"m 418 -12 q 229 28 313 -12 q 95 153 145 68 q 46 365 46 238 q 103 587 46 494 q 265 730 160 681 q 514 779 371 779 q 632 774 563 779 l 632 1122 l 954 1122 l 954 0 l 686 0 l 669 74 l 656 74 q 551 10 610 33 q 418 -12 491 -12 m 508 240 q 576 249 543 240 q 632 274 608 257 l 632 533 q 538 542 582 542 q 407 503 449 542 q 364 386 364 464 q 508 240 364 240 m 999 819 q 1018 969 1013 900 q 1024 1122 1024 1038 l 1228 1122 q 1211 957 1228 1036 q 1165 819 1194 878 l 999 819 z "},"đ":{"ha":1035,"x_min":46,"x_max":1033,"o":"m 1033 851 l 954 851 l 954 0 l 686 0 l 669 74 l 656 74 q 551 10 610 33 q 418 -12 491 -12 q 229 28 313 -12 q 95 153 145 68 q 46 365 46 238 q 103 587 46 494 q 265 730 160 681 q 514 779 371 779 q 632 774 563 779 l 632 851 l 339 851 l 339 1032 l 632 1032 l 632 1122 l 954 1122 l 954 1032 l 1033 1032 l 1033 851 m 632 533 q 538 542 582 542 q 407 503 449 542 q 364 386 364 464 q 508 240 364 240 q 576 249 543 240 q 632 274 608 257 l 632 533 z "},"ḍ":{"ha":1035,"x_min":46,"x_max":954,"o":"m 418 -12 q 229 28 313 -12 q 95 153 145 68 q 46 365 46 238 q 103 587 46 494 q 265 730 160 681 q 514 779 371 779 q 632 774 563 779 l 632 1122 l 954 1122 l 954 0 l 686 0 l 669 74 l 656 74 q 551 10 610 33 q 418 -12 491 -12 m 508 240 q 576 249 543 240 q 632 274 608 257 l 632 533 q 538 542 582 542 q 407 503 449 542 q 364 386 364 464 q 508 240 364 240 m 528 -347 q 406 -311 446 -347 q 365 -210 365 -274 q 406 -109 365 -145 q 528 -72 446 -72 q 650 -109 610 -72 q 690 -210 690 -145 q 650 -311 690 -274 q 528 -347 610 -347 z "},"ḏ":{"ha":1035,"x_min":46,"x_max":954,"o":"m 418 -12 q 229 28 313 -12 q 95 153 145 68 q 46 365 46 238 q 103 587 46 494 q 265 730 160 681 q 514 779 371 779 q 632 774 563 779 l 632 1122 l 954 1122 l 954 0 l 686 0 l 669 74 l 656 74 q 551 10 610 33 q 418 -12 491 -12 m 508 240 q 576 249 543 240 q 632 274 608 257 l 632 533 q 538 542 582 542 q 407 503 449 542 q 364 386 364 464 q 508 240 364 240 m 239 -293 l 239 -121 l 817 -121 l 817 -293 l 239 -293 z "},"ǳ":{"ha":1919,"x_min":46,"x_max":1872,"o":"m 418 -12 q 229 28 313 -12 q 95 153 145 68 q 46 365 46 238 q 103 587 46 494 q 265 730 160 681 q 514 779 371 779 q 632 774 563 779 l 632 1122 l 954 1122 l 954 0 l 686 0 l 669 74 l 656 74 q 551 10 610 33 q 418 -12 491 -12 m 508 240 q 576 249 543 240 q 632 274 608 257 l 632 533 q 538 542 582 542 q 407 503 449 542 q 364 386 364 464 q 508 240 364 240 m 1532 250 l 1872 250 l 1872 0 l 1099 0 l 1099 208 l 1432 514 l 1106 514 l 1106 764 l 1865 764 l 1865 556 l 1532 250 z "},"ǆ":{"ha":1919,"x_min":46,"x_max":1872,"o":"m 418 -12 q 229 28 313 -12 q 95 153 145 68 q 46 365 46 238 q 103 587 46 494 q 265 730 160 681 q 514 779 371 779 q 632 774 563 779 l 632 1122 l 954 1122 l 954 0 l 686 0 l 669 74 l 656 74 q 551 10 610 33 q 418 -12 491 -12 m 508 240 q 576 249 543 240 q 632 274 608 257 l 632 533 q 538 542 582 542 q 407 503 449 542 q 364 386 364 464 q 508 240 364 240 m 1532 250 l 1872 250 l 1872 0 l 1099 0 l 1099 208 l 1432 514 l 1106 514 l 1106 764 l 1865 764 l 1865 556 l 1532 250 m 1576 1122 l 1808 1122 l 1610 847 l 1363 847 l 1164 1122 l 1396 1122 l 1486 992 l 1576 1122 z "},"e":{"ha":921,"x_min":46,"x_max":882,"o":"m 882 297 l 363 297 q 392 245 369 264 q 467 218 415 226 q 614 210 519 210 q 829 226 710 210 l 829 6 q 563 -15 706 -15 q 269 27 383 -15 q 100 156 155 69 q 46 379 46 243 q 96 590 46 500 q 243 728 146 679 q 479 776 340 776 q 701 727 610 776 q 836 586 791 678 q 882 368 882 494 l 882 297 m 474 588 q 391 558 418 588 q 361 464 363 528 l 586 464 q 556 558 583 528 q 474 588 529 588 z "},"é":{"ha":921,"x_min":46,"x_max":882,"o":"m 882 297 l 363 297 q 392 245 369 264 q 467 218 415 226 q 614 210 519 210 q 829 226 710 210 l 829 6 q 563 -15 706 -15 q 269 27 383 -15 q 100 156 155 69 q 46 379 46 243 q 96 590 46 500 q 243 728 146 679 q 479 776 340 776 q 701 727 610 776 q 836 586 791 678 q 882 368 882 494 l 882 297 m 474 588 q 391 558 418 588 q 361 464 363 528 l 586 464 q 556 558 583 528 q 474 588 529 588 m 321 847 l 500 1122 l 853 1122 l 626 847 l 321 847 z "},"ĕ":{"ha":921,"x_min":46,"x_max":882,"o":"m 882 297 l 363 297 q 392 245 369 264 q 467 218 415 226 q 614 210 519 210 q 829 226 710 210 l 829 6 q 563 -15 706 -15 q 269 27 383 -15 q 100 156 155 69 q 46 379 46 243 q 96 590 46 500 q 243 728 146 679 q 479 776 340 776 q 701 727 610 776 q 836 586 791 678 q 882 368 882 494 l 882 297 m 474 588 q 391 558 418 588 q 361 464 363 528 l 586 464 q 556 558 583 528 q 474 588 529 588 m 474 850 q 243 918 325 850 q 154 1108 162 986 l 342 1108 q 380 1028 348 1056 q 474 1001 412 1001 q 567 1028 535 1001 q 606 1108 599 1056 l 793 1108 q 704 918 785 986 q 474 850 622 850 z "},"ě":{"ha":921,"x_min":46,"x_max":882,"o":"m 882 297 l 363 297 q 392 245 369 264 q 467 218 415 226 q 614 210 519 210 q 829 226 710 210 l 829 6 q 563 -15 706 -15 q 269 27 383 -15 q 100 156 155 69 q 46 379 46 243 q 96 590 46 500 q 243 728 146 679 q 479 776 340 776 q 701 727 610 776 q 836 586 791 678 q 882 368 882 494 l 882 297 m 474 588 q 391 558 418 588 q 361 464 363 528 l 586 464 q 556 558 583 528 q 474 588 529 588 m 564 1122 l 796 1122 l 597 847 l 350 847 l 151 1122 l 383 1122 l 474 992 l 564 1122 z "},"ḝ":{"ha":921,"x_min":46,"x_max":882,"o":"m 474 850 q 243 918 325 850 q 154 1108 162 986 l 342 1108 q 380 1028 348 1056 q 474 1001 412 1001 q 567 1028 535 1001 q 606 1108 599 1056 l 793 1108 q 704 918 785 986 q 474 850 622 850 m 882 297 l 363 297 q 392 245 369 264 q 467 218 415 226 q 614 210 519 210 q 829 226 710 210 l 829 6 q 563 -15 706 -15 l 553 -15 l 553 -51 q 646 -98 615 -63 q 676 -185 676 -132 q 623 -284 676 -248 q 469 -319 570 -319 q 325 -297 390 -319 l 325 -190 q 388 -206 351 -200 q 454 -211 424 -211 q 504 -201 488 -211 q 521 -169 521 -192 q 505 -137 521 -147 q 456 -128 488 -128 l 413 -128 l 413 -7 q 135 112 224 17 q 46 379 46 206 q 96 590 46 500 q 243 728 146 679 q 479 776 340 776 q 701 727 610 776 q 836 586 791 678 q 882 368 882 494 l 882 297 m 474 588 q 391 558 418 588 q 361 464 363 528 l 586 464 q 556 558 583 528 q 474 588 529 588 z "},"ê":{"ha":921,"x_min":46,"x_max":882,"o":"m 882 297 l 363 297 q 392 245 369 264 q 467 218 415 226 q 614 210 519 210 q 829 226 710 210 l 829 6 q 563 -15 706 -15 q 269 27 383 -15 q 100 156 155 69 q 46 379 46 243 q 96 590 46 500 q 243 728 146 679 q 479 776 340 776 q 701 727 610 776 q 836 586 791 678 q 882 368 882 494 l 882 297 m 474 588 q 391 558 418 588 q 361 464 363 528 l 586 464 q 556 558 583 528 q 474 588 529 588 m 796 847 l 564 847 l 474 977 l 383 847 l 151 847 l 350 1122 l 597 1122 l 796 847 z "},"ế":{"ha":921,"x_min":46,"x_max":1058,"o":"m 882 297 l 363 297 q 392 245 369 264 q 467 218 415 226 q 614 210 519 210 q 829 226 710 210 l 829 6 q 563 -15 706 -15 q 269 27 383 -15 q 100 156 155 69 q 46 379 46 243 q 96 590 46 500 q 243 728 146 679 q 479 776 340 776 q 701 727 610 776 q 836 586 791 678 q 882 368 882 494 l 882 297 m 474 588 q 391 558 418 588 q 361 464 363 528 l 586 464 q 556 558 583 528 q 474 588 529 588 m 789 1297 l 1058 1297 l 869 1110 l 647 1110 l 789 1297 m 350 1122 l 597 1122 l 796 847 l 564 847 l 474 977 l 383 847 l 151 847 l 350 1122 z "},"ệ":{"ha":921,"x_min":46,"x_max":882,"o":"m 882 297 l 363 297 q 392 245 369 264 q 467 218 415 226 q 614 210 519 210 q 829 226 710 210 l 829 6 q 563 -15 706 -15 q 269 27 383 -15 q 100 156 155 69 q 46 379 46 243 q 96 590 46 500 q 243 728 146 679 q 479 776 340 776 q 701 727 610 776 q 836 586 791 678 q 882 368 882 494 l 882 297 m 474 588 q 391 558 418 588 q 361 464 363 528 l 586 464 q 556 558 583 528 q 474 588 529 588 m 474 -347 q 351 -311 392 -347 q 311 -210 311 -274 q 351 -109 311 -145 q 474 -72 392 -72 q 596 -109 556 -72 q 636 -210 636 -145 q 596 -311 636 -274 q 474 -347 556 -347 m 796 847 l 564 847 l 474 977 l 383 847 l 151 847 l 350 1122 l 597 1122 l 796 847 z "},"ề":{"ha":921,"x_min":46,"x_max":897,"o":"m 882 297 l 363 297 q 392 245 369 264 q 467 218 415 226 q 614 210 519 210 q 829 226 710 210 l 829 6 q 563 -15 706 -15 q 269 27 383 -15 q 100 156 155 69 q 46 379 46 243 q 96 590 46 500 q 243 728 146 679 q 479 776 340 776 q 701 727 610 776 q 836 586 791 678 q 882 368 882 494 l 882 297 m 474 588 q 391 558 418 588 q 361 464 363 528 l 586 464 q 556 558 583 528 q 474 588 529 588 m 897 1110 l 675 1110 l 486 1297 l 756 1297 l 897 1110 m 350 1122 l 597 1122 l 796 847 l 564 847 l 474 977 l 383 847 l 151 847 l 350 1122 z "},"ể":{"ha":921,"x_min":46,"x_max":893,"o":"m 882 297 l 363 297 q 392 245 369 264 q 467 218 415 226 q 614 210 519 210 q 829 226 710 210 l 829 6 q 563 -15 706 -15 q 269 27 383 -15 q 100 156 155 69 q 46 379 46 243 q 96 590 46 500 q 243 728 146 679 q 479 776 340 776 q 701 727 610 776 q 836 586 791 678 q 882 368 882 494 l 882 297 m 474 588 q 391 558 418 588 q 361 464 363 528 l 586 464 q 556 558 583 528 q 474 588 529 588 m 708 1315 q 849 1295 805 1315 q 893 1228 893 1274 q 878 1193 893 1206 q 835 1164 863 1179 q 795 1139 809 1150 q 778 1110 781 1127 l 647 1110 q 660 1147 649 1132 q 686 1170 672 1162 q 722 1189 701 1179 q 744 1200 738 1196 q 750 1208 750 1203 q 734 1223 750 1219 q 685 1228 719 1228 q 563 1217 620 1228 l 563 1301 q 632 1311 589 1308 q 708 1315 674 1315 m 350 1122 l 597 1122 l 796 847 l 564 847 l 474 977 l 383 847 l 151 847 l 350 1122 z "},"ễ":{"ha":921,"x_min":46,"x_max":882,"o":"m 882 297 l 363 297 q 392 245 369 264 q 467 218 415 226 q 614 210 519 210 q 829 226 710 210 l 829 6 q 563 -15 706 -15 q 269 27 383 -15 q 100 156 155 69 q 46 379 46 243 q 96 590 46 500 q 243 728 146 679 q 479 776 340 776 q 701 727 610 776 q 836 586 791 678 q 882 368 882 494 l 882 297 m 474 588 q 391 558 418 588 q 361 464 363 528 l 586 464 q 556 558 583 528 q 474 588 529 588 m 611 1108 q 540 1114 573 1108 q 462 1131 507 1119 q 389 1146 418 1141 q 328 1151 360 1151 q 243 1142 280 1151 q 165 1113 206 1133 l 165 1251 q 240 1286 200 1275 q 336 1297 281 1297 q 406 1292 374 1297 q 485 1274 438 1286 q 557 1258 526 1264 q 619 1253 587 1253 q 705 1262 667 1253 q 782 1291 742 1271 l 782 1153 q 707 1119 747 1129 q 611 1108 667 1108 m 838 849 l 585 849 l 474 956 l 363 849 l 110 849 l 340 1068 l 607 1068 l 838 849 z "},"ȅ":{"ha":921,"x_min":46,"x_max":882,"o":"m 882 297 l 363 297 q 392 245 369 264 q 467 218 415 226 q 614 210 519 210 q 829 226 710 210 l 829 6 q 563 -15 706 -15 q 269 27 383 -15 q 100 156 155 69 q 46 379 46 243 q 96 590 46 500 q 243 728 146 679 q 479 776 340 776 q 701 727 610 776 q 836 586 791 678 q 882 368 882 494 l 882 297 m 474 588 q 391 558 418 588 q 361 464 363 528 l 586 464 q 556 558 583 528 q 474 588 529 588 m 197 847 l 67 1122 l 308 1122 l 422 847 l 197 847 m 525 847 l 394 1122 l 636 1122 l 750 847 l 525 847 z "},"ë":{"ha":921,"x_min":46,"x_max":882,"o":"m 882 297 l 363 297 q 392 245 369 264 q 467 218 415 226 q 614 210 519 210 q 829 226 710 210 l 829 6 q 563 -15 706 -15 q 269 27 383 -15 q 100 156 155 69 q 46 379 46 243 q 96 590 46 500 q 243 728 146 679 q 479 776 340 776 q 701 727 610 776 q 836 586 791 678 q 882 368 882 494 l 882 297 m 474 588 q 391 558 418 588 q 361 464 363 528 l 586 464 q 556 558 583 528 q 474 588 529 588 m 275 840 q 152 878 192 840 q 113 985 113 915 q 152 1092 113 1054 q 275 1129 192 1129 q 398 1092 358 1129 q 438 985 438 1054 q 398 878 438 915 q 275 840 358 840 m 672 840 q 550 878 590 840 q 510 985 510 915 q 550 1092 510 1054 q 672 1129 590 1129 q 795 1092 755 1129 q 835 985 835 1054 q 795 878 835 915 q 672 840 755 840 z "},"ė":{"ha":921,"x_min":46,"x_max":882,"o":"m 882 297 l 363 297 q 392 245 369 264 q 467 218 415 226 q 614 210 519 210 q 829 226 710 210 l 829 6 q 563 -15 706 -15 q 269 27 383 -15 q 100 156 155 69 q 46 379 46 243 q 96 590 46 500 q 243 728 146 679 q 479 776 340 776 q 701 727 610 776 q 836 586 791 678 q 882 368 882 494 l 882 297 m 474 588 q 391 558 418 588 q 361 464 363 528 l 586 464 q 556 558 583 528 q 474 588 529 588 m 474 838 q 330 875 376 838 q 283 985 283 912 q 330 1095 283 1058 q 474 1132 376 1132 q 617 1095 571 1132 q 664 985 664 1058 q 617 875 664 912 q 474 838 571 838 z "},"ẹ":{"ha":921,"x_min":46,"x_max":882,"o":"m 882 297 l 363 297 q 392 245 369 264 q 467 218 415 226 q 614 210 519 210 q 829 226 710 210 l 829 6 q 563 -15 706 -15 q 269 27 383 -15 q 100 156 155 69 q 46 379 46 243 q 96 590 46 500 q 243 728 146 679 q 479 776 340 776 q 701 727 610 776 q 836 586 791 678 q 882 368 882 494 l 882 297 m 474 588 q 391 558 418 588 q 361 464 363 528 l 586 464 q 556 558 583 528 q 474 588 529 588 m 474 -347 q 351 -311 392 -347 q 311 -210 311 -274 q 351 -109 311 -145 q 474 -72 392 -72 q 596 -109 556 -72 q 636 -210 636 -145 q 596 -311 636 -274 q 474 -347 556 -347 z "},"è":{"ha":921,"x_min":46,"x_max":882,"o":"m 882 297 l 363 297 q 392 245 369 264 q 467 218 415 226 q 614 210 519 210 q 829 226 710 210 l 829 6 q 563 -15 706 -15 q 269 27 383 -15 q 100 156 155 69 q 46 379 46 243 q 96 590 46 500 q 243 728 146 679 q 479 776 340 776 q 701 727 610 776 q 836 586 791 678 q 882 368 882 494 l 882 297 m 474 588 q 391 558 418 588 q 361 464 363 528 l 586 464 q 556 558 583 528 q 474 588 529 588 m 321 847 l 94 1122 l 447 1122 l 626 847 l 321 847 z "},"ẻ":{"ha":921,"x_min":46,"x_max":882,"o":"m 882 297 l 363 297 q 392 245 369 264 q 467 218 415 226 q 614 210 519 210 q 829 226 710 210 l 829 6 q 563 -15 706 -15 q 269 27 383 -15 q 100 156 155 69 q 46 379 46 243 q 96 590 46 500 q 243 728 146 679 q 479 776 340 776 q 701 727 610 776 q 836 586 791 678 q 882 368 882 494 l 882 297 m 474 588 q 391 558 418 588 q 361 464 363 528 l 586 464 q 556 558 583 528 q 474 588 529 588 m 399 847 q 412 897 400 876 q 439 931 424 918 q 476 958 453 944 q 504 980 496 972 q 513 999 513 988 q 498 1017 513 1012 q 446 1022 484 1022 q 317 1006 385 1022 l 317 1113 q 390 1126 346 1122 q 469 1131 433 1131 q 620 1103 572 1131 q 668 1018 668 1076 q 659 974 668 992 q 638 944 651 956 q 603 917 624 932 q 564 884 577 899 q 549 847 551 870 l 399 847 z "},"ȇ":{"ha":921,"x_min":46,"x_max":882,"o":"m 882 297 l 363 297 q 392 245 369 264 q 467 218 415 226 q 614 210 519 210 q 829 226 710 210 l 829 6 q 563 -15 706 -15 q 269 27 383 -15 q 100 156 155 69 q 46 379 46 243 q 96 590 46 500 q 243 728 146 679 q 479 776 340 776 q 701 727 610 776 q 836 586 791 678 q 882 368 882 494 l 882 297 m 474 588 q 391 558 418 588 q 361 464 363 528 l 586 464 q 556 558 583 528 q 474 588 529 588 m 154 867 q 243 1057 162 989 q 474 1125 325 1125 q 704 1057 622 1125 q 793 867 785 989 l 606 867 q 567 947 599 919 q 474 974 535 974 q 380 947 412 974 q 342 867 348 919 l 154 867 z "},"ē":{"ha":921,"x_min":46,"x_max":882,"o":"m 882 297 l 363 297 q 392 245 369 264 q 467 218 415 226 q 614 210 519 210 q 829 226 710 210 l 829 6 q 563 -15 706 -15 q 269 27 383 -15 q 100 156 155 69 q 46 379 46 243 q 96 590 46 500 q 243 728 146 679 q 479 776 340 776 q 701 727 610 776 q 836 586 791 678 q 882 368 882 494 l 882 297 m 474 588 q 391 558 418 588 q 361 464 363 528 l 586 464 q 556 558 583 528 q 474 588 529 588 m 185 899 l 185 1072 l 763 1072 l 763 899 l 185 899 z "},"ḗ":{"ha":921,"x_min":46,"x_max":882,"o":"m 882 297 l 363 297 q 392 245 369 264 q 467 218 415 226 q 614 210 519 210 q 829 226 710 210 l 829 6 q 563 -15 706 -15 q 269 27 383 -15 q 100 156 155 69 q 46 379 46 243 q 96 590 46 500 q 243 728 146 679 q 479 776 340 776 q 701 727 610 776 q 836 586 791 678 q 882 368 882 494 l 882 297 m 474 588 q 391 558 418 588 q 361 464 363 528 l 586 464 q 556 558 583 528 q 474 588 529 588 m 185 899 l 185 1072 l 763 1072 l 763 899 l 185 899 m 325 1168 l 467 1388 l 806 1388 l 617 1168 l 325 1168 z "},"ḕ":{"ha":921,"x_min":46,"x_max":882,"o":"m 882 297 l 363 297 q 392 245 369 264 q 467 218 415 226 q 614 210 519 210 q 829 226 710 210 l 829 6 q 563 -15 706 -15 q 269 27 383 -15 q 100 156 155 69 q 46 379 46 243 q 96 590 46 500 q 243 728 146 679 q 479 776 340 776 q 701 727 610 776 q 836 586 791 678 q 882 368 882 494 l 882 297 m 474 588 q 391 558 418 588 q 361 464 363 528 l 586 464 q 556 558 583 528 q 474 588 529 588 m 185 899 l 185 1072 l 763 1072 l 763 899 l 185 899 m 328 1168 l 139 1388 l 478 1388 l 619 1168 l 328 1168 z "},"ę":{"ha":921,"x_min":46,"x_max":882,"o":"m 882 297 l 363 297 q 392 245 369 264 q 467 218 415 226 q 614 210 519 210 q 829 226 710 210 l 829 6 q 697 -59 736 -23 q 658 -139 658 -94 q 681 -186 658 -169 q 747 -204 703 -204 q 829 -187 788 -204 l 829 -299 q 768 -314 798 -309 q 697 -319 738 -319 q 535 -277 590 -319 q 481 -162 481 -235 q 561 -15 481 -72 q 268 27 381 -15 q 100 156 154 69 q 46 379 46 243 q 96 590 46 500 q 243 728 146 679 q 479 776 340 776 q 701 727 610 776 q 836 586 791 678 q 882 368 882 494 l 882 297 m 474 581 q 391 551 418 581 q 361 457 363 521 l 586 457 q 556 551 583 521 q 474 581 529 581 z "},"ẽ":{"ha":921,"x_min":46,"x_max":882,"o":"m 882 297 l 363 297 q 392 245 369 264 q 467 218 415 226 q 614 210 519 210 q 829 226 710 210 l 829 6 q 563 -15 706 -15 q 269 27 383 -15 q 100 156 155 69 q 46 379 46 243 q 96 590 46 500 q 243 728 146 679 q 479 776 340 776 q 701 727 610 776 q 836 586 791 678 q 882 368 882 494 l 882 297 m 474 588 q 391 558 418 588 q 361 464 363 528 l 586 464 q 556 558 583 528 q 474 588 529 588 m 597 861 q 534 870 564 861 q 462 898 503 880 q 396 923 423 915 q 342 932 369 932 q 260 917 297 932 q 185 868 224 902 l 185 1050 q 258 1095 219 1081 q 350 1110 298 1110 q 414 1100 383 1110 q 485 1073 444 1091 q 551 1048 524 1056 q 606 1039 578 1039 q 687 1054 651 1039 q 763 1103 723 1069 l 763 921 q 689 875 728 890 q 597 861 649 861 z "},"ə":{"ha":921,"x_min":39,"x_max":875,"o":"m 358 779 q 652 737 538 779 q 820 608 766 695 q 875 385 875 521 q 825 174 875 264 q 678 36 775 85 q 442 -12 581 -12 q 220 37 310 -12 q 84 178 130 86 q 39 396 39 269 l 39 467 l 558 467 q 529 519 552 500 q 453 546 506 538 q 307 554 401 554 q 92 538 210 554 l 92 758 q 358 779 215 779 m 447 176 q 530 206 503 176 q 560 300 558 236 l 335 300 q 365 206 338 236 q 447 176 392 176 z "},"f":{"ha":681,"x_min":35,"x_max":713,"o":"m 636 890 q 519 861 556 890 q 482 774 482 831 l 482 764 l 674 764 l 674 514 l 482 514 l 482 0 l 160 0 l 160 514 l 35 514 l 35 764 l 160 764 q 210 960 160 876 q 356 1090 261 1044 q 581 1136 451 1136 q 647 1134 619 1136 q 713 1128 675 1133 l 713 886 q 636 890 671 890 z "},"g":{"ha":1035,"x_min":46,"x_max":954,"o":"m 433 -319 q 264 -311 344 -319 q 103 -285 184 -303 l 103 -43 q 265 -73 185 -63 q 408 -83 346 -83 q 581 -50 530 -83 q 632 50 632 -17 l 632 82 l 618 82 q 392 4 532 4 q 218 47 297 4 q 93 172 140 90 q 46 365 46 253 q 105 585 46 492 q 281 727 164 677 q 567 776 397 776 q 771 763 665 776 q 954 726 877 750 l 954 114 q 899 -132 954 -36 q 729 -273 844 -227 q 433 -319 614 -319 m 510 257 q 574 264 542 257 q 632 283 606 270 l 632 531 q 539 540 588 540 q 409 502 453 540 q 364 390 364 463 q 510 257 364 257 z "},"ǵ":{"ha":1035,"x_min":46,"x_max":954,"o":"m 433 -319 q 264 -311 344 -319 q 103 -285 184 -303 l 103 -43 q 265 -73 185 -63 q 408 -83 346 -83 q 581 -50 530 -83 q 632 50 632 -17 l 632 82 l 618 82 q 392 4 532 4 q 218 47 297 4 q 93 172 140 90 q 46 365 46 253 q 105 585 46 492 q 281 727 164 677 q 567 776 397 776 q 771 763 665 776 q 954 726 877 750 l 954 114 q 899 -132 954 -36 q 729 -273 844 -227 q 433 -319 614 -319 m 510 257 q 574 264 542 257 q 632 283 606 270 l 632 531 q 539 540 588 540 q 409 502 453 540 q 364 390 364 463 q 510 257 364 257 m 389 847 l 568 1122 l 921 1122 l 694 847 l 389 847 z "},"ğ":{"ha":1035,"x_min":46,"x_max":954,"o":"m 433 -319 q 264 -311 344 -319 q 103 -285 184 -303 l 103 -43 q 265 -73 185 -63 q 408 -83 346 -83 q 581 -50 530 -83 q 632 50 632 -17 l 632 82 l 618 82 q 392 4 532 4 q 218 47 297 4 q 93 172 140 90 q 46 365 46 253 q 105 585 46 492 q 281 727 164 677 q 567 776 397 776 q 771 763 665 776 q 954 726 877 750 l 954 114 q 899 -132 954 -36 q 729 -273 844 -227 q 433 -319 614 -319 m 510 257 q 574 264 542 257 q 632 283 606 270 l 632 531 q 539 540 588 540 q 409 502 453 540 q 364 390 364 463 q 510 257 364 257 m 542 850 q 311 918 393 850 q 222 1108 230 986 l 410 1108 q 448 1028 416 1056 q 542 1001 480 1001 q 635 1028 603 1001 q 674 1108 667 1056 l 861 1108 q 772 918 853 986 q 542 850 690 850 z "},"ǧ":{"ha":1035,"x_min":46,"x_max":954,"o":"m 433 -319 q 264 -311 344 -319 q 103 -285 184 -303 l 103 -43 q 265 -73 185 -63 q 408 -83 346 -83 q 581 -50 530 -83 q 632 50 632 -17 l 632 82 l 618 82 q 392 4 532 4 q 218 47 297 4 q 93 172 140 90 q 46 365 46 253 q 105 585 46 492 q 281 727 164 677 q 567 776 397 776 q 771 763 665 776 q 954 726 877 750 l 954 114 q 899 -132 954 -36 q 729 -273 844 -227 q 433 -319 614 -319 m 510 257 q 574 264 542 257 q 632 283 606 270 l 632 531 q 539 540 588 540 q 409 502 453 540 q 364 390 364 463 q 510 257 364 257 m 632 1122 l 864 1122 l 665 847 l 418 847 l 219 1122 l 451 1122 l 542 992 l 632 1122 z "},"ĝ":{"ha":1035,"x_min":46,"x_max":954,"o":"m 433 -319 q 264 -311 344 -319 q 103 -285 184 -303 l 103 -43 q 265 -73 185 -63 q 408 -83 346 -83 q 581 -50 530 -83 q 632 50 632 -17 l 632 82 l 618 82 q 392 4 532 4 q 218 47 297 4 q 93 172 140 90 q 46 365 46 253 q 105 585 46 492 q 281 727 164 677 q 567 776 397 776 q 771 763 665 776 q 954 726 877 750 l 954 114 q 899 -132 954 -36 q 729 -273 844 -227 q 433 -319 614 -319 m 510 257 q 574 264 542 257 q 632 283 606 270 l 632 531 q 539 540 588 540 q 409 502 453 540 q 364 390 364 463 q 510 257 364 257 m 864 847 l 632 847 l 542 977 l 451 847 l 219 847 l 418 1122 l 665 1122 l 864 847 z "},"ģ":{"ha":1035,"x_min":46,"x_max":954,"o":"m 433 -319 q 264 -311 344 -319 q 103 -285 184 -303 l 103 -43 q 265 -73 185 -63 q 408 -83 346 -83 q 581 -50 530 -83 q 632 50 632 -17 l 632 82 l 618 82 q 392 4 532 4 q 218 47 297 4 q 93 172 140 90 q 46 365 46 253 q 105 585 46 492 q 281 727 164 677 q 567 776 397 776 q 771 763 665 776 q 954 726 877 750 l 954 114 q 899 -132 954 -36 q 729 -273 844 -227 q 433 -319 614 -319 m 510 257 q 574 264 542 257 q 632 283 606 270 l 632 531 q 539 540 588 540 q 409 502 453 540 q 364 390 364 463 q 510 257 364 257 m 586 1028 q 684 999 654 1022 q 714 936 714 976 q 672 866 714 890 q 542 842 631 842 q 369 965 369 842 q 388 1054 369 1008 q 436 1131 406 1099 l 631 1131 q 586 1028 597 1072 z "},"ġ":{"ha":1035,"x_min":46,"x_max":954,"o":"m 433 -319 q 264 -311 344 -319 q 103 -285 184 -303 l 103 -43 q 265 -73 185 -63 q 408 -83 346 -83 q 581 -50 530 -83 q 632 50 632 -17 l 632 82 l 618 82 q 392 4 532 4 q 218 47 297 4 q 93 172 140 90 q 46 365 46 253 q 105 585 46 492 q 281 727 164 677 q 567 776 397 776 q 771 763 665 776 q 954 726 877 750 l 954 114 q 899 -132 954 -36 q 729 -273 844 -227 q 433 -319 614 -319 m 510 257 q 574 264 542 257 q 632 283 606 270 l 632 531 q 539 540 588 540 q 409 502 453 540 q 364 390 364 463 q 510 257 364 257 m 542 838 q 398 875 444 838 q 351 985 351 912 q 398 1095 351 1058 q 542 1132 444 1132 q 685 1095 639 1132 q 732 985 732 1058 q 685 875 732 912 q 542 838 639 838 z "},"ḡ":{"ha":1035,"x_min":46,"x_max":954,"o":"m 433 -319 q 264 -311 344 -319 q 103 -285 184 -303 l 103 -43 q 265 -73 185 -63 q 408 -83 346 -83 q 581 -50 530 -83 q 632 50 632 -17 l 632 82 l 618 82 q 392 4 532 4 q 218 47 297 4 q 93 172 140 90 q 46 365 46 253 q 105 585 46 492 q 281 727 164 677 q 567 776 397 776 q 771 763 665 776 q 954 726 877 750 l 954 114 q 899 -132 954 -36 q 729 -273 844 -227 q 433 -319 614 -319 m 510 257 q 574 264 542 257 q 632 283 606 270 l 632 531 q 539 540 588 540 q 409 502 453 540 q 364 390 364 463 q 510 257 364 257 m 253 899 l 253 1072 l 831 1072 l 831 899 l 253 899 z "},"h":{"ha":1015,"x_min":81,"x_max":940,"o":"m 81 1122 l 403 1122 l 403 699 l 417 699 q 517 757 460 737 q 636 776 574 776 q 793 739 725 776 q 901 622 861 701 q 940 422 940 543 l 940 0 l 618 0 l 618 404 q 595 486 618 463 q 525 510 573 510 q 457 498 489 510 q 403 465 424 485 l 403 0 l 81 0 l 81 1122 z "},"ħ":{"ha":1015,"x_min":1,"x_max":940,"o":"m 636 776 q 793 739 725 776 q 901 622 861 701 q 940 422 940 543 l 940 0 l 618 0 l 618 404 q 595 486 618 463 q 525 510 573 510 q 457 498 489 510 q 403 465 424 485 l 403 0 l 81 0 l 81 847 l 1 847 l 1 1028 l 81 1028 l 81 1122 l 403 1122 l 403 1028 l 696 1028 l 696 847 l 403 847 l 403 699 l 417 699 q 517 757 460 737 q 636 776 574 776 z "},"ḫ":{"ha":1015,"x_min":81,"x_max":940,"o":"m 81 1122 l 403 1122 l 403 699 l 417 699 q 517 757 460 737 q 636 776 574 776 q 793 739 725 776 q 901 622 861 701 q 940 422 940 543 l 940 0 l 618 0 l 618 404 q 595 486 618 463 q 525 510 573 510 q 457 498 489 510 q 403 465 424 485 l 403 0 l 81 0 l 81 1122 m 511 -335 q 342 -306 413 -335 q 233 -224 271 -278 q 192 -96 194 -170 l 379 -96 q 511 -183 385 -183 q 643 -96 637 -183 l 831 -96 q 790 -224 828 -170 q 681 -306 751 -278 q 511 -335 610 -335 z "},"ĥ":{"ha":1015,"x_min":81,"x_max":940,"o":"m 81 1122 l 403 1122 l 403 699 l 417 699 q 517 757 460 737 q 636 776 574 776 q 793 739 725 776 q 901 622 861 701 q 940 422 940 543 l 940 0 l 618 0 l 618 404 q 595 486 618 463 q 525 510 573 510 q 457 498 489 510 q 403 465 424 485 l 403 0 l 81 0 l 81 1122 m 875 1168 l 622 1168 l 511 1276 l 400 1168 l 147 1168 l 378 1388 l 644 1388 l 875 1168 z "},"ḥ":{"ha":1015,"x_min":81,"x_max":940,"o":"m 81 1122 l 403 1122 l 403 699 l 417 699 q 517 757 460 737 q 636 776 574 776 q 793 739 725 776 q 901 622 861 701 q 940 422 940 543 l 940 0 l 618 0 l 618 404 q 595 486 618 463 q 525 510 573 510 q 457 498 489 510 q 403 465 424 485 l 403 0 l 81 0 l 81 1122 m 511 -347 q 389 -311 429 -347 q 349 -210 349 -274 q 389 -109 349 -145 q 511 -72 429 -72 q 633 -109 593 -72 q 674 -210 674 -145 q 633 -311 674 -274 q 511 -347 593 -347 z "},"i":{"ha":483,"x_min":51,"x_max":432,"o":"m 81 0 l 81 764 l 403 764 l 403 0 l 81 0 m 242 838 q 98 875 144 838 q 51 985 51 912 q 98 1095 51 1058 q 242 1132 144 1132 q 385 1095 339 1132 q 432 985 432 1058 q 385 875 432 912 q 242 838 339 838 z "},"ı":{"ha":483,"x_min":81,"x_max":403,"o":"m 81 0 l 81 764 l 403 764 l 403 0 l 81 0 z "},"í":{"ha":483,"x_min":81,"x_max":621,"o":"m 81 0 l 81 764 l 403 764 l 403 0 l 81 0 m 89 847 l 268 1122 l 621 1122 l 394 847 l 89 847 z "},"ĭ":{"ha":483,"x_min":-78,"x_max":561,"o":"m 81 0 l 81 764 l 403 764 l 403 0 l 81 0 m 242 850 q 11 918 93 850 q -78 1108 -70 986 l 110 1108 q 148 1028 116 1056 q 242 1001 180 1001 q 335 1028 303 1001 q 374 1108 367 1056 l 561 1108 q 472 918 553 986 q 242 850 390 850 z "},"î":{"ha":483,"x_min":-81,"x_max":564,"o":"m 81 0 l 81 764 l 403 764 l 403 0 l 81 0 m 564 847 l 332 847 l 242 977 l 151 847 l -81 847 l 118 1122 l 365 1122 l 564 847 z "},"ȉ":{"ha":483,"x_min":-165,"x_max":518,"o":"m 81 0 l 81 764 l 403 764 l 403 0 l 81 0 m -35 847 l -165 1122 l 76 1122 l 190 847 l -35 847 m 293 847 l 163 1122 l 404 1122 l 518 847 l 293 847 z "},"ï":{"ha":483,"x_min":-119,"x_max":603,"o":"m 81 0 l 81 764 l 403 764 l 403 0 l 81 0 m 43 840 q -80 878 -40 840 q -119 985 -119 915 q -80 1092 -119 1054 q 43 1129 -40 1129 q 166 1092 126 1129 q 206 985 206 1054 q 166 878 206 915 q 43 840 126 840 m 440 840 q 318 878 358 840 q 278 985 278 915 q 318 1092 278 1054 q 440 1129 358 1129 q 563 1092 523 1129 q 603 985 603 1054 q 563 878 603 915 q 440 840 523 840 z "},"ḯ":{"ha":483,"x_min":-119,"x_max":603,"o":"m 81 0 l 81 764 l 403 764 l 403 0 l 81 0 m 43 840 q -80 878 -40 840 q -119 985 -119 915 q -80 1092 -119 1054 q 43 1129 -40 1129 q 166 1092 126 1129 q 206 985 206 1054 q 166 878 206 915 q 43 840 126 840 m 440 840 q 318 878 358 840 q 278 985 278 915 q 318 1092 278 1054 q 440 1129 358 1129 q 563 1092 523 1129 q 603 985 603 1054 q 563 878 603 915 q 440 840 523 840 m 93 1168 l 235 1388 l 574 1388 l 385 1168 l 93 1168 z "},"ị":{"ha":483,"x_min":51,"x_max":432,"o":"m 81 0 l 81 764 l 403 764 l 403 0 l 81 0 m 242 838 q 98 875 144 838 q 51 985 51 912 q 98 1095 51 1058 q 242 1132 144 1132 q 385 1095 339 1132 q 432 985 432 1058 q 385 875 432 912 q 242 838 339 838 m 242 -347 q 119 -311 160 -347 q 79 -210 79 -274 q 119 -109 79 -145 q 242 -72 160 -72 q 364 -109 324 -72 q 404 -210 404 -145 q 364 -311 404 -274 q 242 -347 324 -347 z "},"ì":{"ha":483,"x_min":-137,"x_max":403,"o":"m 81 0 l 81 764 l 403 764 l 403 0 l 81 0 m 89 847 l -137 1122 l 215 1122 l 394 847 l 89 847 z "},"ỉ":{"ha":483,"x_min":81,"x_max":436,"o":"m 81 0 l 81 764 l 403 764 l 403 0 l 81 0 m 167 847 q 180 897 168 876 q 207 931 192 918 q 244 958 222 944 q 272 980 264 972 q 281 999 281 988 q 266 1017 281 1012 q 214 1022 252 1022 q 85 1006 153 1022 l 85 1113 q 158 1126 114 1122 q 238 1131 201 1131 q 388 1103 340 1131 q 436 1018 436 1076 q 427 974 436 992 q 406 944 419 956 q 372 917 392 932 q 332 884 345 899 q 317 847 319 870 l 167 847 z "},"ȋ":{"ha":483,"x_min":-78,"x_max":561,"o":"m 81 0 l 81 764 l 403 764 l 403 0 l 81 0 m -78 867 q 11 1057 -70 989 q 242 1125 93 1125 q 472 1057 390 1125 q 561 867 553 989 l 374 867 q 335 947 367 919 q 242 974 303 974 q 148 947 180 974 q 110 867 116 919 l -78 867 z "},"ī":{"ha":483,"x_min":-47,"x_max":531,"o":"m 81 0 l 81 764 l 403 764 l 403 0 l 81 0 m -47 899 l -47 1072 l 531 1072 l 531 899 l -47 899 z "},"į":{"ha":483,"x_min":51,"x_max":432,"o":"m 242 838 q 98 875 144 838 q 51 985 51 912 q 98 1095 51 1058 q 242 1132 144 1132 q 385 1095 339 1132 q 432 985 432 1058 q 385 875 432 912 q 242 838 339 838 m 246 -139 q 268 -186 246 -169 q 335 -204 291 -204 q 417 -187 376 -204 l 417 -299 q 356 -314 385 -309 q 285 -319 326 -319 q 123 -277 178 -319 q 68 -162 68 -235 q 92 -73 68 -113 q 173 0 117 -32 l 81 0 l 81 764 l 403 764 l 403 0 q 281 -63 316 -30 q 246 -139 246 -96 z "},"ĩ":{"ha":483,"x_min":-47,"x_max":531,"o":"m 81 0 l 81 764 l 403 764 l 403 0 l 81 0 m 365 861 q 302 870 332 861 q 230 898 272 880 q 164 923 191 915 q 110 932 138 932 q 28 917 65 932 q -47 868 -8 902 l -47 1050 q 26 1095 -13 1081 q 118 1110 66 1110 q 182 1100 151 1110 q 253 1073 212 1091 q 319 1048 292 1056 q 374 1039 346 1039 q 455 1054 419 1039 q 531 1103 491 1069 l 531 921 q 457 875 497 890 q 365 861 417 861 z "},"j":{"ha":483,"x_min":-21,"x_max":425,"o":"m -21 -197 q 58 -57 35 -129 q 81 125 81 16 l 81 764 l 403 764 l 403 136 q 352 -109 403 1 q 179 -331 301 -220 l -21 -197 m 235 838 q 91 875 138 838 q 44 985 44 912 q 91 1095 44 1058 q 235 1132 138 1132 q 378 1095 332 1132 q 425 985 425 1058 q 378 875 425 912 q 235 838 332 838 z "},"ȷ":{"ha":483,"x_min":-21,"x_max":403,"o":"m -21 -197 q 58 -57 35 -129 q 81 125 81 16 l 81 764 l 403 764 l 403 136 q 352 -109 403 1 q 179 -331 301 -220 l -21 -197 z "},"ĵ":{"ha":483,"x_min":-87,"x_max":557,"o":"m -21 -197 q 58 -57 35 -129 q 81 125 81 16 l 81 764 l 403 764 l 403 136 q 352 -109 403 1 q 179 -331 301 -220 l -21 -197 m 557 847 l 325 847 l 235 977 l 144 847 l -87 847 l 111 1122 l 358 1122 l 557 847 z "},"k":{"ha":1011,"x_min":81,"x_max":1038,"o":"m 688 0 l 499 264 l 403 264 l 403 0 l 81 0 l 81 1122 l 403 1122 l 403 522 l 498 522 l 668 764 l 1011 764 l 764 401 l 1038 0 l 688 0 z "},"ķ":{"ha":1011,"x_min":81,"x_max":1038,"o":"m 688 0 l 499 264 l 403 264 l 403 0 l 81 0 l 81 1122 l 403 1122 l 403 522 l 498 522 l 668 764 l 1011 764 l 764 401 l 1038 0 l 688 0 m 519 -72 q 692 -196 692 -72 q 673 -284 692 -239 q 625 -361 655 -330 l 431 -361 q 475 -258 465 -303 q 377 -230 407 -253 q 347 -167 347 -206 q 389 -96 347 -120 q 519 -72 431 -72 z "},"ĸ":{"ha":1011,"x_min":81,"x_max":1038,"o":"m 688 0 l 499 264 l 403 264 l 403 0 l 81 0 l 81 764 l 403 764 l 403 522 l 498 522 l 668 764 l 1011 764 l 764 401 l 1038 0 l 688 0 z "},"l":{"ha":483,"x_min":81,"x_max":403,"o":"m 81 0 l 81 1122 l 403 1122 l 403 0 l 81 0 z "},"ĺ":{"ha":483,"x_min":81,"x_max":574,"o":"m 81 0 l 81 1122 l 403 1122 l 403 0 l 81 0 m 93 1168 l 235 1388 l 574 1388 l 385 1168 l 93 1168 z "},"ľ":{"ha":483,"x_min":81,"x_max":676,"o":"m 81 0 l 81 1122 l 403 1122 l 403 0 l 81 0 m 447 819 q 467 969 461 900 q 472 1122 472 1038 l 676 1122 q 660 957 676 1036 q 614 819 643 878 l 447 819 z "},"ļ":{"ha":483,"x_min":68,"x_max":413,"o":"m 81 0 l 81 1122 l 403 1122 l 403 0 l 81 0 m 240 -72 q 413 -196 413 -72 q 394 -284 413 -239 q 346 -361 376 -330 l 151 -361 q 196 -258 185 -303 q 98 -230 128 -253 q 68 -167 68 -206 q 110 -96 68 -120 q 240 -72 151 -72 z "},"ŀ":{"ha":794,"x_min":81,"x_max":828,"o":"m 81 0 l 81 1122 l 403 1122 l 403 0 l 81 0 m 638 404 q 494 441 540 404 q 447 551 447 478 q 494 661 447 624 q 638 699 540 699 q 781 661 735 699 q 828 551 828 624 q 781 441 828 478 q 638 404 735 404 z "},"ḷ":{"ha":483,"x_min":78,"x_max":403,"o":"m 81 0 l 81 1122 l 403 1122 l 403 0 l 81 0 m 240 -347 q 118 -311 158 -347 q 78 -210 78 -274 q 118 -109 78 -145 q 240 -72 158 -72 q 363 -109 322 -72 q 403 -210 403 -145 q 363 -311 403 -274 q 240 -347 322 -347 z "},"ǉ":{"ha":967,"x_min":81,"x_max":908,"o":"m 81 0 l 81 1122 l 403 1122 l 403 0 l 81 0 m 463 -197 q 541 -57 519 -129 q 564 125 564 16 l 564 764 l 886 764 l 886 136 q 835 -109 886 1 q 663 -331 784 -220 l 463 -197 m 718 838 q 574 875 621 838 q 528 985 528 912 q 574 1095 528 1058 q 718 1132 621 1132 q 862 1095 815 1132 q 908 985 908 1058 q 862 875 908 912 q 718 838 815 838 z "},"ḻ":{"ha":483,"x_min":-49,"x_max":529,"o":"m 81 0 l 81 1122 l 403 1122 l 403 0 l 81 0 m -49 -293 l -49 -121 l 529 -121 l 529 -293 l -49 -293 z "},"ł":{"ha":539,"x_min":-29,"x_max":568,"o":"m 568 535 l 431 469 l 431 0 l 108 0 l 108 315 l 53 289 l -29 457 l 108 522 l 108 1122 l 431 1122 l 431 676 l 486 703 l 568 535 z "},"m":{"ha":1476,"x_min":81,"x_max":1401,"o":"m 1090 776 q 1318 689 1235 776 q 1401 422 1401 602 l 1401 0 l 1081 0 l 1081 404 q 1059 486 1081 462 q 996 510 1037 510 q 902 480 937 510 q 904 426 904 455 l 904 0 l 589 0 l 589 404 q 570 486 589 463 q 510 510 551 510 q 448 498 476 510 q 403 465 420 486 l 403 0 l 81 0 l 81 764 l 343 764 l 363 697 l 376 697 q 478 756 419 735 q 610 776 538 776 q 736 753 680 776 q 831 682 792 730 q 1090 776 940 776 z "},"ṃ":{"ha":1476,"x_min":81,"x_max":1401,"o":"m 1090 776 q 1318 689 1235 776 q 1401 422 1401 602 l 1401 0 l 1081 0 l 1081 404 q 1059 486 1081 462 q 996 510 1037 510 q 902 480 937 510 q 904 426 904 455 l 904 0 l 589 0 l 589 404 q 570 486 589 463 q 510 510 551 510 q 448 498 476 510 q 403 465 420 486 l 403 0 l 81 0 l 81 764 l 343 764 l 363 697 l 376 697 q 478 756 419 735 q 610 776 538 776 q 736 753 680 776 q 831 682 792 730 q 1090 776 940 776 m 747 -347 q 625 -311 665 -347 q 585 -210 585 -274 q 625 -109 585 -145 q 747 -72 665 -72 q 869 -109 829 -72 q 910 -210 910 -145 q 869 -311 910 -274 q 747 -347 829 -347 z "},"n":{"ha":1015,"x_min":81,"x_max":940,"o":"m 81 764 l 343 764 l 363 697 l 376 697 q 485 756 422 735 q 621 776 549 776 q 854 689 768 776 q 940 422 940 602 l 940 0 l 618 0 l 618 404 q 595 486 618 463 q 525 510 573 510 q 457 498 489 510 q 403 465 424 485 l 403 0 l 81 0 l 81 764 z "},"ń":{"ha":1015,"x_min":81,"x_max":940,"o":"m 81 764 l 343 764 l 363 697 l 376 697 q 485 756 422 735 q 621 776 549 776 q 854 689 768 776 q 940 422 940 602 l 940 0 l 618 0 l 618 404 q 595 486 618 463 q 525 510 573 510 q 457 498 489 510 q 403 465 424 485 l 403 0 l 81 0 l 81 764 m 358 847 l 538 1122 l 890 1122 l 664 847 l 358 847 z "},"ŉ":{"ha":1015,"x_min":8,"x_max":940,"o":"m 81 764 l 343 764 l 363 697 l 376 697 q 485 756 422 735 q 621 776 549 776 q 854 689 768 776 q 940 422 940 602 l 940 0 l 618 0 l 618 404 q 595 486 618 463 q 525 510 573 510 q 457 498 489 510 q 403 465 424 485 l 403 0 l 81 0 l 81 764 m 181 1131 q 353 1007 353 1131 q 334 918 353 964 q 286 842 316 873 l 92 842 q 136 944 126 900 q 38 973 68 950 q 8 1036 8 997 q 50 1107 8 1083 q 181 1131 92 1131 z "},"ň":{"ha":1015,"x_min":81,"x_max":940,"o":"m 81 764 l 343 764 l 363 697 l 376 697 q 485 756 422 735 q 621 776 549 776 q 854 689 768 776 q 940 422 940 602 l 940 0 l 618 0 l 618 404 q 595 486 618 463 q 525 510 573 510 q 457 498 489 510 q 403 465 424 485 l 403 0 l 81 0 l 81 764 m 601 1122 l 833 1122 l 635 847 l 388 847 l 189 1122 l 421 1122 l 511 992 l 601 1122 z "},"ņ":{"ha":1015,"x_min":81,"x_max":940,"o":"m 81 764 l 343 764 l 363 697 l 376 697 q 485 756 422 735 q 621 776 549 776 q 854 689 768 776 q 940 422 940 602 l 940 0 l 618 0 l 618 404 q 595 486 618 463 q 525 510 573 510 q 457 498 489 510 q 403 465 424 485 l 403 0 l 81 0 l 81 764 m 511 -72 q 683 -196 683 -72 q 665 -284 683 -239 q 617 -361 647 -330 l 422 -361 q 467 -258 456 -303 q 369 -230 399 -253 q 339 -167 339 -206 q 381 -96 339 -120 q 511 -72 422 -72 z "},"ṅ":{"ha":1015,"x_min":81,"x_max":940,"o":"m 81 764 l 343 764 l 363 697 l 376 697 q 485 756 422 735 q 621 776 549 776 q 854 689 768 776 q 940 422 940 602 l 940 0 l 618 0 l 618 404 q 595 486 618 463 q 525 510 573 510 q 457 498 489 510 q 403 465 424 485 l 403 0 l 81 0 l 81 764 m 511 838 q 367 875 414 838 q 321 985 321 912 q 367 1095 321 1058 q 511 1132 414 1132 q 655 1095 608 1132 q 701 985 701 1058 q 655 875 701 912 q 511 838 608 838 z "},"ṇ":{"ha":1015,"x_min":81,"x_max":940,"o":"m 81 764 l 343 764 l 363 697 l 376 697 q 485 756 422 735 q 621 776 549 776 q 854 689 768 776 q 940 422 940 602 l 940 0 l 618 0 l 618 404 q 595 486 618 463 q 525 510 573 510 q 457 498 489 510 q 403 465 424 485 l 403 0 l 81 0 l 81 764 m 511 -347 q 389 -311 429 -347 q 349 -210 349 -274 q 389 -109 349 -145 q 511 -72 429 -72 q 633 -109 593 -72 q 674 -210 674 -145 q 633 -311 674 -274 q 511 -347 593 -347 z "},"ŋ":{"ha":1015,"x_min":81,"x_max":940,"o":"m 517 -197 q 595 -57 573 -129 q 618 125 618 16 l 618 404 q 595 486 618 463 q 525 510 573 510 q 457 498 489 510 q 403 465 424 485 l 403 0 l 81 0 l 81 764 l 343 764 l 363 697 l 376 697 q 485 756 422 735 q 621 776 549 776 q 854 689 768 776 q 940 422 940 602 l 940 136 q 889 -109 940 1 q 717 -331 838 -220 l 517 -197 z "},"ǌ":{"ha":1499,"x_min":81,"x_max":1440,"o":"m 81 764 l 343 764 l 363 697 l 376 697 q 485 756 422 735 q 621 776 549 776 q 854 689 768 776 q 940 422 940 602 l 940 0 l 618 0 l 618 404 q 595 486 618 463 q 525 510 573 510 q 457 498 489 510 q 403 465 424 485 l 403 0 l 81 0 l 81 764 m 994 -197 q 1073 -57 1051 -129 q 1096 125 1096 16 l 1096 764 l 1418 764 l 1418 136 q 1367 -109 1418 1 q 1194 -331 1316 -220 l 994 -197 m 1250 838 q 1106 875 1153 838 q 1060 985 1060 912 q 1106 1095 1060 1058 q 1250 1132 1153 1132 q 1394 1095 1347 1132 q 1440 985 1440 1058 q 1394 875 1440 912 q 1250 838 1347 838 z "},"ṉ":{"ha":1015,"x_min":81,"x_max":940,"o":"m 81 764 l 343 764 l 363 697 l 376 697 q 485 756 422 735 q 621 776 549 776 q 854 689 768 776 q 940 422 940 602 l 940 0 l 618 0 l 618 404 q 595 486 618 463 q 525 510 573 510 q 457 498 489 510 q 403 465 424 485 l 403 0 l 81 0 l 81 764 m 222 -293 l 222 -121 l 800 -121 l 800 -293 l 222 -293 z "},"ñ":{"ha":1015,"x_min":81,"x_max":940,"o":"m 81 764 l 343 764 l 363 697 l 376 697 q 485 756 422 735 q 621 776 549 776 q 854 689 768 776 q 940 422 940 602 l 940 0 l 618 0 l 618 404 q 595 486 618 463 q 525 510 573 510 q 457 498 489 510 q 403 465 424 485 l 403 0 l 81 0 l 81 764 m 635 861 q 571 870 601 861 q 499 898 541 880 q 434 923 460 915 q 379 932 407 932 q 298 917 334 932 q 222 868 262 902 l 222 1050 q 296 1095 256 1081 q 388 1110 335 1110 q 451 1100 421 1110 q 523 1073 481 1091 q 589 1048 562 1056 q 643 1039 615 1039 q 724 1054 688 1039 q 800 1103 760 1069 l 800 921 q 726 875 766 890 q 635 861 687 861 z "},"o":{"ha":1017,"x_min":46,"x_max":971,"o":"m 508 -15 q 265 33 369 -15 q 103 170 160 81 q 46 382 46 260 q 100 594 46 505 q 258 730 154 683 q 508 776 363 776 q 758 730 654 776 q 917 594 863 683 q 971 382 971 505 q 914 170 971 260 q 752 33 856 81 q 508 -15 647 -15 m 508 226 q 616 265 580 226 q 653 382 653 303 q 617 498 653 461 q 508 535 581 535 q 400 498 436 535 q 364 382 364 461 q 400 265 364 303 q 508 226 437 226 z "},"ó":{"ha":1017,"x_min":46,"x_max":971,"o":"m 508 -15 q 265 33 369 -15 q 103 170 160 81 q 46 382 46 260 q 100 594 46 505 q 258 730 154 683 q 508 776 363 776 q 758 730 654 776 q 917 594 863 683 q 971 382 971 505 q 914 170 971 260 q 752 33 856 81 q 508 -15 647 -15 m 508 226 q 616 265 580 226 q 653 382 653 303 q 617 498 653 461 q 508 535 581 535 q 400 498 436 535 q 364 382 364 461 q 400 265 364 303 q 508 226 437 226 m 356 847 l 535 1122 l 888 1122 l 661 847 l 356 847 z "},"ŏ":{"ha":1017,"x_min":46,"x_max":971,"o":"m 508 -15 q 265 33 369 -15 q 103 170 160 81 q 46 382 46 260 q 100 594 46 505 q 258 730 154 683 q 508 776 363 776 q 758 730 654 776 q 917 594 863 683 q 971 382 971 505 q 914 170 971 260 q 752 33 856 81 q 508 -15 647 -15 m 508 226 q 616 265 580 226 q 653 382 653 303 q 617 498 653 461 q 508 535 581 535 q 400 498 436 535 q 364 382 364 461 q 400 265 364 303 q 508 226 437 226 m 508 850 q 278 918 360 850 q 189 1108 197 986 l 376 1108 q 415 1028 383 1056 q 508 1001 447 1001 q 602 1028 570 1001 q 640 1108 634 1056 l 828 1108 q 739 918 820 986 q 508 850 657 850 z "},"ô":{"ha":1017,"x_min":46,"x_max":971,"o":"m 508 -15 q 265 33 369 -15 q 103 170 160 81 q 46 382 46 260 q 100 594 46 505 q 258 730 154 683 q 508 776 363 776 q 758 730 654 776 q 917 594 863 683 q 971 382 971 505 q 914 170 971 260 q 752 33 856 81 q 508 -15 647 -15 m 508 226 q 616 265 580 226 q 653 382 653 303 q 617 498 653 461 q 508 535 581 535 q 400 498 436 535 q 364 382 364 461 q 400 265 364 303 q 508 226 437 226 m 831 847 l 599 847 l 508 977 l 418 847 l 186 847 l 385 1122 l 632 1122 l 831 847 z "},"ố":{"ha":1017,"x_min":46,"x_max":1093,"o":"m 508 -15 q 265 33 369 -15 q 103 170 160 81 q 46 382 46 260 q 100 594 46 505 q 258 730 154 683 q 508 776 363 776 q 758 730 654 776 q 917 594 863 683 q 971 382 971 505 q 914 170 971 260 q 752 33 856 81 q 508 -15 647 -15 m 508 226 q 616 265 580 226 q 653 382 653 303 q 617 498 653 461 q 508 535 581 535 q 400 498 436 535 q 364 382 364 461 q 400 265 364 303 q 508 226 437 226 m 824 1297 l 1093 1297 l 904 1110 l 682 1110 l 824 1297 m 385 1122 l 632 1122 l 831 847 l 599 847 l 508 977 l 418 847 l 186 847 l 385 1122 z "},"ộ":{"ha":1017,"x_min":46,"x_max":971,"o":"m 508 -15 q 265 33 369 -15 q 103 170 160 81 q 46 382 46 260 q 100 594 46 505 q 258 730 154 683 q 508 776 363 776 q 758 730 654 776 q 917 594 863 683 q 971 382 971 505 q 914 170 971 260 q 752 33 856 81 q 508 -15 647 -15 m 508 226 q 616 265 580 226 q 653 382 653 303 q 617 498 653 461 q 508 535 581 535 q 400 498 436 535 q 364 382 364 461 q 400 265 364 303 q 508 226 437 226 m 508 -347 q 386 -311 426 -347 q 346 -210 346 -274 q 386 -109 346 -145 q 508 -72 426 -72 q 631 -109 590 -72 q 671 -210 671 -145 q 631 -311 671 -274 q 508 -347 590 -347 m 831 847 l 599 847 l 508 977 l 418 847 l 186 847 l 385 1122 l 632 1122 l 831 847 z "},"ồ":{"ha":1017,"x_min":46,"x_max":971,"o":"m 508 -15 q 265 33 369 -15 q 103 170 160 81 q 46 382 46 260 q 100 594 46 505 q 258 730 154 683 q 508 776 363 776 q 758 730 654 776 q 917 594 863 683 q 971 382 971 505 q 914 170 971 260 q 752 33 856 81 q 508 -15 647 -15 m 508 226 q 616 265 580 226 q 653 382 653 303 q 617 498 653 461 q 508 535 581 535 q 400 498 436 535 q 364 382 364 461 q 400 265 364 303 q 508 226 437 226 m 932 1110 l 710 1110 l 521 1297 l 790 1297 l 932 1110 m 385 1122 l 632 1122 l 831 847 l 599 847 l 508 977 l 418 847 l 186 847 l 385 1122 z "},"ổ":{"ha":1017,"x_min":46,"x_max":971,"o":"m 508 -15 q 265 33 369 -15 q 103 170 160 81 q 46 382 46 260 q 100 594 46 505 q 258 730 154 683 q 508 776 363 776 q 758 730 654 776 q 917 594 863 683 q 971 382 971 505 q 914 170 971 260 q 752 33 856 81 q 508 -15 647 -15 m 508 226 q 616 265 580 226 q 653 382 653 303 q 617 498 653 461 q 508 535 581 535 q 400 498 436 535 q 364 382 364 461 q 400 265 364 303 q 508 226 437 226 m 743 1315 q 884 1295 840 1315 q 928 1228 928 1274 q 913 1193 928 1206 q 869 1164 898 1179 q 830 1139 844 1150 q 813 1110 816 1127 l 682 1110 q 695 1147 683 1132 q 721 1170 707 1162 q 757 1189 735 1179 q 778 1200 772 1196 q 785 1208 785 1203 q 769 1223 785 1219 q 719 1228 753 1228 q 597 1217 655 1228 l 597 1301 q 666 1311 624 1308 q 743 1315 709 1315 m 385 1122 l 632 1122 l 831 847 l 599 847 l 508 977 l 418 847 l 186 847 l 385 1122 z "},"ỗ":{"ha":1017,"x_min":46,"x_max":971,"o":"m 508 -15 q 265 33 369 -15 q 103 170 160 81 q 46 382 46 260 q 100 594 46 505 q 258 730 154 683 q 508 776 363 776 q 758 730 654 776 q 917 594 863 683 q 971 382 971 505 q 914 170 971 260 q 752 33 856 81 q 508 -15 647 -15 m 508 226 q 616 265 580 226 q 653 382 653 303 q 617 498 653 461 q 508 535 581 535 q 400 498 436 535 q 364 382 364 461 q 400 265 364 303 q 508 226 437 226 m 646 1108 q 575 1114 608 1108 q 497 1131 542 1119 q 424 1146 453 1141 q 363 1151 395 1151 q 277 1142 315 1151 q 200 1113 240 1133 l 200 1251 q 275 1286 235 1275 q 371 1297 315 1297 q 440 1292 408 1297 q 520 1274 472 1286 q 591 1258 561 1264 q 654 1253 622 1253 q 739 1262 702 1253 q 817 1291 776 1271 l 817 1153 q 742 1119 782 1129 q 646 1108 702 1108 m 872 849 l 619 849 l 508 956 l 397 849 l 144 849 l 375 1068 l 642 1068 l 872 849 z "},"ȍ":{"ha":1017,"x_min":46,"x_max":971,"o":"m 508 -15 q 265 33 369 -15 q 103 170 160 81 q 46 382 46 260 q 100 594 46 505 q 258 730 154 683 q 508 776 363 776 q 758 730 654 776 q 917 594 863 683 q 971 382 971 505 q 914 170 971 260 q 752 33 856 81 q 508 -15 647 -15 m 508 226 q 616 265 580 226 q 653 382 653 303 q 617 498 653 461 q 508 535 581 535 q 400 498 436 535 q 364 382 364 461 q 400 265 364 303 q 508 226 437 226 m 232 847 l 101 1122 l 343 1122 l 457 847 l 232 847 m 560 847 l 429 1122 l 671 1122 l 785 847 l 560 847 z "},"ö":{"ha":1017,"x_min":46,"x_max":971,"o":"m 508 -15 q 265 33 369 -15 q 103 170 160 81 q 46 382 46 260 q 100 594 46 505 q 258 730 154 683 q 508 776 363 776 q 758 730 654 776 q 917 594 863 683 q 971 382 971 505 q 914 170 971 260 q 752 33 856 81 q 508 -15 647 -15 m 508 226 q 616 265 580 226 q 653 382 653 303 q 617 498 653 461 q 508 535 581 535 q 400 498 436 535 q 364 382 364 461 q 400 265 364 303 q 508 226 437 226 m 310 840 q 187 878 227 840 q 147 985 147 915 q 187 1092 147 1054 q 310 1129 227 1129 q 432 1092 392 1129 q 472 985 472 1054 q 432 878 472 915 q 310 840 392 840 m 707 840 q 584 878 624 840 q 544 985 544 915 q 584 1092 544 1054 q 707 1129 624 1129 q 830 1092 790 1129 q 869 985 869 1054 q 830 878 869 915 q 707 840 790 840 z "},"ȫ":{"ha":1017,"x_min":46,"x_max":971,"o":"m 508 -15 q 265 33 369 -15 q 103 170 160 81 q 46 382 46 260 q 100 594 46 505 q 258 730 154 683 q 508 776 363 776 q 758 730 654 776 q 917 594 863 683 q 971 382 971 505 q 914 170 971 260 q 752 33 856 81 q 508 -15 647 -15 m 508 226 q 616 265 580 226 q 653 382 653 303 q 617 498 653 461 q 508 535 581 535 q 400 498 436 535 q 364 382 364 461 q 400 265 364 303 q 508 226 437 226 m 310 840 q 187 878 227 840 q 147 985 147 915 q 187 1092 147 1054 q 310 1129 227 1129 q 432 1092 392 1129 q 472 985 472 1054 q 432 878 472 915 q 310 840 392 840 m 707 840 q 584 878 624 840 q 544 985 544 915 q 584 1092 544 1054 q 707 1129 624 1129 q 830 1092 790 1129 q 869 985 869 1054 q 830 878 869 915 q 707 840 790 840 m 219 1188 l 219 1361 l 797 1361 l 797 1188 l 219 1188 z "},"ȱ":{"ha":1017,"x_min":46,"x_max":971,"o":"m 508 -15 q 265 33 369 -15 q 103 170 160 81 q 46 382 46 260 q 100 594 46 505 q 258 730 154 683 q 508 776 363 776 q 758 730 654 776 q 917 594 863 683 q 971 382 971 505 q 914 170 971 260 q 752 33 856 81 q 508 -15 647 -15 m 508 226 q 616 265 580 226 q 653 382 653 303 q 617 498 653 461 q 508 535 581 535 q 400 498 436 535 q 364 382 364 461 q 400 265 364 303 q 508 226 437 226 m 508 838 q 365 875 411 838 q 318 985 318 912 q 365 1095 318 1058 q 508 1132 411 1132 q 652 1095 606 1132 q 699 985 699 1058 q 652 875 699 912 q 508 838 606 838 m 219 1190 l 219 1364 l 797 1364 l 797 1190 l 219 1190 z "},"ọ":{"ha":1017,"x_min":46,"x_max":971,"o":"m 508 -15 q 265 33 369 -15 q 103 170 160 81 q 46 382 46 260 q 100 594 46 505 q 258 730 154 683 q 508 776 363 776 q 758 730 654 776 q 917 594 863 683 q 971 382 971 505 q 914 170 971 260 q 752 33 856 81 q 508 -15 647 -15 m 508 226 q 616 265 580 226 q 653 382 653 303 q 617 498 653 461 q 508 535 581 535 q 400 498 436 535 q 364 382 364 461 q 400 265 364 303 q 508 226 437 226 m 508 -347 q 386 -311 426 -347 q 346 -210 346 -274 q 386 -109 346 -145 q 508 -72 426 -72 q 631 -109 590 -72 q 671 -210 671 -145 q 631 -311 671 -274 q 508 -347 590 -347 z "},"ò":{"ha":1017,"x_min":46,"x_max":971,"o":"m 508 -15 q 265 33 369 -15 q 103 170 160 81 q 46 382 46 260 q 100 594 46 505 q 258 730 154 683 q 508 776 363 776 q 758 730 654 776 q 917 594 863 683 q 971 382 971 505 q 914 170 971 260 q 752 33 856 81 q 508 -15 647 -15 m 508 226 q 616 265 580 226 q 653 382 653 303 q 617 498 653 461 q 508 535 581 535 q 400 498 436 535 q 364 382 364 461 q 400 265 364 303 q 508 226 437 226 m 356 847 l 129 1122 l 482 1122 l 661 847 l 356 847 z "},"ỏ":{"ha":1017,"x_min":46,"x_max":971,"o":"m 508 -15 q 265 33 369 -15 q 103 170 160 81 q 46 382 46 260 q 100 594 46 505 q 258 730 154 683 q 508 776 363 776 q 758 730 654 776 q 917 594 863 683 q 971 382 971 505 q 914 170 971 260 q 752 33 856 81 q 508 -15 647 -15 m 508 226 q 616 265 580 226 q 653 382 653 303 q 617 498 653 461 q 508 535 581 535 q 400 498 436 535 q 364 382 364 461 q 400 265 364 303 q 508 226 437 226 m 433 847 q 447 897 435 876 q 473 931 458 918 q 510 958 488 944 q 539 980 531 972 q 547 999 547 988 q 533 1017 547 1012 q 481 1022 519 1022 q 351 1006 420 1022 l 351 1113 q 424 1126 381 1122 q 504 1131 468 1131 q 655 1103 607 1131 q 703 1018 703 1076 q 694 974 703 992 q 672 944 685 956 q 638 917 659 932 q 599 884 612 899 q 583 847 586 870 l 433 847 z "},"ơ":{"ha":1017,"x_min":46,"x_max":1018,"o":"m 1018 864 q 981 723 1018 778 q 876 646 944 668 q 947 530 923 597 q 971 382 971 463 q 914 170 971 260 q 752 33 856 81 q 508 -15 647 -15 q 265 33 369 -15 q 103 170 160 81 q 46 382 46 260 q 101 594 46 506 q 263 730 156 683 q 522 776 369 776 q 629 772 563 776 q 688 768 665 768 q 791 792 757 768 q 825 872 825 816 q 817 969 825 915 l 1007 969 q 1018 864 1018 919 m 508 226 q 616 265 580 226 q 653 382 653 303 q 617 498 653 461 q 508 535 581 535 q 400 498 436 535 q 364 382 364 461 q 400 265 364 303 q 508 226 437 226 z "},"ớ":{"ha":1017,"x_min":46,"x_max":1018,"o":"m 1018 864 q 981 723 1018 778 q 876 646 944 668 q 947 530 923 597 q 971 382 971 463 q 914 170 971 260 q 752 33 856 81 q 508 -15 647 -15 q 265 33 369 -15 q 103 170 160 81 q 46 382 46 260 q 101 594 46 506 q 263 730 156 683 q 522 776 369 776 q 629 772 563 776 q 688 768 665 768 q 791 792 757 768 q 825 872 825 816 q 817 969 825 915 l 1007 969 q 1018 864 1018 919 m 508 226 q 616 265 580 226 q 653 382 653 303 q 617 498 653 461 q 508 535 581 535 q 400 498 436 535 q 364 382 364 461 q 400 265 364 303 q 508 226 437 226 m 356 847 l 535 1122 l 888 1122 l 661 847 l 356 847 z "},"ợ":{"ha":1017,"x_min":46,"x_max":1018,"o":"m 1018 864 q 981 723 1018 778 q 876 646 944 668 q 947 530 923 597 q 971 382 971 463 q 914 170 971 260 q 752 33 856 81 q 508 -15 647 -15 q 265 33 369 -15 q 103 170 160 81 q 46 382 46 260 q 101 594 46 506 q 263 730 156 683 q 522 776 369 776 q 629 772 563 776 q 688 768 665 768 q 791 792 757 768 q 825 872 825 816 q 817 969 825 915 l 1007 969 q 1018 864 1018 919 m 508 226 q 616 265 580 226 q 653 382 653 303 q 617 498 653 461 q 508 535 581 535 q 400 498 436 535 q 364 382 364 461 q 400 265 364 303 q 508 226 437 226 m 508 -347 q 386 -311 426 -347 q 346 -210 346 -274 q 386 -109 346 -145 q 508 -72 426 -72 q 631 -109 590 -72 q 671 -210 671 -145 q 631 -311 671 -274 q 508 -347 590 -347 z "},"ờ":{"ha":1017,"x_min":46,"x_max":1018,"o":"m 1018 864 q 981 723 1018 778 q 876 646 944 668 q 947 530 923 597 q 971 382 971 463 q 914 170 971 260 q 752 33 856 81 q 508 -15 647 -15 q 265 33 369 -15 q 103 170 160 81 q 46 382 46 260 q 101 594 46 506 q 263 730 156 683 q 522 776 369 776 q 629 772 563 776 q 688 768 665 768 q 791 792 757 768 q 825 872 825 816 q 817 969 825 915 l 1007 969 q 1018 864 1018 919 m 508 226 q 616 265 580 226 q 653 382 653 303 q 617 498 653 461 q 508 535 581 535 q 400 498 436 535 q 364 382 364 461 q 400 265 364 303 q 508 226 437 226 m 356 847 l 129 1122 l 482 1122 l 661 847 l 356 847 z "},"ở":{"ha":1017,"x_min":46,"x_max":1018,"o":"m 1018 864 q 981 723 1018 778 q 876 646 944 668 q 947 530 923 597 q 971 382 971 463 q 914 170 971 260 q 752 33 856 81 q 508 -15 647 -15 q 265 33 369 -15 q 103 170 160 81 q 46 382 46 260 q 101 594 46 506 q 263 730 156 683 q 522 776 369 776 q 629 772 563 776 q 688 768 665 768 q 791 792 757 768 q 825 872 825 816 q 817 969 825 915 l 1007 969 q 1018 864 1018 919 m 508 226 q 616 265 580 226 q 653 382 653 303 q 617 498 653 461 q 508 535 581 535 q 400 498 436 535 q 364 382 364 461 q 400 265 364 303 q 508 226 437 226 m 433 847 q 447 897 435 876 q 473 931 458 918 q 510 958 488 944 q 539 980 531 972 q 547 999 547 988 q 533 1017 547 1012 q 481 1022 519 1022 q 351 1006 420 1022 l 351 1113 q 424 1126 381 1122 q 504 1131 468 1131 q 655 1103 607 1131 q 703 1018 703 1076 q 694 974 703 992 q 672 944 685 956 q 638 917 659 932 q 599 884 612 899 q 583 847 586 870 l 433 847 z "},"ỡ":{"ha":1017,"x_min":46,"x_max":1018,"o":"m 626 861 q 566 870 594 861 q 497 898 537 880 q 435 923 460 915 q 383 932 410 932 q 307 917 341 932 q 233 868 272 903 l 233 1050 q 304 1095 267 1081 q 390 1110 342 1110 q 451 1100 422 1110 q 519 1073 480 1091 q 582 1048 556 1056 q 633 1039 607 1039 q 711 1054 676 1039 q 783 1103 746 1069 l 783 921 q 713 875 750 890 q 626 861 675 861 m 1018 864 q 981 723 1018 778 q 876 646 944 668 q 947 530 923 597 q 971 382 971 463 q 914 170 971 260 q 752 33 856 81 q 508 -15 647 -15 q 265 33 369 -15 q 103 170 160 81 q 46 382 46 260 q 101 594 46 506 q 263 730 156 683 q 522 776 369 776 q 629 772 563 776 q 688 768 665 768 q 791 792 757 768 q 825 872 825 816 q 817 969 825 915 l 1007 969 q 1018 864 1018 919 m 508 226 q 616 265 580 226 q 653 382 653 303 q 617 498 653 461 q 508 535 581 535 q 400 498 436 535 q 364 382 364 461 q 400 265 364 303 q 508 226 437 226 z "},"ő":{"ha":1017,"x_min":46,"x_max":971,"o":"m 508 -15 q 265 33 369 -15 q 103 170 160 81 q 46 382 46 260 q 100 594 46 505 q 258 730 154 683 q 508 776 363 776 q 758 730 654 776 q 917 594 863 683 q 971 382 971 505 q 914 170 971 260 q 752 33 856 81 q 508 -15 647 -15 m 508 226 q 616 265 580 226 q 653 382 653 303 q 617 498 653 461 q 508 535 581 535 q 400 498 436 535 q 364 382 364 461 q 400 265 364 303 q 508 226 437 226 m 232 847 l 346 1122 l 588 1122 l 457 847 l 232 847 m 560 847 l 674 1122 l 915 1122 l 785 847 l 560 847 z "},"ȏ":{"ha":1017,"x_min":46,"x_max":971,"o":"m 508 -15 q 265 33 369 -15 q 103 170 160 81 q 46 382 46 260 q 100 594 46 505 q 258 730 154 683 q 508 776 363 776 q 758 730 654 776 q 917 594 863 683 q 971 382 971 505 q 914 170 971 260 q 752 33 856 81 q 508 -15 647 -15 m 508 226 q 616 265 580 226 q 653 382 653 303 q 617 498 653 461 q 508 535 581 535 q 400 498 436 535 q 364 382 364 461 q 400 265 364 303 q 508 226 437 226 m 189 867 q 278 1057 197 989 q 508 1125 360 1125 q 739 1057 657 1125 q 828 867 820 989 l 640 867 q 602 947 634 919 q 508 974 570 974 q 415 947 447 974 q 376 867 383 919 l 189 867 z "},"ō":{"ha":1017,"x_min":46,"x_max":971,"o":"m 508 -15 q 265 33 369 -15 q 103 170 160 81 q 46 382 46 260 q 100 594 46 505 q 258 730 154 683 q 508 776 363 776 q 758 730 654 776 q 917 594 863 683 q 971 382 971 505 q 914 170 971 260 q 752 33 856 81 q 508 -15 647 -15 m 508 226 q 616 265 580 226 q 653 382 653 303 q 617 498 653 461 q 508 535 581 535 q 400 498 436 535 q 364 382 364 461 q 400 265 364 303 q 508 226 437 226 m 219 899 l 219 1072 l 797 1072 l 797 899 l 219 899 z "},"ṓ":{"ha":1017,"x_min":46,"x_max":971,"o":"m 508 -15 q 265 33 369 -15 q 103 170 160 81 q 46 382 46 260 q 100 594 46 505 q 258 730 154 683 q 508 776 363 776 q 758 730 654 776 q 917 594 863 683 q 971 382 971 505 q 914 170 971 260 q 752 33 856 81 q 508 -15 647 -15 m 508 226 q 616 265 580 226 q 653 382 653 303 q 617 498 653 461 q 508 535 581 535 q 400 498 436 535 q 364 382 364 461 q 400 265 364 303 q 508 226 437 226 m 219 899 l 219 1072 l 797 1072 l 797 899 l 219 899 m 360 1168 l 501 1388 l 840 1388 l 651 1168 l 360 1168 z "},"ṑ":{"ha":1017,"x_min":46,"x_max":971,"o":"m 508 -15 q 265 33 369 -15 q 103 170 160 81 q 46 382 46 260 q 100 594 46 505 q 258 730 154 683 q 508 776 363 776 q 758 730 654 776 q 917 594 863 683 q 971 382 971 505 q 914 170 971 260 q 752 33 856 81 q 508 -15 647 -15 m 508 226 q 616 265 580 226 q 653 382 653 303 q 617 498 653 461 q 508 535 581 535 q 400 498 436 535 q 364 382 364 461 q 400 265 364 303 q 508 226 437 226 m 219 899 l 219 1072 l 797 1072 l 797 899 l 219 899 m 363 1168 l 174 1388 l 513 1388 l 654 1168 l 363 1168 z "},"ǫ":{"ha":1017,"x_min":46,"x_max":971,"o":"m 508 776 q 758 730 654 776 q 917 594 863 683 q 971 382 971 505 q 899 150 971 246 q 701 13 828 54 q 585 -36 626 -12 q 528 -84 544 -60 q 513 -135 513 -108 q 535 -186 513 -167 q 601 -204 558 -204 q 683 -187 642 -204 l 683 -299 q 622 -314 652 -309 q 551 -319 592 -319 q 390 -277 444 -319 q 335 -162 335 -235 q 356 -77 335 -115 q 423 -10 378 -40 q 223 55 308 4 q 92 190 138 106 q 46 382 46 273 q 100 594 46 505 q 258 730 154 683 q 508 776 363 776 m 508 226 q 616 265 580 226 q 653 382 653 303 q 617 498 653 461 q 508 535 581 535 q 400 498 436 535 q 364 382 364 461 q 400 265 364 303 q 508 226 437 226 z "},"ø":{"ha":1017,"x_min":46,"x_max":971,"o":"m 838 681 q 937 555 903 631 q 971 382 971 478 q 914 170 971 260 q 752 33 856 81 q 508 -15 647 -15 q 309 15 399 -15 l 247 -62 l 138 28 l 182 83 q 81 211 116 135 q 46 382 46 287 q 100 594 46 505 q 258 730 154 683 q 508 776 363 776 q 710 748 621 776 l 772 826 l 882 736 l 838 681 m 508 538 q 398 500 434 538 q 361 382 361 463 q 372 306 361 339 l 552 534 q 508 538 530 538 m 508 224 q 619 262 582 224 q 656 382 656 301 q 646 455 656 424 l 465 227 q 508 224 488 224 z "},"ǿ":{"ha":1017,"x_min":46,"x_max":971,"o":"m 838 681 q 937 555 903 631 q 971 382 971 478 q 914 170 971 260 q 752 33 856 81 q 508 -15 647 -15 q 309 15 399 -15 l 247 -62 l 138 28 l 182 83 q 81 211 116 135 q 46 382 46 287 q 100 594 46 505 q 258 730 154 683 q 508 776 363 776 q 710 748 621 776 l 772 826 l 882 736 l 838 681 m 508 538 q 398 500 434 538 q 361 382 361 463 q 372 306 361 339 l 552 534 q 508 538 530 538 m 508 224 q 619 262 582 224 q 656 382 656 301 q 646 455 656 424 l 465 227 q 508 224 488 224 m 353 847 l 532 1122 l 885 1122 l 658 847 l 353 847 z "},"õ":{"ha":1017,"x_min":46,"x_max":971,"o":"m 508 -15 q 265 33 369 -15 q 103 170 160 81 q 46 382 46 260 q 100 594 46 505 q 258 730 154 683 q 508 776 363 776 q 758 730 654 776 q 917 594 863 683 q 971 382 971 505 q 914 170 971 260 q 752 33 856 81 q 508 -15 647 -15 m 508 226 q 616 265 580 226 q 653 382 653 303 q 617 498 653 461 q 508 535 581 535 q 400 498 436 535 q 364 382 364 461 q 400 265 364 303 q 508 226 437 226 m 632 861 q 568 870 599 861 q 497 898 538 880 q 431 923 458 915 q 376 932 404 932 q 295 917 331 932 q 219 868 259 902 l 219 1050 q 293 1095 253 1081 q 385 1110 333 1110 q 448 1100 418 1110 q 520 1073 478 1091 q 586 1048 559 1056 q 640 1039 613 1039 q 722 1054 685 1039 q 797 1103 758 1069 l 797 921 q 724 875 763 890 q 632 861 684 861 z "},"ṍ":{"ha":1017,"x_min":46,"x_max":971,"o":"m 508 -15 q 265 33 369 -15 q 103 170 160 81 q 46 382 46 260 q 100 594 46 505 q 258 730 154 683 q 508 776 363 776 q 758 730 654 776 q 917 594 863 683 q 971 382 971 505 q 914 170 971 260 q 752 33 856 81 q 508 -15 647 -15 m 508 226 q 616 265 580 226 q 653 382 653 303 q 617 498 653 461 q 508 535 581 535 q 400 498 436 535 q 364 382 364 461 q 400 265 364 303 q 508 226 437 226 m 632 861 q 568 870 599 861 q 497 898 538 880 q 431 923 458 915 q 376 932 404 932 q 295 917 331 932 q 219 868 259 902 l 219 1050 q 293 1095 253 1081 q 385 1110 333 1110 q 448 1100 418 1110 q 520 1073 478 1091 q 586 1048 559 1056 q 640 1039 613 1039 q 722 1054 685 1039 q 797 1103 758 1069 l 797 921 q 724 875 763 890 q 632 861 684 861 m 360 1168 l 501 1388 l 840 1388 l 651 1168 l 360 1168 z "},"ṏ":{"ha":1017,"x_min":46,"x_max":971,"o":"m 508 -15 q 265 33 369 -15 q 103 170 160 81 q 46 382 46 260 q 100 594 46 505 q 258 730 154 683 q 508 776 363 776 q 758 730 654 776 q 917 594 863 683 q 971 382 971 505 q 914 170 971 260 q 752 33 856 81 q 508 -15 647 -15 m 508 226 q 616 265 580 226 q 653 382 653 303 q 617 498 653 461 q 508 535 581 535 q 400 498 436 535 q 364 382 364 461 q 400 265 364 303 q 508 226 437 226 m 632 861 q 568 870 599 861 q 497 898 538 880 q 431 923 458 915 q 376 932 404 932 q 295 917 331 932 q 219 868 259 902 l 219 1050 q 293 1095 253 1081 q 385 1110 333 1110 q 448 1100 418 1110 q 520 1073 478 1091 q 586 1048 559 1056 q 640 1039 613 1039 q 722 1054 685 1039 q 797 1103 758 1069 l 797 921 q 724 875 763 890 q 632 861 684 861 m 310 1129 q 187 1167 227 1129 q 147 1274 147 1204 q 187 1381 147 1343 q 310 1418 227 1418 q 432 1381 392 1418 q 472 1274 472 1343 q 432 1167 472 1204 q 310 1129 392 1129 m 707 1129 q 584 1167 624 1129 q 544 1274 544 1204 q 584 1381 544 1343 q 707 1418 624 1418 q 830 1381 790 1418 q 869 1274 869 1343 q 830 1167 869 1204 q 707 1129 790 1129 z "},"ȭ":{"ha":1017,"x_min":46,"x_max":971,"o":"m 508 -15 q 265 33 369 -15 q 103 170 160 81 q 46 382 46 260 q 100 594 46 505 q 258 730 154 683 q 508 776 363 776 q 758 730 654 776 q 917 594 863 683 q 971 382 971 505 q 914 170 971 260 q 752 33 856 81 q 508 -15 647 -15 m 508 226 q 616 265 580 226 q 653 382 653 303 q 617 498 653 461 q 508 535 581 535 q 400 498 436 535 q 364 382 364 461 q 400 265 364 303 q 508 226 437 226 m 632 861 q 568 870 599 861 q 497 898 538 880 q 431 923 458 915 q 376 932 404 932 q 295 917 331 932 q 219 868 259 902 l 219 1050 q 293 1095 253 1081 q 385 1110 333 1110 q 448 1100 418 1110 q 520 1073 478 1091 q 586 1048 559 1056 q 640 1039 613 1039 q 722 1054 685 1039 q 797 1103 758 1069 l 797 921 q 724 875 763 890 q 632 861 684 861 m 219 1188 l 219 1361 l 797 1361 l 797 1188 l 219 1188 z "},"œ":{"ha":1524,"x_min":46,"x_max":1485,"o":"m 1485 297 l 972 297 q 1000 245 977 264 q 1074 218 1023 226 q 1217 210 1125 210 q 1432 226 1313 210 l 1432 6 q 1165 -15 1309 -15 q 795 82 911 -15 q 666 10 742 35 q 494 -15 590 -15 q 260 33 362 -15 q 102 170 159 81 q 46 382 46 260 q 99 593 46 505 q 254 729 153 682 q 494 776 355 776 q 812 670 703 776 q 938 749 865 721 q 1099 776 1011 776 q 1309 727 1222 776 q 1440 586 1395 678 q 1485 368 1485 494 l 1485 297 m 1079 588 q 998 558 1025 588 q 969 464 972 528 l 1189 464 q 1159 557 1186 527 q 1079 588 1133 588 m 508 226 q 616 265 580 226 q 653 382 653 303 q 617 498 653 461 q 508 535 581 535 q 400 498 436 535 q 364 382 364 461 q 400 265 364 303 q 508 226 437 226 z "},"p":{"ha":1035,"x_min":81,"x_max":989,"o":"m 81 764 l 349 764 l 365 690 l 379 690 q 484 753 424 731 q 617 776 544 776 q 806 736 722 776 q 939 611 890 696 q 989 399 989 526 q 932 177 989 270 q 769 34 875 83 q 521 -15 664 -15 q 403 -10 472 -15 l 403 -306 l 81 -306 l 81 764 m 497 222 q 628 261 585 222 q 671 378 671 300 q 526 524 671 524 q 459 515 492 524 q 403 490 426 507 l 403 231 q 497 222 453 222 z "},"þ":{"ha":1035,"x_min":81,"x_max":989,"o":"m 81 1122 l 403 1122 l 403 699 l 417 699 q 643 776 503 776 q 817 734 739 776 q 942 606 896 692 q 989 399 989 521 q 932 177 989 270 q 769 34 875 83 q 521 -15 664 -15 q 403 -10 472 -15 l 403 -306 l 81 -306 l 81 1122 m 497 222 q 628 261 585 222 q 671 378 671 300 q 526 524 671 524 q 459 515 492 524 q 403 490 426 507 l 403 231 q 497 222 453 222 z "},"q":{"ha":1035,"x_min":46,"x_max":954,"o":"m 632 63 l 618 63 q 392 -15 532 -15 q 217 27 296 -15 q 92 154 139 69 q 46 358 46 238 q 178 669 46 561 q 567 776 310 776 q 771 763 665 776 q 954 726 877 750 l 954 -306 l 632 -306 l 632 63 m 510 238 q 574 244 542 238 q 632 264 606 251 l 632 531 q 538 540 588 540 q 408 500 452 540 q 364 381 364 460 q 510 238 364 238 z "},"r":{"ha":665,"x_min":81,"x_max":657,"o":"m 81 764 l 342 764 l 367 678 l 381 678 q 465 752 413 727 q 588 776 518 776 q 657 771 621 776 l 657 489 q 568 496 622 496 q 474 483 519 496 q 403 446 428 469 l 403 0 l 81 0 l 81 764 z "},"ŕ":{"ha":665,"x_min":81,"x_max":749,"o":"m 81 764 l 342 764 l 367 678 l 381 678 q 465 752 413 727 q 588 776 518 776 q 657 771 621 776 l 657 489 q 568 496 622 496 q 474 483 519 496 q 403 446 428 469 l 403 0 l 81 0 l 81 764 m 217 847 l 396 1122 l 749 1122 l 522 847 l 217 847 z "},"ř":{"ha":665,"x_min":47,"x_max":692,"o":"m 81 764 l 342 764 l 367 678 l 381 678 q 465 752 413 727 q 588 776 518 776 q 657 771 621 776 l 657 489 q 568 496 622 496 q 474 483 519 496 q 403 446 428 469 l 403 0 l 81 0 l 81 764 m 460 1122 l 692 1122 l 493 847 l 246 847 l 47 1122 l 279 1122 l 369 992 l 460 1122 z "},"ŗ":{"ha":665,"x_min":69,"x_max":657,"o":"m 81 764 l 342 764 l 367 678 l 381 678 q 465 752 413 727 q 588 776 518 776 q 657 771 621 776 l 657 489 q 568 496 622 496 q 474 483 519 496 q 403 446 428 469 l 403 0 l 81 0 l 81 764 m 242 -72 q 414 -196 414 -72 q 395 -284 414 -239 q 347 -361 377 -330 l 153 -361 q 197 -258 187 -303 q 99 -230 129 -253 q 69 -167 69 -206 q 111 -96 69 -120 q 242 -72 153 -72 z "},"ȑ":{"ha":665,"x_min":-37,"x_max":657,"o":"m 81 764 l 342 764 l 367 678 l 381 678 q 465 752 413 727 q 588 776 518 776 q 657 771 621 776 l 657 489 q 568 496 622 496 q 474 483 519 496 q 403 446 428 469 l 403 0 l 81 0 l 81 764 m 93 847 l -37 1122 l 204 1122 l 318 847 l 93 847 m 421 847 l 290 1122 l 532 1122 l 646 847 l 421 847 z "},"ṛ":{"ha":665,"x_min":79,"x_max":657,"o":"m 81 764 l 342 764 l 367 678 l 381 678 q 465 752 413 727 q 588 776 518 776 q 657 771 621 776 l 657 489 q 568 496 622 496 q 474 483 519 496 q 403 446 428 469 l 403 0 l 81 0 l 81 764 m 242 -347 q 119 -311 160 -347 q 79 -210 79 -274 q 119 -109 79 -145 q 242 -72 160 -72 q 364 -109 324 -72 q 404 -210 404 -145 q 364 -311 404 -274 q 242 -347 324 -347 z "},"ȓ":{"ha":665,"x_min":50,"x_max":689,"o":"m 81 764 l 342 764 l 367 678 l 381 678 q 465 752 413 727 q 588 776 518 776 q 657 771 621 776 l 657 489 q 568 496 622 496 q 474 483 519 496 q 403 446 428 469 l 403 0 l 81 0 l 81 764 m 50 867 q 139 1057 58 989 q 369 1125 221 1125 q 600 1057 518 1125 q 689 867 681 989 l 501 867 q 463 947 495 919 q 369 974 431 974 q 276 947 308 974 q 238 867 244 919 l 50 867 z "},"ṟ":{"ha":665,"x_min":-47,"x_max":657,"o":"m 81 764 l 342 764 l 367 678 l 381 678 q 465 752 413 727 q 588 776 518 776 q 657 771 621 776 l 657 489 q 568 496 622 496 q 474 483 519 496 q 403 446 428 469 l 403 0 l 81 0 l 81 764 m -47 -293 l -47 -121 l 531 -121 l 531 -293 l -47 -293 z "},"s":{"ha":839,"x_min":43,"x_max":801,"o":"m 382 -15 q 213 -6 297 -15 q 64 22 130 4 l 64 235 q 214 206 131 217 q 376 196 297 196 q 471 205 444 196 q 499 233 499 215 q 490 251 499 245 q 457 260 482 257 l 293 281 q 101 355 159 298 q 43 511 43 412 q 156 707 43 637 q 499 776 269 776 q 639 768 567 776 q 758 746 710 760 l 758 533 q 638 556 709 547 q 501 565 567 565 q 377 554 409 565 q 346 525 346 543 q 355 510 346 515 q 389 501 364 504 l 553 481 q 689 445 635 470 q 773 372 744 420 q 801 247 801 324 q 752 106 801 165 q 609 16 703 47 q 382 -15 515 -15 z "},"ś":{"ha":839,"x_min":43,"x_max":808,"o":"m 382 -15 q 213 -6 297 -15 q 64 22 130 4 l 64 235 q 214 206 131 217 q 376 196 297 196 q 471 205 444 196 q 499 233 499 215 q 490 251 499 245 q 457 260 482 257 l 293 281 q 101 355 159 298 q 43 511 43 412 q 156 707 43 637 q 499 776 269 776 q 639 768 567 776 q 758 746 710 760 l 758 533 q 638 556 709 547 q 501 565 567 565 q 377 554 409 565 q 346 525 346 543 q 355 510 346 515 q 389 501 364 504 l 553 481 q 689 445 635 470 q 773 372 744 420 q 801 247 801 324 q 752 106 801 165 q 609 16 703 47 q 382 -15 515 -15 m 276 847 l 456 1122 l 808 1122 l 582 847 l 276 847 z "},"ṥ":{"ha":839,"x_min":43,"x_max":808,"o":"m 382 -15 q 213 -6 297 -15 q 64 22 130 4 l 64 235 q 214 206 131 217 q 376 196 297 196 q 471 205 444 196 q 499 233 499 215 q 490 251 499 245 q 457 260 482 257 l 293 281 q 101 355 159 298 q 43 511 43 412 q 156 707 43 637 q 499 776 269 776 q 639 768 567 776 q 758 746 710 760 l 758 533 q 638 556 709 547 q 501 565 567 565 q 377 554 409 565 q 346 525 346 543 q 355 510 346 515 q 389 501 364 504 l 553 481 q 689 445 635 470 q 773 372 744 420 q 801 247 801 324 q 752 106 801 165 q 609 16 703 47 q 382 -15 515 -15 m 263 1094 q 150 1121 186 1094 q 114 1194 114 1148 q 150 1268 114 1241 q 263 1294 186 1294 q 375 1268 339 1294 q 411 1194 411 1241 q 375 1121 411 1148 q 263 1094 339 1094 m 276 847 l 456 1122 l 808 1122 l 582 847 l 276 847 z "}}}
